<svg width="33" height="32" viewBox="0 0 33 32" fill="none" xmlns="http://www.w3.org/2000/svg">
	<path d="M11.5275 3.40267C13.4941 2.18421 15.2105 2.67523 16.2415 3.45738C16.6643 3.77807 16.8757 3.93843 17.0001 3.93843C17.1245 3.93843 17.3358 3.77807 17.7586 3.45738C18.7897 2.67523 20.5061 2.18421 22.4726 3.40267C25.0535 5.00177 25.6375 10.2773 19.6845 14.7281C18.5506 15.5758 17.9837 15.9995 17.0001 15.9995C16.0165 15.9995 15.4495 15.5758 14.3157 14.7281C8.36268 10.2773 8.94667 5.00177 11.5275 3.40267Z" stroke="#C5A964" stroke-width="2" stroke-linecap="round" />
	<path d="M5.66675 18.6666H8.85984C9.25204 18.6666 9.63885 18.755 9.98964 18.9248L12.7123 20.2421C13.0631 20.4118 13.4499 20.5001 13.8421 20.5001H15.2322C16.5767 20.5001 17.6667 21.5549 17.6667 22.856C17.6667 22.9085 17.6307 22.9548 17.5785 22.9692L14.1906 23.906C13.5828 24.074 12.9321 24.0154 12.3667 23.7418L9.45623 22.3337" stroke="#C5A964" stroke-width="2" stroke-linecap="round" stroke-linejoin="round" />
	<path d="M17.6667 22L23.7905 20.1186C24.8761 19.7803 26.0495 20.1814 26.7295 21.1231C27.2213 21.8039 27.021 22.779 26.3047 23.1923L16.2839 28.974C15.6466 29.3418 14.8946 29.4315 14.1937 29.2235L5.66675 26.6932" stroke="#C5A964" stroke-width="2" stroke-linecap="round" stroke-linejoin="round" />
</svg>
