<svg width="33" height="32" viewBox="0 0 33 32" fill="none" xmlns="http://www.w3.org/2000/svg">
    <path d="M6.42411 26.2427C4.66675 24.4853 4.66675 21.6568 4.66675 16C4.66675 10.3431 4.66675 7.51472 6.42411 5.75736C8.18147 4 11.0099 4 16.6667 4C22.3235 4 25.1521 4 26.9094 5.75736C28.6667 7.51472 28.6667 10.3431 28.6667 16C28.6667 21.6568 28.6667 24.4853 26.9094 26.2427C25.1521 28 22.3235 28 16.6667 28C11.0099 28 8.18147 28 6.42411 26.2427Z" stroke="#C5A964" stroke-width="2" stroke-linecap="round" stroke-linejoin="round"/>
    <path d="M8.66675 16H12.0001L14.6667 10.6666L18.6667 21.3333L21.3334 16H24.6667" stroke="#C5A964" stroke-width="2" stroke-linecap="round" stroke-linejoin="round"/>
    </svg>
    