<svg width="32" height="32" viewBox="0 0 32 32" fill="none" xmlns="http://www.w3.org/2000/svg">
    <path d="M2.69056 27.0734C4.19542 29.2261 10.7459 30.9161 13.8396 26.886C17.1859 28.4865 22.7052 27.9904 27.1988 25.4845C27.8237 25.1361 28.4149 24.6962 28.7769 24.079C29.5943 22.6857 29.6136 20.7525 28.1225 17.9001C25.6365 11.6943 21.1653 6.24682 19.3601 4.05614C18.9895 3.71818 16.6249 3.23822 15.1829 2.77703C14.546 2.57967 13.36 2.44883 11.9415 4.31814C11.269 5.20436 8.21412 7.38091 12.0902 8.84459C12.6907 8.99739 13.1322 9.27916 15.8717 8.7787C16.2285 8.71679 17.1193 8.7787 17.7471 9.88052L19.0581 11.7555C19.1801 11.93 19.2593 12.1308 19.2836 12.3424C19.5133 14.3409 19.5059 16.843 20.6201 18.1101C18.8991 16.8656 14.4015 15.3874 11.0127 19.5934M2.66919 17.2533C4.28012 15.7213 8.9493 13.3012 13.8905 16.6954" stroke="#C5A964" stroke-width="2" stroke-linecap="round" stroke-linejoin="round"/>
    </svg>
    