<svg width="32" height="32" viewBox="0 0 32 32" fill="none" xmlns="http://www.w3.org/2000/svg">
    <path d="M21.5 27.3333V19.3333M24 19.3333V17.3333M24 29.3333V27.3333M21.5 23.3333H26.5M26.5 23.3333C27.3284 23.3333 28 24.0049 28 24.8333V25.8333C28 26.6617 27.3284 27.3333 26.5 27.3333H20M26.5 23.3333C27.3284 23.3333 28 22.6617 28 21.8333V20.8333C28 20.0049 27.3284 19.3333 26.5 19.3333H20" stroke="#C5A964" stroke-width="2" stroke-linecap="round" stroke-linejoin="round"/>
    <path d="M14.6665 6.66669C18.4377 6.66669 21.6566 6.66669 22.8282 7.73175C23.9998 8.79682 23.9998 9.90495 23.9998 13.3334L21.3332 12" stroke="#C5A964" stroke-width="2" stroke-linecap="round" stroke-linejoin="round"/>
    <path d="M15.9998 26.6667C12.2286 26.6667 9.00965 26.6667 7.83808 25.6016C6.6665 24.5365 6.6665 23.4284 6.6665 20L9.33317 21.3333" stroke="#C5A964" stroke-width="2" stroke-linecap="round" stroke-linejoin="round"/>
    <path d="M7.33333 4.33335C5.49239 4.33335 4 5.45265 4 6.83335C4 8.21406 5.49239 9.33335 7.33333 9.33335C9.17428 9.33335 10.6667 10.4526 10.6667 11.8334C10.6667 13.2141 9.17428 14.3334 7.33333 14.3334M7.33333 4.33335C8.78469 4.33335 10.0194 5.02902 10.477 6.00002M7.33333 4.33335V2.66669M7.33333 14.3334C5.88197 14.3334 4.64727 13.6376 4.18967 12.6667M7.33333 14.3334V16" stroke="#C5A964" stroke-width="2" stroke-linecap="round"/>
    </svg>
    