<svg width="32" height="32" viewBox="0 0 32 32" fill="none" xmlns="http://www.w3.org/2000/svg">
    <path d="M8.66675 8.20852C9.55383 7.18059 10.1135 6.66663 10.8003 6.66663C11.6445 6.66663 12.2965 7.44304 13.6005 8.99588L16.6237 12.5959C17.9857 14.2178 18.6667 15.0288 18.6667 16C18.6667 16.9712 17.9857 17.7821 16.6237 19.404L13.6005 23.0041C12.2965 24.5569 11.6445 25.3333 10.8003 25.3333C10.1135 25.3333 9.55383 24.8193 8.66675 23.7914" stroke="#C5A964" stroke-width="2" stroke-linecap="round" stroke-linejoin="round"/>
    <path d="M6.66675 20V12M2.66675 16H10.6667" stroke="#C5A964" stroke-width="2" stroke-linecap="round"/>
    <path d="M17.3333 25.3333L22.0157 19.4709C23.3385 17.8146 23.9999 16.9864 23.9999 16C23.9999 15.0136 23.3385 14.1853 22.0157 12.5291L17.3333 6.66663" stroke="#C5A964" stroke-width="2" stroke-linecap="round" stroke-linejoin="round"/>
    <path d="M22.6667 25.3333L27.3491 19.4709C28.6719 17.8146 29.3334 16.9864 29.3334 16C29.3334 15.0136 28.6719 14.1853 27.3491 12.5291L22.6667 6.66663" stroke="#C5A964" stroke-width="2" stroke-linecap="round" stroke-linejoin="round"/>
    </svg>
    