<svg width="32" height="32" viewBox="0 0 32 32" fill="none" xmlns="http://www.w3.org/2000/svg">
    <path d="M18.6665 4H13.3332C8.30485 4 5.7907 4 4.2286 5.56209C2.6665 7.1242 2.6665 9.63835 2.6665 14.6667C2.6665 19.6949 2.6665 22.2092 4.2286 23.7712C5.7907 25.3333 8.30485 25.3333 13.3332 25.3333H18.6665C23.6948 25.3333 26.209 25.3333 27.771 23.7712C29.3332 22.2092 29.3332 19.6949 29.3332 14.6667C29.3332 9.63835 29.3332 7.1242 27.771 5.56209C26.209 4 23.6948 4 18.6665 4Z" stroke="#C5A964" stroke-width="2" stroke-linecap="round"/>
    <path d="M22.5333 20.6667C22.5333 19.4884 23.4884 18.5333 24.6667 18.5333M18.2667 20.6667C18.2667 17.132 21.132 14.2667 24.6667 14.2667M14 20.6667C14 14.7756 18.7756 10 24.6667 10" stroke="#C5A964" stroke-width="2" stroke-linecap="round"/>
    <path d="M24 25.3334L25.3333 28" stroke="#C5A964" stroke-width="2" stroke-linecap="round" stroke-linejoin="round"/>
    <path d="M7.99984 25.3334L6.6665 28" stroke="#C5A964" stroke-width="2" stroke-linecap="round" stroke-linejoin="round"/>
    </svg>
    