<svg width="36" height="36" viewBox="0 0 36 36" fill="none" xmlns="http://www.w3.org/2000/svg">
    <g clip-path="url(#clip0_665_3038)">
    <path d="M9.12882 35.8726C7.73637 35.857 6.35701 35.6017 5.05129 35.1176C4.0978 34.7652 3.23513 34.2041 2.52635 33.4754C1.79568 32.768 1.23377 31.9052 0.882353 30.9508C0.398736 29.6452 0.143711 28.2659 0.128471 26.8736C0.0215294 24.5591 0 23.8648 0 18C0 12.1352 0.0236471 11.4434 0.127412 9.12706C0.144502 7.73533 0.399841 6.35681 0.882353 5.05129C1.23548 4.09765 1.7966 3.23463 2.52494 2.52494C3.23284 1.79493 4.09592 1.23354 5.05023 0.882353C6.35595 0.398335 7.73531 0.142951 9.12776 0.127412C11.4431 0.0215294 12.1384 0 18 0C23.8616 0 24.5566 0.0236471 26.8729 0.127412C28.265 0.144381 29.6439 0.399722 30.9498 0.882353C31.9037 1.234 32.7665 1.7952 33.4747 2.52459C34.2043 3.23303 34.7657 4.09609 35.1176 5.05023C35.6018 6.35593 35.8573 7.73529 35.8729 9.12776C35.9788 11.4441 36.0004 12.1376 36.0004 18.0007C36.0004 23.8638 35.9788 24.5573 35.8729 26.8736C35.8561 28.2659 35.6007 29.6449 35.1176 30.9508C34.7523 31.8978 34.1927 32.7578 33.4748 33.4755C32.757 34.1931 31.8969 34.7525 30.9498 35.1176C29.6441 35.6018 28.2647 35.8573 26.8722 35.8729C24.558 35.9788 23.8624 36.0004 17.9993 36.0004C12.1362 36.0004 11.4427 35.9799 9.12847 35.8729" fill="url(#paint0_radial_665_3038)"/>
    <path d="M9.12882 35.8726C7.73637 35.857 6.35701 35.6017 5.05129 35.1176C4.0978 34.7652 3.23513 34.2041 2.52635 33.4754C1.79568 32.768 1.23377 31.9052 0.882353 30.9508C0.398736 29.6452 0.143711 28.2659 0.128471 26.8736C0.0215294 24.5591 0 23.8648 0 18C0 12.1352 0.0236471 11.4434 0.127412 9.12706C0.144502 7.73533 0.399841 6.35681 0.882353 5.05129C1.23548 4.09765 1.7966 3.23463 2.52494 2.52494C3.23284 1.79493 4.09592 1.23354 5.05023 0.882353C6.35595 0.398335 7.73531 0.142951 9.12776 0.127412C11.4431 0.0215294 12.1384 0 18 0C23.8616 0 24.5566 0.0236471 26.8729 0.127412C28.265 0.144381 29.6439 0.399722 30.9498 0.882353C31.9037 1.234 32.7665 1.7952 33.4747 2.52459C34.2043 3.23303 34.7657 4.09609 35.1176 5.05023C35.6018 6.35593 35.8573 7.73529 35.8729 9.12776C35.9788 11.4441 36.0004 12.1376 36.0004 18.0007C36.0004 23.8638 35.9788 24.5573 35.8729 26.8736C35.8561 28.2659 35.6007 29.6449 35.1176 30.9508C34.7523 31.8978 34.1927 32.7578 33.4748 33.4755C32.757 34.1931 31.8969 34.7525 30.9498 35.1176C29.6441 35.6018 28.2647 35.8573 26.8722 35.8729C24.558 35.9788 23.8624 36.0004 17.9993 36.0004C12.1362 36.0004 11.4427 35.9799 9.12847 35.8729" fill="url(#paint1_radial_665_3038)"/>
    <path d="M13.58 18.0764C13.5801 17.1947 13.8416 16.3328 14.3316 15.5997C14.8215 14.8666 15.5178 14.2953 16.3324 13.9579C17.1471 13.6206 18.0435 13.5324 18.9082 13.7045C19.773 13.8766 20.5673 14.3013 21.1907 14.9249C21.8141 15.5484 22.2386 16.3428 22.4105 17.2076C22.5824 18.0724 22.494 18.9688 22.1565 19.7833C21.8189 20.5979 21.2474 21.2941 20.5142 21.7838C19.781 22.2736 18.9191 22.5349 18.0373 22.5348C16.8551 22.5346 15.7213 22.0648 14.8854 21.2287C14.0495 20.3926 13.5799 19.2587 13.58 18.0764ZM11.1698 18.0764C11.1698 19.4347 11.5726 20.7625 12.3272 21.8918C13.0818 23.0212 14.1544 23.9014 15.4092 24.4212C16.6641 24.941 18.0449 25.077 19.3771 24.812C20.7093 24.547 21.933 23.8929 22.8934 22.9325C23.8538 21.9721 24.5079 20.7484 24.7729 19.4162C25.0379 18.084 24.9019 16.7032 24.3821 15.4483C23.8623 14.1934 22.9821 13.1209 21.8527 12.3663C20.7234 11.6117 19.3956 11.2089 18.0373 11.2089C17.1355 11.2088 16.2424 11.3864 15.4092 11.7316C14.576 12.0767 13.8189 12.5825 13.1811 13.2202C12.5434 13.858 12.0376 14.615 11.6925 15.4483C11.3474 16.2815 11.1698 17.1745 11.1698 18.0764ZM23.5718 10.9368C23.5717 11.2542 23.6656 11.5645 23.8419 11.8285C24.0181 12.0925 24.2686 12.2983 24.5618 12.4199C24.855 12.5415 25.1777 12.5734 25.489 12.5116C25.8003 12.4498 26.0864 12.2971 26.3109 12.0728C26.5354 11.8484 26.6884 11.5625 26.7505 11.2513C26.8125 10.94 26.7809 10.6173 26.6596 10.324C26.5382 10.0307 26.3326 9.77997 26.0688 9.60351C25.805 9.42706 25.4947 9.3328 25.1773 9.33266C24.7519 9.33284 24.3439 9.50189 24.043 9.80266C23.7421 10.1034 23.5729 10.5113 23.5725 10.9368M12.6349 28.9629C11.7868 28.9536 10.9466 28.7984 10.1512 28.5041C9.57435 28.2817 9.05045 27.9411 8.61321 27.504C8.17597 27.0669 7.83509 26.5432 7.6125 25.9664C7.31807 25.171 7.16286 24.3309 7.15368 23.4828C7.08874 22.0731 7.07604 21.6496 7.07604 18.0782C7.07604 14.5068 7.09015 14.0843 7.15368 12.6732C7.16397 11.8253 7.31914 10.9853 7.6125 10.1896C7.83483 9.61256 8.17561 9.08852 8.61287 8.65126C9.05013 8.21399 9.57417 7.87321 10.1512 7.65089C10.9466 7.35646 11.7868 7.20125 12.6349 7.19207C14.0445 7.12713 14.468 7.11442 18.038 7.11442C21.608 7.11442 22.0319 7.12819 23.443 7.19242C24.291 7.20271 25.1309 7.35788 25.9266 7.65124C26.5036 7.87359 27.0277 8.21437 27.4649 8.65163C27.9022 9.08889 28.243 9.61292 28.4653 10.1899C28.7597 10.9853 28.9149 11.8255 28.9241 12.6736C28.9891 14.0854 29.0018 14.5068 29.0018 18.0785C29.0018 21.6503 28.9887 22.0724 28.9241 23.4835C28.9143 24.3315 28.7591 25.1715 28.4653 25.9671C28.2427 26.5439 27.9019 27.0677 27.4646 27.5047C27.0274 27.9418 26.5035 28.2824 25.9266 28.5048C25.1312 28.7992 24.2911 28.9544 23.443 28.9636C22.0333 29.0285 21.6098 29.0412 18.038 29.0412C14.4663 29.0412 14.0442 29.0282 12.6349 28.9636M12.524 4.78395C11.4143 4.80577 10.3164 5.0158 9.27697 5.40512C8.38845 5.74866 7.58151 6.27409 6.9079 6.9477C6.23429 7.62131 5.70887 8.42824 5.36532 9.31677C4.97606 10.3562 4.76603 11.4541 4.74415 12.5638C4.67815 13.9897 4.66333 14.4457 4.66333 18.0778C4.66333 21.7099 4.67851 22.1656 4.74415 23.5918C4.76602 24.7015 4.97605 25.7995 5.36532 26.8389C5.70889 27.7274 6.23431 28.5343 6.90792 29.2079C7.58153 29.8815 8.38846 30.407 9.27697 30.7505C10.3164 31.1397 11.4144 31.3497 12.524 31.3717C13.9506 31.4367 14.4059 31.4525 18.038 31.4525C21.6702 31.4525 22.1258 31.4374 23.552 31.3717C24.6617 31.3498 25.7597 31.1398 26.7991 30.7505C27.6876 30.407 28.4945 29.8815 29.1681 29.2079C29.8417 28.5343 30.3672 27.7274 30.7107 26.8389C31.1005 25.7996 31.3106 24.7016 31.3319 23.5918C31.3969 22.1649 31.4117 21.7099 31.4117 18.0778C31.4117 14.4457 31.3965 13.9901 31.3319 12.5638C31.3101 11.4541 31.1001 10.3562 30.7107 9.31677C30.3672 8.42841 29.8419 7.6216 29.1685 6.94801C28.4951 6.27442 27.6884 5.7489 26.8002 5.40512C25.7608 5.01555 24.6628 4.80551 23.5531 4.78395C22.1269 4.71866 21.6712 4.70312 18.0398 4.70312C14.4084 4.70312 13.9517 4.7183 12.5247 4.78395" fill="white"/>
    </g>
    <defs>
    <radialGradient id="paint0_radial_665_3038" cx="0" cy="0" r="1" gradientUnits="userSpaceOnUse" gradientTransform="translate(2.32976 35.2115) scale(45.7066)">
    <stop offset="0.09" stop-color="#FA8F21"/>
    <stop offset="0.78" stop-color="#D82D7E"/>
    </radialGradient>
    <radialGradient id="paint1_radial_665_3038" cx="0" cy="0" r="1" gradientUnits="userSpaceOnUse" gradientTransform="translate(24.936 34.0553) scale(40.2222)">
    <stop offset="0.64" stop-color="#8C3AAA" stop-opacity="0"/>
    <stop offset="1" stop-color="#8C3AAA"/>
    </radialGradient>
    <clipPath id="clip0_665_3038">
    <rect width="36" height="36" fill="white"/>
    </clipPath>
    </defs>
    </svg>
    