<svg width="36" height="36" viewBox="0 0 36 36" fill="none" xmlns="http://www.w3.org/2000/svg">
	<g clip-path="url(#clip0_665_3057)">
	<path d="M27.9196 0H8.08036C3.6177 0 0 3.6177 0 8.08036V27.9196C0 32.3823 3.6177 36 8.08036 36H27.9196C32.3823 36 36 32.3823 36 27.9196V8.08036C36 3.6177 32.3823 0 27.9196 0Z" fill="#3692FB"/>
	<g clip-path="url(#clip1_665_3057)">
	<path d="M8.13647 18.7762V17.2279C8.1971 17.2279 8.16912 17.1533 8.17378 17.1113C8.22285 16.6102 8.307 16.1131 8.42561 15.6237C8.90386 13.7099 9.94368 11.9829 11.4113 10.6648C12.879 9.34672 14.7074 8.49783 16.6614 8.22728C16.8529 8.22554 17.043 8.19569 17.2257 8.13867H18.6714C18.6714 8.17598 18.7134 8.16665 18.7414 8.17132C19.155 8.19756 19.5664 8.2521 19.9726 8.33454C21.9709 8.74591 23.7931 9.76545 25.1891 11.2533C26.5851 12.7412 27.4866 14.6245 27.77 16.645C27.7775 16.8531 27.8088 17.0596 27.8633 17.2606V18.7762C27.8353 18.7762 27.8307 18.8042 27.8307 18.8275C27.8307 19.0421 27.7887 19.2612 27.756 19.4758C27.4219 21.7364 26.3045 23.8078 24.5988 25.3285C23.1432 26.6609 21.3134 27.514 19.357 27.7722C19.1384 27.7824 18.9213 27.8136 18.7087 27.8655H17.2257C17.2257 27.8142 17.1604 27.8328 17.1278 27.8282C16.4579 27.7677 15.7955 27.6412 15.1505 27.4504C13.3448 26.9031 11.7336 25.8504 10.5072 24.4166C9.28083 22.9828 8.49054 21.2278 8.22975 19.3592C8.22685 19.1614 8.19544 18.9651 8.13647 18.7762ZM10.9346 18.4405H9.14847C9.04587 18.4405 9.01789 18.4638 9.02255 18.571C9.02255 18.8788 9.07851 19.182 9.12981 19.5037C9.41696 21.2088 10.1911 22.7944 11.359 24.0694C11.4243 24.144 11.4616 24.158 11.5409 24.0694C12.096 23.5807 12.7083 23.161 13.3643 22.8195C13.3823 22.814 13.399 22.8047 13.413 22.7921C13.4271 22.7796 13.4383 22.7641 13.4458 22.7468C13.4534 22.7296 13.4571 22.7109 13.4567 22.692C13.4563 22.6732 13.4518 22.6546 13.4436 22.6377C13.0777 21.3135 12.8772 19.9491 12.8467 18.5757C12.8467 18.4591 12.8 18.4405 12.6974 18.4405C12.1238 18.4451 11.5362 18.4405 10.9486 18.4405H10.9346ZM25.0418 18.4405H23.293C23.1718 18.4405 23.1345 18.4638 23.1298 18.5897C23.0966 19.9519 22.8977 21.3049 22.5375 22.619C22.5278 22.6383 22.5225 22.6596 22.522 22.6812C22.5216 22.7028 22.526 22.7243 22.535 22.744C22.5439 22.7636 22.5572 22.7811 22.5738 22.795C22.5903 22.8088 22.6098 22.8188 22.6308 22.8242C23.2695 23.1613 23.8659 23.573 24.4076 24.0507C24.5009 24.1347 24.5475 24.1393 24.6315 24.0507C25.9979 22.5574 26.8197 20.6461 26.9632 18.627C26.9632 18.4638 26.9259 18.4498 26.786 18.4498C26.2077 18.4451 25.6341 18.4405 25.0558 18.4405H25.0418ZM10.9486 17.5637H12.6788C12.814 17.5637 12.856 17.5404 12.8607 17.3958C12.8746 16.7968 12.9213 16.199 13.0006 15.605C13.1042 14.8551 13.26 14.1134 13.4669 13.3852C13.4669 13.3152 13.4949 13.2639 13.411 13.2219C12.7403 12.8665 12.1141 12.4329 11.5455 11.9301C11.4896 11.8788 11.4616 11.8835 11.415 11.9301C11.3683 11.9768 11.2284 12.1353 11.1398 12.2473C9.90485 13.7027 9.16785 15.5149 9.03654 17.4191C9.03654 17.5404 9.06452 17.5637 9.18111 17.5637C9.76872 17.559 10.3517 17.5637 10.9486 17.5637ZM25.0558 17.5637H26.8233C26.9399 17.5637 26.9679 17.5357 26.9632 17.4145C26.9383 17.0465 26.89 16.6804 26.8187 16.3185C26.5129 14.6967 25.7621 13.1918 24.6501 11.9721C24.5708 11.8835 24.5335 11.8882 24.4449 11.9721C23.8934 12.4576 23.286 12.8756 22.6355 13.2173C22.6165 13.2238 22.5992 13.2343 22.5846 13.248C22.5701 13.2618 22.5587 13.2786 22.5511 13.2971C22.5436 13.3157 22.5402 13.3357 22.5411 13.3557C22.5419 13.3757 22.5471 13.3953 22.5562 13.4131C22.9106 14.7171 23.1063 16.059 23.1391 17.4098C23.1391 17.5311 23.1718 17.5777 23.307 17.573C23.876 17.559 24.4729 17.5637 25.0558 17.5637ZM20.3596 18.4405H18.5968C18.4662 18.4405 18.4383 18.4731 18.4383 18.599V21.5231C18.4383 21.6536 18.4756 21.6816 18.5922 21.6863C19.6235 21.747 20.6387 21.9705 21.6001 22.3485C21.7074 22.3905 21.7167 22.3485 21.7401 22.2646C22.0548 21.0447 22.23 19.7931 22.2624 18.5337C22.2624 18.4078 22.2017 18.4265 22.1271 18.4265L20.3596 18.4405ZM15.6588 18.4405H13.8913C13.77 18.4405 13.7281 18.4405 13.7374 18.5944C13.77 18.8975 13.77 19.2006 13.7934 19.4991C13.8654 20.4438 14.0215 21.3802 14.2597 22.2972C14.2597 22.3812 14.3017 22.4045 14.395 22.3672C15.3598 21.9843 16.3804 21.7606 17.4169 21.7049C17.5382 21.7049 17.5568 21.6583 17.5568 21.5464V18.6177C17.5568 18.4778 17.5102 18.4591 17.389 18.4591C16.8153 18.4451 16.2371 18.4405 15.6588 18.4405ZM15.6308 17.5637H17.3983C17.5195 17.5637 17.5615 17.5404 17.5568 17.4098V14.4998C17.5568 14.3692 17.5149 14.3412 17.3983 14.3365C16.4021 14.2843 15.4202 14.0766 14.4882 13.7209C14.283 13.6463 14.283 13.6463 14.2317 13.8469C13.9371 15.0223 13.7713 16.2264 13.7374 17.4378C13.7374 17.5451 13.7654 17.5637 13.868 17.5637C14.4556 17.559 15.0432 17.5637 15.6308 17.5637ZM20.341 17.5637H22.1225C22.2344 17.5637 22.2577 17.5311 22.2577 17.4238C22.2577 16.8968 22.2017 16.3698 22.1365 15.8475C22.053 15.1412 21.9206 14.4415 21.7401 13.7536C21.7167 13.679 21.7074 13.6417 21.6095 13.679C20.6392 14.0607 19.6144 14.2858 18.5735 14.3459C18.4616 14.3459 18.4383 14.3925 18.4383 14.4951V17.4191C18.4383 17.5497 18.4849 17.5637 18.5922 17.559C19.1751 17.559 19.758 17.5637 20.341 17.5637ZM17.5429 11.3146V9.34653C17.5429 9.15533 17.5429 9.15066 17.3517 9.21595C16.8475 9.39139 16.3998 9.69902 16.0552 10.1067C15.4057 10.8641 14.9085 11.7398 14.5908 12.6856C14.5535 12.7836 14.5908 12.8022 14.6654 12.8302C15.5354 13.1716 16.4521 13.3792 17.3843 13.4458C17.5195 13.4458 17.5662 13.4458 17.5615 13.2826C17.5522 12.6343 17.5568 11.9768 17.5568 11.3146H17.5429ZM18.4289 11.3146V13.2826C18.4289 13.4458 18.4802 13.4831 18.6248 13.4598C18.7694 13.4365 18.858 13.4365 18.9746 13.4225C19.7745 13.3341 20.5589 13.138 21.3063 12.8395C21.3763 12.8162 21.4136 12.7929 21.3763 12.6996C21.0873 11.8334 20.6554 11.0216 20.0985 10.2979C19.7214 9.79706 19.2058 9.41768 18.6155 9.20663C18.4849 9.16465 18.4336 9.16932 18.4383 9.33254C18.4476 9.99477 18.4429 10.6523 18.4429 11.3146H18.4289ZM17.5429 26.8302V22.6656C17.5429 22.577 17.5055 22.5677 17.4309 22.5724C16.4706 22.6249 15.5254 22.8344 14.6328 23.1926C14.5675 23.1926 14.5395 23.2393 14.5675 23.3232C14.8487 24.1213 15.248 24.8727 15.7521 25.5524C16.0914 26.0276 16.5411 26.4133 17.0625 26.6763C17.2169 26.7564 17.3843 26.8086 17.5568 26.8302H17.5429ZM18.4289 26.8302C18.4473 26.8346 18.4665 26.8346 18.4849 26.8302L18.6015 26.8022C19.1126 26.6255 19.5668 26.3146 19.9166 25.9021C20.5675 25.1458 21.0677 24.2721 21.3903 23.3279C21.4276 23.2253 21.3903 23.2159 21.311 23.1926C20.4401 22.849 19.5215 22.6414 18.5875 22.577C18.4429 22.577 18.4243 22.6143 18.4243 22.7403V26.154L18.4289 26.8302ZM15.5049 9.42115C14.2663 9.76552 13.1195 10.3803 12.1471 11.2213C12.0818 11.2772 12.1098 11.3006 12.1471 11.3425C12.6429 11.7574 13.1824 12.1171 13.7561 12.4151C13.9584 11.8668 14.1999 11.3338 14.4789 10.8202C14.7699 10.3185 15.1138 9.84945 15.5049 9.42115ZM20.4529 9.42115C20.5742 9.55639 20.6861 9.67298 20.7887 9.7989C21.3923 10.5578 21.8651 11.4121 22.1878 12.3265C22.2297 12.4385 22.2577 12.4571 22.365 12.3918C22.8761 12.1019 23.36 11.7663 23.8107 11.3892C23.9039 11.3099 23.8946 11.2772 23.8107 11.2073C23.011 10.5274 22.0988 9.99238 21.1151 9.62634C20.9022 9.52449 20.6805 9.44178 20.4529 9.37918V9.42115ZM20.4762 26.6763C21.7442 26.3227 22.9149 25.6847 23.8993 24.8109C23.4352 24.407 22.934 24.0478 22.4023 23.7383C22.267 23.659 22.2204 23.6823 22.1644 23.8269C21.7876 24.857 21.2143 25.8042 20.4762 26.6157V26.6763ZM15.5095 26.6763C15.3743 26.5131 15.2297 26.3545 15.1038 26.1866C14.5569 25.4694 14.1243 24.6718 13.8213 23.8222C13.784 23.7243 13.7561 23.6823 13.6395 23.7522C13.1398 24.0206 12.664 24.3311 12.2171 24.6803C12.1331 24.7502 12.1331 24.7829 12.2171 24.8528C12.5825 25.1565 12.969 25.4339 13.3736 25.683C14.0355 26.0946 14.7555 26.4043 15.5095 26.6017V26.6763Z" fill="white" stroke="white" stroke-width="0.5"/>
	</g>
	</g>
	<defs>
	<clipPath id="clip0_665_3057">
	<rect width="36" height="36" fill="white"/>
	</clipPath>
	<clipPath id="clip1_665_3057">
	<rect width="19.96" height="19.96" fill="white" transform="translate(8.01978 8.02197)"/>
	</clipPath>
	</defs>
	</svg>
	