<svg width="36" height="36" viewBox="0 0 36 36" fill="none" xmlns="http://www.w3.org/2000/svg">
    <g clip-path="url(#clip0_665_3052)">
    <path d="M30.6 0H5.4C2.41766 0 0 2.41766 0 5.4V30.6C0 33.5823 2.41766 36 5.4 36H30.6C33.5823 36 36 33.5823 36 30.6V5.4C36 2.41766 33.5823 0 30.6 0Z" fill="#37AEE2"/>
    <path d="M13.9922 28.4062C13.2188 28.4062 13.2891 28.125 13.0781 27.4219L10.8281 20.0391L28.0547 9.91406" fill="#C8DAEA"/>
    <path d="M13.9922 28.4062C14.4844 28.4062 14.7656 28.125 15.1172 27.8438L18.2812 24.8203L14.3438 22.4297" fill="#A9C9DD"/>
    <path d="M14.3438 22.4296L23.836 29.3906C24.8204 30.0234 25.6642 29.6718 25.9454 28.4062L29.8126 10.2656C30.1642 8.71869 29.1798 8.01557 28.1251 8.50775L5.55478 17.2265C4.07822 17.789 4.07822 18.7031 5.27353 19.0546L11.1095 20.8828L24.4688 12.3749C25.1017 12.0234 25.6642 12.164 25.2423 12.6562" fill="#F6FBFE"/>
    </g>
    <defs>
    <clipPath id="clip0_665_3052">
    <rect width="36" height="36" fill="white"/>
    </clipPath>
    </defs>
    </svg>
    