<svg width="36" height="36" viewBox="0 0 36 36" fill="none" xmlns="http://www.w3.org/2000/svg">
    <path d="M27.9196 0H8.08036C3.6177 0 0 3.6177 0 8.08036V27.9196C0 32.3823 3.6177 36 8.08036 36H27.9196C32.3823 36 36 32.3823 36 27.9196V8.08036C36 3.6177 32.3823 0 27.9196 0Z" fill="#3692FB"/>
    <g clip-path="url(#clip0_450_9150)">
    <path d="M8.13574 18.7761V17.2278C8.19637 17.2278 8.16839 17.1532 8.17305 17.1112C8.22212 16.6101 8.30627 16.1129 8.42488 15.6235C8.90313 13.7097 9.94295 11.9828 11.4106 10.6647C12.8783 9.3466 14.7067 8.4977 16.6607 8.22716C16.8521 8.22542 17.0423 8.19557 17.225 8.13855H18.6707C18.6707 8.17586 18.7127 8.16653 18.7407 8.17119C19.1543 8.19744 19.5656 8.25198 19.9718 8.33442C21.9702 8.74579 23.7923 9.76533 25.1884 11.2532C26.5844 12.7411 27.4859 14.6244 27.7693 16.6449C27.7768 16.853 27.8081 17.0595 27.8626 17.2605V18.7761C27.8346 18.7761 27.8299 18.8041 27.8299 18.8274C27.8299 19.0419 27.7879 19.2611 27.7553 19.4756C27.4212 21.7362 26.3037 23.8077 24.5981 25.3284C23.1424 26.6608 21.3126 27.5138 19.3562 27.7721C19.1377 27.7822 18.9206 27.8135 18.708 27.8654H17.225C17.225 27.8141 17.1597 27.8327 17.1271 27.8281C16.4571 27.7676 15.7948 27.6411 15.1497 27.4503C13.3441 26.903 11.7329 25.8503 10.5065 24.4164C9.28009 22.9826 8.48981 21.2277 8.22901 19.3591C8.22612 19.1613 8.19471 18.9649 8.13574 18.7761ZM10.9339 18.4403H9.14773C9.04513 18.4403 9.01715 18.4637 9.02182 18.5709C9.02182 18.8787 9.07778 19.1818 9.12908 19.5036C9.41623 21.2086 10.1904 22.7942 11.3583 24.0692C11.4235 24.1439 11.4609 24.1578 11.5401 24.0692C12.0953 23.5805 12.7075 23.1609 13.3636 22.8194C13.3816 22.8139 13.3982 22.8045 13.4123 22.792C13.4264 22.7794 13.4376 22.764 13.4451 22.7467C13.4526 22.7294 13.4563 22.7107 13.4559 22.6919C13.4556 22.673 13.4511 22.6545 13.4429 22.6375C13.077 21.3134 12.8765 19.949 12.8459 18.5756C12.8459 18.459 12.7993 18.4403 12.6967 18.4403C12.1231 18.445 11.5355 18.4403 10.9479 18.4403H10.9339ZM25.0411 18.4403H23.2923C23.171 18.4403 23.1337 18.4637 23.1291 18.5896C23.0959 19.9517 22.897 21.3048 22.5368 22.6189C22.527 22.6382 22.5218 22.6594 22.5213 22.6811C22.5209 22.7027 22.5253 22.7241 22.5342 22.7438C22.5432 22.7635 22.5565 22.781 22.573 22.7948C22.5896 22.8087 22.6091 22.8187 22.6301 22.8241C23.2688 23.1612 23.8652 23.5729 24.4069 24.0506C24.5001 24.1345 24.5468 24.1392 24.6307 24.0506C25.9972 22.5573 26.8189 20.646 26.9625 18.6269C26.9625 18.4637 26.9252 18.4497 26.7853 18.4497C26.207 18.445 25.6334 18.4403 25.0551 18.4403H25.0411ZM10.9479 17.5636H12.678C12.8133 17.5636 12.8553 17.5403 12.8599 17.3957C12.8739 16.7967 12.9206 16.1988 12.9998 15.6049C13.1034 14.855 13.2593 14.1132 13.4662 13.385C13.4662 13.3151 13.4942 13.2638 13.4102 13.2218C12.7396 12.8664 12.1134 12.4328 11.5448 11.93C11.4888 11.8787 11.4609 11.8834 11.4142 11.93C11.3676 11.9767 11.2277 12.1352 11.1391 12.2471C9.90412 13.7025 9.16712 15.5148 9.03581 17.419C9.03581 17.5403 9.06379 17.5636 9.18038 17.5636C9.76799 17.5589 10.3509 17.5636 10.9479 17.5636ZM25.0551 17.5636H26.8226C26.9392 17.5636 26.9672 17.5356 26.9625 17.4144C26.9376 17.0463 26.8893 16.6803 26.8179 16.3184C26.5122 14.6965 25.7613 13.1916 24.6494 11.972C24.5701 11.8834 24.5328 11.888 24.4442 11.972C23.8927 12.4575 23.2852 12.8755 22.6347 13.2172C22.6158 13.2237 22.5984 13.2341 22.5839 13.2479C22.5693 13.2617 22.5579 13.2784 22.5504 13.297C22.5429 13.3156 22.5395 13.3355 22.5403 13.3556C22.5412 13.3756 22.5463 13.3952 22.5554 13.413C22.9099 14.7169 23.1056 16.0589 23.1384 17.4097C23.1384 17.5309 23.171 17.5776 23.3063 17.5729C23.8752 17.5589 24.4722 17.5636 25.0551 17.5636ZM20.3589 18.4403H18.5961C18.4655 18.4403 18.4375 18.473 18.4375 18.5989V21.5229C18.4375 21.6535 18.4748 21.6815 18.5914 21.6862C19.6227 21.7469 20.638 21.9704 21.5994 22.3484C21.7067 22.3904 21.716 22.3484 21.7393 22.2644C22.054 21.0446 22.2292 19.793 22.2616 18.5336C22.2616 18.4077 22.201 18.4263 22.1264 18.4263L20.3589 18.4403ZM15.6581 18.4403H13.8906C13.7693 18.4403 13.7273 18.4403 13.7367 18.5942C13.7693 18.8974 13.7693 19.2005 13.7926 19.499C13.8647 20.4437 14.0208 21.3801 14.259 22.2971C14.259 22.381 14.301 22.4044 14.3942 22.367C15.3591 21.9842 16.3797 21.7605 17.4162 21.7048C17.5375 21.7048 17.5561 21.6582 17.5561 21.5463V18.6175C17.5561 18.4776 17.5095 18.459 17.3882 18.459C16.8146 18.445 16.2363 18.4403 15.6581 18.4403ZM15.6301 17.5636H17.3976C17.5188 17.5636 17.5608 17.5403 17.5561 17.4097V14.4996C17.5561 14.3691 17.5141 14.3411 17.3976 14.3364C16.4014 14.2841 15.4195 14.0764 14.4875 13.7208C14.2823 13.6462 14.2823 13.6462 14.231 13.8467C13.9364 15.0222 13.7706 16.2263 13.7367 17.4377C13.7367 17.5449 13.7646 17.5636 13.8672 17.5636C14.4549 17.5589 15.0425 17.5636 15.6301 17.5636ZM20.3403 17.5636H22.1217C22.2337 17.5636 22.257 17.5309 22.257 17.4237C22.257 16.8967 22.201 16.3697 22.1357 15.8474C22.0523 15.1411 21.9198 14.4414 21.7393 13.7535C21.716 13.6788 21.7067 13.6415 21.6087 13.6788C20.6385 14.0606 19.6137 14.2857 18.5728 14.3457C18.4608 14.3457 18.4375 14.3924 18.4375 14.495V17.419C18.4375 17.5496 18.4842 17.5636 18.5914 17.5589C19.1744 17.5589 19.7573 17.5636 20.3403 17.5636ZM17.5421 11.3144V9.34641C17.5421 9.1552 17.5421 9.15054 17.3509 9.21583C16.8468 9.39127 16.399 9.6989 16.0545 10.1066C15.405 10.864 14.9078 11.7397 14.5901 12.6855C14.5528 12.7834 14.5901 12.8021 14.6647 12.8301C15.5347 13.1715 16.4514 13.379 17.3836 13.4457C17.5188 13.4457 17.5654 13.4457 17.5608 13.2824C17.5515 12.6342 17.5561 11.9767 17.5561 11.3144H17.5421ZM18.4282 11.3144V13.2824C18.4282 13.4457 18.4795 13.483 18.6241 13.4597C18.7686 13.4363 18.8572 13.4363 18.9738 13.4224C19.7738 13.3339 20.5582 13.1379 21.3056 12.8394C21.3756 12.8161 21.4129 12.7928 21.3756 12.6995C21.0866 11.8332 20.6547 11.0215 20.0978 10.2978C19.7206 9.79694 19.2051 9.41756 18.6147 9.2065C18.4842 9.16453 18.4329 9.16919 18.4375 9.33242C18.4469 9.99464 18.4422 10.6522 18.4422 11.3144H18.4282ZM17.5421 26.8301V22.6655C17.5421 22.5769 17.5048 22.5676 17.4302 22.5722C16.4699 22.6248 15.5246 22.8343 14.6321 23.1925C14.5668 23.1925 14.5388 23.2391 14.5668 23.3231C14.848 24.1212 15.2473 24.8726 15.7513 25.5523C16.0907 26.0275 16.5404 26.4132 17.0618 26.6762C17.2161 26.7563 17.3835 26.8084 17.5561 26.8301H17.5421ZM18.4282 26.8301C18.4466 26.8344 18.4658 26.8344 18.4842 26.8301L18.6008 26.8021C19.1119 26.6253 19.5661 26.3145 19.9159 25.902C20.5667 25.1457 21.0669 24.2719 21.3896 23.3277C21.4269 23.2251 21.3896 23.2158 21.3103 23.1925C20.4394 22.8489 19.5208 22.6413 18.5868 22.5769C18.4422 22.5769 18.4235 22.6142 18.4235 22.7401V26.1538L18.4282 26.8301ZM15.5042 9.42103C14.2656 9.7654 13.1188 10.3802 12.1464 11.2212C12.0811 11.2771 12.1091 11.3004 12.1464 11.3424C12.6422 11.7573 13.1817 12.117 13.7553 12.415C13.9576 11.8667 14.1992 11.3337 14.4782 10.8201C14.7691 10.3184 15.1131 9.84933 15.5042 9.42103ZM20.4522 9.42103C20.5734 9.55627 20.6854 9.67286 20.788 9.79877C21.3915 10.5577 21.8644 11.412 22.187 12.3264C22.229 12.4383 22.257 12.457 22.3642 12.3917C22.8754 12.1018 23.3593 11.7662 23.8099 11.389C23.9032 11.3098 23.8939 11.2771 23.8099 11.2072C23.0103 10.5273 22.0981 9.99226 21.1144 9.62622C20.9014 9.52437 20.6798 9.44165 20.4522 9.37905V9.42103ZM20.4755 26.6762C21.7435 26.3226 22.9141 25.6846 23.8985 24.8107C23.4344 24.4068 22.9332 24.0477 22.4015 23.7381C22.2663 23.6588 22.2197 23.6822 22.1637 23.8267C21.7869 24.8569 21.2135 25.804 20.4755 26.6155V26.6762ZM15.5088 26.6762C15.3736 26.5129 15.229 26.3544 15.1031 26.1865C14.5561 25.4693 14.1235 24.6717 13.8206 23.8221C13.7833 23.7241 13.7553 23.6822 13.6387 23.7521C13.1391 24.0205 12.6633 24.331 12.2163 24.6802C12.1324 24.7501 12.1324 24.7828 12.2163 24.8527C12.5818 25.1564 12.9683 25.4338 13.3729 25.6828C14.0348 26.0945 14.7548 26.4042 15.5088 26.6015V26.6762Z" fill="white" stroke="white" stroke-width="0.5"/>
    </g>
    <defs>
    <clipPath id="clip0_450_9150">
    <rect width="19.96" height="19.96" fill="white" transform="translate(8.01953 8.02197)"/>
    </clipPath>
    </defs>
    </svg>
    