<svg width="36" height="36" viewBox="0 0 36 36" fill="none" xmlns="http://www.w3.org/2000/svg">
    <path d="M10.224 1.7998H9.36C8.64 1.8358 7.704 1.8718 7.308 1.9798C6.66 2.1238 6.048 2.3038 5.544 2.5558C4.968 2.8438 4.428 3.2398 3.96 3.7078C3.492 4.1758 3.132 4.6798 2.808 5.2918C2.556 5.7958 2.34 6.4078 2.232 7.0198C2.16 7.45181 2.088 8.3878 2.052 9.1078V26.6398C2.088 27.3598 2.124 28.2958 2.232 28.6918C2.376 29.3398 2.556 29.9518 2.808 30.4558C3.096 31.0318 3.492 31.5718 3.96 32.0398C4.428 32.5078 4.932 32.8678 5.544 33.1918C6.048 33.4438 6.66 33.6598 7.272 33.7678C7.704 33.8398 8.64 33.9118 9.36 33.9478H26.892C27.612 33.9118 28.548 33.8758 28.944 33.7678C29.592 33.6238 30.204 33.4438 30.708 33.1918C31.284 32.9038 31.824 32.5078 32.292 32.0398C32.76 31.5718 33.12 31.0678 33.444 30.4558C33.696 29.9518 33.912 29.3398 34.02 28.7278C34.092 28.2958 34.164 27.3598 34.2 26.6398V9.1078C34.164 8.3878 34.128 7.45181 34.02 7.05581C33.876 6.4078 33.696 5.7958 33.444 5.2918C33.156 4.7158 32.76 4.1758 32.292 3.7078C31.824 3.2398 31.32 2.8798 30.708 2.5558C30.204 2.3038 29.592 2.0878 28.98 1.9798C28.548 1.9078 27.612 1.8358 26.892 1.7998H10.224Z" fill="url(#paint0_linear_665_3047)"/>
    <path d="M23.9761 19.584C23.6881 19.44 22.2481 18.756 21.9961 18.648C21.7441 18.54 21.5281 18.504 21.3481 18.792C21.1681 19.08 20.5921 19.728 20.4481 19.908C20.2681 20.088 20.1241 20.124 19.8361 19.98C19.5481 19.836 18.6121 19.548 17.4961 18.576C16.6321 17.82 16.0561 16.884 15.8761 16.596C15.6961 16.308 15.8761 16.164 16.0201 16.02C16.1641 15.876 16.3081 15.696 16.4521 15.516C16.5961 15.336 16.6321 15.228 16.7401 15.048C16.8481 14.868 16.7761 14.688 16.7041 14.544C16.6321 14.4 16.0561 12.996 15.8041 12.42C15.5521 11.88 15.3361 11.952 15.1561 11.916H14.6161C14.4361 11.916 14.1121 11.988 13.8601 12.276C13.6081 12.564 12.8521 13.248 12.8521 14.652C12.8521 16.056 13.8961 17.388 14.0401 17.604C14.1841 17.784 16.0921 20.664 18.9721 21.888C19.6561 22.176 20.1961 22.356 20.6281 22.5C21.3121 22.716 21.9601 22.68 22.4641 22.608C23.0041 22.536 24.1921 21.924 24.4081 21.276C24.6601 20.628 24.6601 20.052 24.5881 19.944C24.4441 19.8 24.2641 19.728 23.9761 19.584ZM18.4681 27C16.7401 27 15.0841 26.532 13.6081 25.668L13.2481 25.452L9.64811 26.388L10.6201 22.896L10.4041 22.536C9.46811 21.024 8.96411 19.296 8.96411 17.496C8.96411 12.276 13.2481 8.02798 18.5041 8.02798C20.9881 8.02798 23.4001 8.99998 25.2001 10.8C27.0001 12.6 27.9721 14.976 27.9721 17.496C27.9721 22.716 23.6881 27 18.4681 27ZM26.5681 9.43198C24.4081 7.27198 21.5281 6.08398 18.4681 6.08398C12.1681 6.08398 7.02011 11.196 7.02011 17.496C7.02011 19.512 7.56011 21.456 8.53211 23.184L6.91211 29.088L12.9601 27.504C14.6161 28.404 16.5241 28.908 18.4321 28.908C24.7321 28.908 29.8801 23.796 29.8801 17.496C29.9161 14.472 28.7281 11.592 26.5681 9.43198Z" fill="white"/>
    <defs>
    <linearGradient id="paint0_linear_665_3047" x1="18.1368" y1="1.807" x2="18.1368" y2="33.9262" gradientUnits="userSpaceOnUse">
    <stop stop-color="#62FA7F"/>
    <stop offset="0.686" stop-color="#22CC40"/>
    <stop offset="1" stop-color="#05B723"/>
    </linearGradient>
    </defs>
    </svg>
    