<svg width="36" height="36" viewBox="0 0 36 36" fill="none" xmlns="http://www.w3.org/2000/svg">
	<g clip-path="url(#clip0_665_3031)">
		<path d="M15.1067 19.2012L6.37549 6.49701H13.9382L20.4259 13.0221L26.0348 6.49701H29.1758L35.9907 13.4521V6.51571C35.9907 2.93534 33.0553 0 29.4749 0H6.51571C2.93534 0 0 2.93534 0 6.51571V29.4843C0 33.0647 2.93534 36 6.51571 36H12.8632L6.24461 29.503L15.1067 19.2012Z" fill="url(#paint0_linear_665_3031)" />
		<path d="M36 29.4844V13.4429L29.1852 6.48779H26.0442L20.4352 13.0129L13.9476 6.48779H6.3755L15.1067 19.2014L6.24463 29.5031L12.8632 36.0001H29.4843C33.0647 36.0001 36 33.0648 36 29.4844Z" fill="#161616" />
		<path d="M29.7553 29.503H22.1926L16.5089 21.2299L9.39491 29.503H6.25391L15.116 19.2013L6.37543 6.49707H13.9381L19.3134 14.3122L26.0441 6.49707H29.1851L20.7156 16.3407L29.7647 29.503H29.7553ZM22.6787 28.5682H27.9792L19.5284 16.2753L27.1378 7.42254H26.4648L19.2292 15.8359L13.4427 7.42254H8.14225L16.2752 19.2574L8.27312 28.5589H8.94619L16.5743 19.6874L22.6694 28.5589L22.6787 28.5682ZM27.1565 28.1382H23.0901L8.95554 7.92735H13.022L27.1472 28.1382H27.1565ZM23.5762 27.2034H25.3617L12.5359 8.86217H10.7504L23.5668 27.2034H23.5762Z" fill="white" />
	</g>
	<defs>
		<linearGradient id="paint0_linear_665_3031" x1="0.616983" y1="3.4121" x2="35.3737" y2="32.5786" gradientUnits="userSpaceOnUse">
			<stop stop-color="#646464" />
			<stop offset="0.72" stop-color="#1D1D1D" />
			<stop offset="1" />
		</linearGradient>
		<clipPath id="clip0_665_3031">
			<rect width="36" height="36" fill="white" />
		</clipPath>
	</defs>
</svg>
