<svg width="25" height="25" viewBox="0 0 25 25" fill="none" xmlns="http://www.w3.org/2000/svg">
	<path d="M12.502 12.5495C12.502 12.5495 10.8589 15.0495 9.20195 15.0495C7.5451 15.0495 6.50195 13.9302 6.50195 12.5495C6.50195 11.1688 7.5451 10.0495 9.20195 10.0495C10.8589 10.0495 12.502 12.5495 12.502 12.5495ZM12.502 12.5495C12.502 12.5495 14.1451 15.0495 15.802 15.0495C17.4589 15.0495 18.502 13.9302 18.502 12.5495C18.502 11.1688 17.4589 10.0495 15.802 10.0495C14.1451 10.0495 12.502 12.5495 12.502 12.5495Z" stroke="#E4D78A" stroke-width="1.5" />
	<path d="M12.502 22.5495C18.0248 22.5495 22.502 18.0723 22.502 12.5495C22.502 7.02665 18.0248 2.5495 12.502 2.5495C6.97911 2.5495 2.50195 7.02665 2.50195 12.5495C2.50195 18.0723 6.97911 22.5495 12.502 22.5495Z" stroke="#E4D78A" stroke-width="1.5" />
</svg>
