<svg width="25" height="24" viewBox="0 0 25 24" fill="none" xmlns="http://www.w3.org/2000/svg">
    <path d="M14.502 2.99997H10.502C6.73071 2.99997 4.8451 2.99997 3.67352 4.17154C2.50195 5.34312 2.50195 7.22873 2.50195 11C2.50195 14.7712 2.50195 16.6569 3.67352 17.8284C4.8451 19 6.73071 19 10.502 19H14.502C18.2732 19 20.1589 19 21.3304 17.8284C22.502 16.6569 22.502 14.7712 22.502 11C22.502 7.22873 22.502 5.34312 21.3304 4.17154C20.1589 2.99997 18.2732 2.99997 14.502 2.99997Z" stroke="#DCCA81" stroke-width="1.5" stroke-linecap="round"/>
    <path d="M17.402 15.5C17.402 14.6163 18.1183 13.9 19.002 13.9M14.202 15.5C14.202 12.849 16.351 10.7 19.002 10.7M11.002 15.5C11.002 11.0817 14.5837 7.49997 19.002 7.49997" stroke="#DCCA81" stroke-width="1.5" stroke-linecap="round"/>
    <path d="M18.502 19L19.502 21" stroke="#DCCA81" stroke-width="1.5" stroke-linecap="round" stroke-linejoin="round"/>
    <path d="M6.50195 19L5.50195 21" stroke="#DCCA81" stroke-width="1.5" stroke-linecap="round" stroke-linejoin="round"/>
    </svg>
    