<svg width="81" height="76" viewBox="0 0 81 76" fill="none" xmlns="http://www.w3.org/2000/svg">
    <path d="M26.7305 7.68201C27.4614 7.37099 28.1811 7.02991 28.9253 6.75328C32.0544 5.59218 35.3006 4.96853 38.6247 4.78913C42.4294 4.58383 46.1665 5.04226 49.8168 6.1486C53.8427 7.36879 57.5093 9.28675 60.8139 11.8944C63.6777 14.1543 66.0999 16.8219 68.0934 19.8792C68.2278 20.0856 68.4395 20.2711 68.2612 20.5862C68.1885 20.7152 68.2598 20.9266 68.2662 21.1363C68.4555 21.0974 68.6119 21.0654 68.8229 21.0218C69.2869 21.8909 69.7558 22.767 70.2491 23.6913C69.7878 23.7562 69.4002 23.8307 69.0104 23.8515C68.9096 23.8572 68.7622 23.7182 68.6999 23.6089C68.0794 22.5189 67.5231 21.3881 66.8456 20.3361C66.2645 19.4342 65.5714 18.6004 64.8893 17.7681C61.6681 13.8365 57.7261 10.8463 53.0851 8.78833C49.4403 7.17282 45.6225 6.28829 41.6384 6.11608C39.4516 6.02148 37.2871 6.19606 35.1221 6.49802C33.6828 6.69876 32.2896 7.07431 30.9178 7.50859C29.5438 7.94394 28.1835 8.45527 26.8779 9.06463C25.5622 9.67926 24.2956 10.4135 23.053 11.1698C21.3814 12.1886 19.8782 13.436 18.4442 14.7701C17.4915 15.6561 16.6183 16.6144 15.8029 17.6223C15.5288 17.9618 15.2821 18.1345 14.8633 17.9488C14.7976 17.9195 14.7171 17.9223 14.6242 17.9076C14.4187 18.2366 14.6218 18.5483 14.6395 18.8598C14.6442 18.9486 14.656 19.0596 14.6112 19.1245C14.2064 19.723 13.7896 20.3131 13.3534 20.9399C13.0717 20.7103 12.8227 20.8672 12.7008 21.1065C12.6428 21.2195 12.8171 21.452 12.9124 21.697C11.8494 23.5074 10.8765 25.4764 10.2117 27.578C9.78799 28.9182 9.45949 30.2898 9.0977 31.6491C9.03882 31.8711 8.8979 31.9696 8.74372 32.1216C8.401 32.4607 7.99206 32.3175 7.5666 32.5116C7.69395 31.8618 7.79552 31.2697 7.92803 30.684C8.93171 26.2551 10.7567 22.1967 13.4088 18.5128C15.3207 15.8563 17.5789 13.5385 20.1708 11.5464C20.3091 11.4398 20.4615 11.3358 20.6246 11.2797C20.9448 11.1699 21.3139 11.1442 21.3585 10.689C21.3624 10.646 21.4512 10.6088 21.5031 10.573C23.0954 9.48282 24.7685 8.53559 26.5225 7.73053C26.5905 7.69937 26.6681 7.68693 26.7406 7.66594C26.7267 7.69874 26.7089 7.73057 26.6998 7.76501C26.6678 7.88215 26.6389 7.99963 26.6085 8.11731C26.7251 8.131 26.866 8.19143 26.953 8.14757C27.0788 8.08361 27.1652 7.94263 27.2686 7.83474C27.1872 7.76517 27.1147 7.66505 27.0212 7.63575C26.936 7.60993 26.8272 7.66302 26.7287 7.67995L26.7305 7.68201ZM23.0248 10.8266C23.2833 10.5404 23.5461 10.2573 23.7881 9.95791C23.8026 9.94044 23.6615 9.72573 23.5721 9.70822C23.3203 9.65874 22.7045 10.0986 22.6205 10.3496C22.5229 10.6418 22.648 10.7978 23.0248 10.8266ZM29.1419 7.34697C29.575 7.57463 29.9798 7.54552 30.2165 7.2299C30.3027 7.11516 30.335 6.88998 30.2816 6.76171C30.2448 6.67584 30.0078 6.62197 29.8718 6.64031C29.4843 6.69324 29.2709 6.96625 29.1419 7.34697ZM8.45819 30.331C8.86915 30.4337 9.15094 30.3131 9.15997 29.9994C9.164 29.8746 9.01958 29.6743 8.89889 29.6318C8.70126 29.5624 8.4771 29.9287 8.45819 30.331ZM36.9691 5.91056C37.0702 5.74822 37.1634 5.6495 37.1859 5.53601C37.194 5.49476 37.0087 5.35416 36.953 5.37433C36.843 5.4137 36.7621 5.53385 36.6695 5.62015C36.7507 5.69901 36.8318 5.77787 36.9691 5.91056Z" fill="#06C270"/>
    <path d="M34.4752 70.6449C34.6391 70.4799 34.7683 70.3746 34.8654 70.2437C34.934 70.1515 34.9572 70.0263 35.001 69.916C34.866 69.8648 34.7113 69.7446 34.6003 69.7764C34.3902 69.8375 34.1732 69.9537 34.0159 70.1054C33.6924 70.417 33.3682 70.4603 32.9288 70.3577C28.6906 69.3687 24.7894 67.628 21.23 65.1248C19.1453 63.6588 17.2495 61.9757 15.5581 60.0648C15.5252 60.0278 15.4976 59.9854 15.4844 59.968C15.8275 59.6976 16.1639 59.4335 16.4785 59.1848C17.406 60.0759 18.3481 61.0545 19.3664 61.9451C23.9399 65.9444 29.2328 68.4331 35.2215 69.4306C35.6086 69.495 36.0015 69.5293 36.3876 69.5977C36.6189 69.6385 36.8934 69.5536 36.9908 69.945C37.0407 70.147 37.3212 70.0606 37.5051 69.9174C37.6147 69.8318 37.7732 69.7486 37.9037 69.7573C40.3822 69.9266 42.8464 69.8256 45.3018 69.4474C45.4494 69.4243 45.6225 69.4995 45.771 69.5596C46.0233 69.6615 46.2275 69.6791 46.3556 69.3803C46.3829 69.317 46.463 69.251 46.5306 69.2338C47.2438 69.0541 47.9597 68.8833 48.675 68.7141C48.7458 68.6972 48.8391 68.6817 48.8951 68.7132C49.1236 68.8431 49.2338 68.7343 49.4046 68.5745C49.5673 68.4228 49.8309 68.3703 50.0571 68.2976C53.6944 67.1369 57.0063 65.3637 59.9975 62.9915C64.1636 59.6873 67.3021 55.5847 69.4528 50.7214C69.704 50.153 69.9249 49.5719 70.1717 48.9671C70.4659 49.0824 70.7066 48.976 70.7534 48.6685C70.7737 48.5338 70.6013 48.3698 70.5071 48.2032C70.8508 46.7863 71.2087 45.2957 71.5811 43.8091C71.6039 43.7195 71.7338 43.6133 71.8296 43.5937C72.189 43.5216 72.5547 43.4833 73.0025 43.4204C72.8641 44.1287 72.7351 44.7887 72.6012 45.4741C72.3878 45.4401 72.2067 45.4115 71.99 45.3764C71.9132 45.7776 71.9296 46.124 72.1787 46.4508C72.2449 46.5379 72.2731 46.7006 72.2437 46.8089C71.4063 49.8791 70.1418 52.7647 68.4666 55.4666C66.2546 59.0339 63.4696 62.0792 60.111 64.5933C57.3389 66.6679 54.3306 68.3104 51.0316 69.3642C49.3803 69.8918 47.6764 70.2531 45.9956 70.6861C45.8618 70.7203 45.7211 70.727 45.5874 70.7458C45.345 70.2205 45.2652 70.2225 44.8203 70.6067C44.6328 70.7688 44.3793 70.9209 44.1413 70.9474C40.9742 71.3069 37.8145 71.248 34.6701 70.6954C34.6243 70.6872 34.5798 70.6719 34.4735 70.6436L34.4752 70.6449ZM65.8679 57.8107C66.3106 57.9035 66.5643 57.7915 66.5698 57.4636C66.572 57.3368 66.424 57.1384 66.3007 57.0941C66.1127 57.0271 65.8769 57.4259 65.8679 57.8107ZM68.2328 53.661C68.0982 53.9414 67.9962 54.1031 67.951 54.28C67.9387 54.3295 68.1556 54.4919 68.1639 54.4853C68.3233 54.3434 68.4749 54.1894 68.6027 54.0194C68.6125 54.0065 68.4287 53.8495 68.2329 53.6617L68.2328 53.661ZM32.4787 69.2259C32.1833 69.2659 31.9284 69.3318 31.8978 69.6617C31.8949 69.6906 32.1454 69.7966 32.2584 69.773C32.5319 69.7145 32.6856 69.5533 32.4787 69.2259ZM53.9043 67.2331L53.9621 67.4194C54.1421 67.4134 54.323 67.4073 54.5031 67.4012L54.4761 66.8419C54.4346 66.8261 54.3924 66.8112 54.351 66.7954C54.2021 66.9413 54.0531 67.0865 53.9042 67.2324L53.9043 67.2331Z" fill="#06C270"/>
    <path d="M21.5262 52.0137L21.3419 50.7026C21.4852 50.6755 21.6163 50.644 21.7492 50.6253C35.0309 48.7579 48.3137 46.8926 61.5942 45.0162C61.974 44.9628 62.0696 45.0728 62.1082 45.4246C62.2032 46.2923 62.2197 46.2946 61.3552 46.4161C50.2878 47.9715 39.221 49.5253 28.1536 51.0799C26.1059 51.3677 24.0585 51.657 22.0109 51.9455C21.8629 51.9663 21.715 51.9871 21.5262 52.0137ZM35.4945 50.0019C35.9577 49.5179 35.9769 49.3363 35.6254 48.9174C35.1162 49.2165 35.0604 49.6194 35.4945 50.0019ZM28.075 50.7893C28.31 50.6205 28.6467 50.5562 28.5349 50.1885C28.5148 50.1219 28.1979 50.0584 28.1005 50.1215C27.8598 50.2772 27.8336 50.5177 28.075 50.7893ZM31.6125 49.9203C31.655 49.9274 31.6975 49.9338 31.7401 49.9409C31.7743 49.8281 31.8703 49.6727 31.8279 49.6123C31.7642 49.521 31.6059 49.4954 31.4876 49.4426C31.465 49.4735 31.4424 49.5045 31.4206 49.5361C31.4849 49.6644 31.5482 49.792 31.6125 49.9203Z" fill="#06C270"/>
    <path d="M59.2605 25.2201L18.5844 30.9368L18.4053 29.6628C18.5373 29.638 18.6797 29.6049 18.824 29.5846C28.4871 28.2281 38.1513 26.873 47.8144 25.5157C51.4204 25.0089 55.0275 24.5035 58.6313 23.9808C59.001 23.9273 59.1354 24.0234 59.1486 24.3857C59.1579 24.649 59.217 24.9107 59.2605 25.2201ZM47.8018 26.1933C47.9492 26.009 48.0453 25.8875 48.1422 25.7667C48.0459 25.7061 47.9212 25.5748 47.8578 25.5999C47.714 25.6563 47.5996 25.7897 47.4737 25.8915C47.5614 25.9725 47.649 26.0535 47.8012 26.1942L47.8018 26.1933Z" fill="#06C270"/>
    <path d="M65.2382 51.8184L65.3162 52.3737C65.4127 52.381 65.5085 52.3884 65.623 52.3977C65.6089 52.446 65.6038 52.4969 65.5808 52.5363C64.5829 54.2836 63.4111 55.9056 62.0753 57.4072C60.7202 58.93 59.2299 60.3075 57.5845 61.5131C57.3186 61.7079 57.0516 61.9012 56.7759 62.0812C56.5487 62.2288 56.3645 62.4576 56.0075 62.3064C55.8815 62.2531 55.5761 62.4249 55.4603 62.5762C54.541 63.787 53.1255 64.1796 51.8504 64.7978C51.4943 64.9705 51.0864 65.0317 50.7128 65.1729C50.1747 65.3766 49.6578 65.6429 49.1112 65.8192C47.0394 66.4884 44.9167 66.9217 42.7437 67.079C41.8542 67.1431 40.9609 67.1915 40.069 67.1841C39.1447 67.1759 38.2177 67.1265 37.2988 67.0311C36.3926 66.9378 35.4879 66.7957 34.5943 66.6173C33.7009 66.4397 32.8097 66.2294 31.9372 65.9655C28.3277 64.875 25.0425 63.1565 22.0944 60.795C20.3131 59.3681 18.7096 57.7651 17.3165 55.955C17.1874 55.7872 17.1018 55.5562 17.0776 55.3459C17.0502 55.1068 16.952 54.994 16.7443 54.8967C16.5629 54.8119 16.3647 54.6885 16.2595 54.5266C15.661 53.604 15.0878 52.6646 14.5002 51.7219C15.1123 51.4638 15.1748 51.4867 15.449 51.9643C18.8715 57.9252 23.7752 62.1704 30.1766 64.6468C35.0082 66.516 40.0027 66.9859 45.0978 66.1063C50.989 65.0893 56.076 62.4596 60.3471 58.2588C60.577 58.032 60.8673 57.8624 61.0766 57.6201C61.5611 57.0575 62.0424 56.4883 62.4701 55.8828C63.3488 54.6406 64.1917 53.3734 65.0482 52.1159C65.0967 52.0443 65.1408 51.9694 65.2365 51.8171L65.2382 51.8184Z" fill="#06C270"/>
    <path d="M46.0383 60.5035C45.2571 60.2152 44.5623 59.978 43.8849 59.6998C43.5352 59.5561 43.2644 59.5579 42.9538 59.8075C42.3726 60.2742 41.756 60.6965 41.0761 61.1947C41.0819 60.8637 41.0809 60.61 41.093 60.3568C41.1204 59.7736 41.1672 59.1915 41.1769 58.6084C41.1791 58.4878 41.0816 58.3248 40.9801 58.2496C40.3567 57.791 39.7192 57.3529 39.0867 56.9063C39.0388 56.8722 38.9966 56.8295 38.8984 56.7446C39.6977 56.5258 40.4339 56.302 41.1818 56.1289C41.5241 56.05 41.6865 55.8852 41.783 55.553C41.9939 54.8236 42.2481 54.1067 42.5089 53.3109C42.8751 53.8512 43.2104 54.3356 43.5349 54.8262C44.0941 55.6711 44.0914 55.6683 45.0948 55.6423C45.6848 55.6272 46.2757 55.6298 46.9554 55.623C46.4202 56.2799 45.9502 56.8745 45.4592 57.4519C45.2465 57.7024 45.1519 57.9163 45.2964 58.2601C45.5362 58.8321 45.704 59.4342 45.8994 60.0247C45.9422 60.1544 45.9763 60.287 46.0389 60.5026L46.0383 60.5035ZM44.8376 57.4606C44.9862 57.28 45.0874 57.1562 45.1893 57.0323C45.0775 56.9709 44.9449 56.8383 44.8601 56.8649C44.7272 56.9052 44.627 57.0527 44.5129 57.1552C44.6024 57.239 44.6912 57.323 44.8384 57.4612L44.8376 57.4606Z" fill="#06C270"/>
    <path d="M37.0455 14.5431C37.5292 15.2451 37.984 15.8902 38.422 16.5469C38.5604 16.7535 38.6959 16.8578 38.9701 16.8471C39.7757 16.8164 40.5831 16.831 41.4881 16.8273C41.0014 17.4349 40.6026 18.0048 40.1281 18.502C39.7697 18.8771 39.7181 19.2061 39.9136 19.6762C40.1752 20.3052 40.3576 20.9678 40.6035 21.7039C40.0186 21.4922 39.484 21.3644 39.016 21.1131C38.2492 20.7025 37.6217 20.7629 36.9893 21.3802C36.6129 21.7479 36.1357 22.0124 35.7027 22.3225C35.6943 22.3283 35.6783 22.3244 35.6128 22.329C35.6401 21.674 35.6137 21.015 35.7084 20.3745C35.7967 19.7757 35.6138 19.4165 35.0976 19.1233C34.5922 18.8364 34.1343 18.4656 33.6574 18.1292C33.601 18.0892 33.5555 18.0339 33.4586 17.9418C34.142 17.7532 34.764 17.5385 35.4043 17.4161C35.975 17.3074 36.2994 17.0627 36.4275 16.4623C36.5646 15.8219 36.824 15.2076 37.0439 14.5426L37.0455 14.5431ZM38.4134 18.584C38.6401 18.4766 38.8603 18.3723 39.0046 18.3034C39.1283 18.4496 39.2228 18.64 39.2972 18.6326C39.4438 18.6182 39.6119 18.5213 39.7113 18.407C39.7922 18.3139 39.8085 18.1449 39.8087 18.0099C39.8091 17.9034 39.7609 17.7242 39.6984 17.7068C39.6031 17.6808 39.4151 17.735 39.3765 17.8107C39.2565 18.0474 39.089 18.0223 38.8759 18.0068C38.4875 17.9772 38.3543 18.1526 38.4127 18.5841L38.4134 18.584Z" fill="#06C270"/>
    <path d="M66.0237 24.2573C65.382 24.4139 65.3856 24.4118 65.0903 23.894C64.9083 23.5747 64.7212 23.2569 64.5244 22.9467C64.3403 22.6555 64.0986 22.3824 64.4881 21.9319C63.8016 22.0769 63.6697 21.604 63.4178 21.2799C62.8416 20.5385 62.262 19.7999 61.7269 19.1152C61.7504 18.9043 61.7698 18.7303 61.7892 18.5556C61.6158 18.5437 61.4425 18.5325 61.2031 18.5161C60.4995 17.8542 59.744 17.1025 58.9455 16.4008C56.4321 14.1912 53.6089 12.478 50.4763 11.3135C49.1262 10.812 47.7175 10.4692 46.3323 10.0636C46.0947 9.99443 45.8479 9.97511 45.9226 9.61899C45.9337 9.56651 45.8361 9.49074 45.7884 9.42569C45.7281 9.4789 45.6487 9.5217 45.6134 9.58838C45.573 9.66272 45.5726 9.75844 45.5438 9.89827C45.107 9.74364 44.588 9.91302 44.3068 9.53902C44.0181 9.56108 43.7857 9.60608 43.5574 9.59189C42.3986 9.52098 41.2409 9.43527 40.0877 9.35432C40.1277 9.17357 40.1732 8.97122 40.2194 8.76336C50.6901 8.5393 61.161 14.7764 66.0237 24.2573Z" fill="#06C270"/>
    <path d="M46.9399 14.1403C47.3822 14.7948 47.7732 15.3525 48.1394 15.9259C48.2716 16.1326 48.4178 16.2139 48.661 16.2075C49.3637 16.189 50.0672 16.1934 50.8473 16.1887C50.4702 16.6607 50.1558 17.1191 49.7743 17.5114C49.3776 17.9205 49.2483 18.299 49.5133 18.8481C49.7477 19.3328 49.8646 19.8741 50.0625 20.4766C49.4536 20.2582 48.8956 20.1014 48.3773 19.8594C47.8953 19.6348 47.527 19.6711 47.122 20.0274C46.6973 20.4018 46.2094 20.7049 45.6764 21.0923C45.6895 20.6654 45.6447 20.2975 45.7217 19.9572C45.9452 18.9676 45.642 18.2835 44.7028 17.8577C44.3771 17.7099 44.1054 17.4418 43.7362 17.1758C44.4518 16.9811 45.0888 16.7967 45.7319 16.6392C46.0401 16.5635 46.2293 16.4366 46.3174 16.0986C46.4798 15.4741 46.7055 14.8668 46.9406 14.1402L46.9399 14.1403ZM47.5713 18.7862C47.2335 18.947 47.0336 19.2668 47.1827 19.4287C47.249 19.5011 47.4712 19.537 47.5376 19.4837C47.7909 19.2807 47.7249 19.03 47.5713 18.7862Z" fill="#06C270"/>
    <path d="M36.7235 57.7486C36.2382 58.3553 35.827 58.9022 35.3769 59.4145C35.1837 59.6337 35.1853 59.8202 35.272 60.0649C35.4941 60.6972 35.7022 61.3345 35.9418 62.0476C35.3723 61.8414 34.8458 61.7056 34.3724 61.4651C33.8003 61.1744 33.3591 61.2348 32.8874 61.6699C32.4928 62.034 32.0183 62.312 31.5331 62.6618C31.5685 61.9494 31.5925 61.2926 31.6406 60.6378C31.6487 60.5309 31.7912 60.4384 31.8171 60.3267C31.8567 60.1538 31.8493 59.9696 31.8618 59.7904C31.7205 59.7987 31.5791 59.8116 31.4378 59.8138C31.3279 59.8153 31.1915 59.8422 31.1118 59.7901C30.6266 59.4711 30.1546 59.1316 29.6033 58.7477C30.1648 58.5901 30.6472 58.4012 31.1473 58.3278C31.8331 58.2276 32.2064 57.8981 32.3365 57.2071C32.4246 56.7388 32.6259 56.2916 32.7766 55.8353C32.7797 55.8248 32.7933 55.8175 32.8539 55.7558C33.1459 56.3373 33.6907 56.7298 33.7961 57.4302C33.8175 57.5714 34.2182 57.7381 34.4516 57.75C35.1827 57.7861 35.9175 57.7546 36.7243 57.7485L36.7235 57.7486Z" fill="#06C270"/>
    <path d="M49.1848 55.9814C49.9668 55.7659 50.6522 55.5916 51.3262 55.3804C51.476 55.3339 51.6362 55.181 51.702 55.0359C51.838 54.7376 51.8859 54.3991 52.021 54.1008C52.1557 53.8042 52.3536 53.5364 52.5606 53.1956C52.9485 53.7645 53.2758 54.274 53.6385 54.7568C53.7314 54.8811 53.9328 54.9878 54.0874 54.9923C54.7946 55.0117 55.5033 54.9924 56.3078 54.9858C55.7893 55.6303 55.3276 56.2075 54.8582 56.7788C54.8253 56.8189 54.7313 56.829 54.67 56.8206C54.2079 56.7591 54.0497 56.9595 54.2138 57.431C54.4064 57.3445 54.5974 57.2575 54.814 57.1599C55.0484 57.8637 55.2728 58.535 55.5219 59.2823C54.963 59.0808 54.4361 58.9473 53.9642 58.7066C53.3911 58.4145 52.9444 58.4796 52.4716 58.9063C52.0801 59.2599 51.6202 59.5375 51.1913 59.8493C51.1525 59.8362 51.1129 59.8233 51.0741 59.8102C51.1509 59.3651 51.231 58.921 51.3014 58.4744C51.3147 58.3885 51.2986 58.2958 51.2825 58.2086C51.2654 58.1146 51.1953 58.0157 51.213 57.9329C51.2987 57.5351 51.1275 57.3085 50.7953 57.1029C50.2692 56.778 49.7775 56.3973 49.1854 55.9806L49.1848 55.9814Z" fill="#06C270"/>
    <path d="M15.199 24.329C15.1384 24.1446 15.0856 23.9823 15.0319 23.8194C14.9458 23.9626 14.8707 24.1136 14.77 24.2458C14.6893 24.3513 14.5775 24.4325 14.4044 24.4715C14.5791 24.1476 14.748 23.8207 14.9294 23.5013C16.3581 20.9899 18.12 18.7395 20.208 16.7449C20.3722 16.5876 20.5167 16.4925 20.7647 16.5479C21.0572 16.6132 21.3527 16.5902 21.5372 16.221C21.4172 16.1391 21.2894 16.0521 21.1047 15.9261C26.4473 11.3294 32.6321 8.97737 39.6615 8.77328C39.3778 9.09937 39.163 9.44973 38.6203 9.47817C34.1606 9.70686 29.9955 10.9642 26.1209 13.1759C23.2983 14.7869 20.8324 16.8377 18.7044 19.2985C18.5845 19.4372 18.3941 19.518 18.2289 19.6129C18.0151 19.7356 17.8019 19.8404 17.9 20.1599C17.9211 20.2279 17.8532 20.3369 17.8027 20.4104C17.1801 21.3218 16.5992 22.2668 15.9071 23.1224C15.5995 23.5028 15.563 24.0047 15.2007 24.3303L15.199 24.329Z" fill="#06C270"/>
    <path d="M27.365 16.907C27.7969 17.5475 28.1854 18.0824 28.525 18.6472C28.6908 18.9225 28.8904 18.9785 29.1785 18.9689C29.8454 18.9477 30.5126 18.9511 31.2731 18.9437C30.7651 19.5752 30.3088 20.1416 29.854 20.707C29.3126 20.3449 29.1324 20.3609 28.6758 20.8486C28.4441 21.0957 28.2426 21.3709 28.0238 21.6385C28.6868 21.9295 29.1679 21.8025 29.7748 21.1571C29.877 21.4459 29.97 21.7083 30.049 21.9302C29.9566 22.0728 29.8882 22.178 29.8199 22.2833C29.9147 22.3224 30.0131 22.3541 30.1024 22.4033C30.16 22.4353 30.2275 22.4829 30.2493 22.5393C30.3259 22.7391 30.3849 22.9453 30.4803 23.2405C29.8997 23.032 29.3617 22.8962 28.8799 22.6515C28.3251 22.3692 27.9036 22.4593 27.4532 22.8543C27.0467 23.2108 26.5816 23.5006 26.0849 23.8613C26.1179 23.0829 26.1599 22.368 26.1672 21.6533C26.1686 21.5096 26.0751 21.3152 25.9612 21.2286C25.4568 20.8443 24.9284 20.492 24.4096 20.1259C24.3421 20.0783 24.2809 20.0213 24.1747 19.9336C24.8724 19.743 25.5122 19.5512 26.1613 19.3975C26.4668 19.3253 26.6325 19.1894 26.7216 18.876C26.9038 18.2332 27.1342 17.6044 27.3645 16.9086L27.365 16.907Z" fill="#06C270"/>
    <path d="M15.8961 58.4348C15.5635 58.7307 15.2459 59.013 14.9057 59.3146C13.1144 57.1809 11.5968 54.8414 10.3519 52.2289C10.8011 52.1658 11.2053 52.0997 11.6117 52.0604C11.6808 52.0537 11.7944 52.1442 11.8309 52.2178C12.9358 54.458 14.3268 56.5106 15.8976 58.4454C15.905 58.4543 15.9056 58.4689 15.8945 58.4342L15.8961 58.4348Z" fill="#06C270"/>
    <path d="M68.8981 44.008C68.5486 45.2028 68.2338 46.3102 67.8979 47.4105C67.7571 47.8708 67.5824 48.3212 67.3971 48.7661C67.3286 48.9308 67.1821 49.061 67.0802 49.2126C67.0196 49.3021 66.9267 49.4078 66.9341 49.4985C66.9774 50.0263 66.7628 50.3836 66.3367 50.6934C65.9832 50.9506 65.7032 51.3086 65.3138 51.6989C65.6505 50.999 65.9499 50.396 66.2329 49.7853C67.0246 48.0771 67.6369 46.3038 68.0351 44.4642C68.1413 43.9755 68.4683 44.0785 68.8988 44.0079L68.8981 44.008Z" fill="#06C270"/>
    <path d="M14.1637 24.9375C14.4234 25.4812 14.6122 25.028 14.9047 24.9344C14.7522 25.2514 14.6221 25.5204 14.4939 25.786C14.3502 25.7823 14.2181 25.7793 13.9793 25.7727C14.4165 26.2598 14.1008 26.6375 13.9472 27.0348C13.7733 27.4843 13.6695 27.9787 13.4124 28.3736C13.1262 28.8135 13.1442 29.3085 12.9836 29.7655C12.8166 30.2426 12.7081 30.7415 12.5863 31.2339C12.4348 31.8485 12.441 31.8491 11.7476 31.8841C12.2514 29.4703 13.0555 27.1817 14.1629 24.9369L14.1637 24.9375Z" fill="#06C270"/>
    <path d="M8.54839 47.7375L6.15141 48.0744L7.96795 38.4094L10.9371 37.9921L15.3473 46.782L12.9504 47.1189L9.81308 40.5208L9.74099 40.531L8.54839 47.7375ZM7.71812 44.151L12.7284 43.4468L12.9664 45.1409L7.95621 45.8451L7.71812 44.151ZM16.3408 46.6424L15.044 37.4149L18.8557 36.8792C19.5466 36.7821 20.1618 36.8335 20.7015 37.0333C21.2437 37.2297 21.6852 37.549 22.0261 37.9912C22.3665 38.4304 22.5813 38.9668 22.6704 39.6006C22.7599 40.2374 22.6985 40.8142 22.4863 41.3311C22.2766 41.8445 21.9334 42.268 21.4564 42.6015C20.9795 42.935 20.3881 43.1514 19.6823 43.2506L17.3303 43.5811L17.0834 41.8239L19.0208 41.5517C19.3572 41.5044 19.6298 41.4063 19.8386 41.2575C20.0505 41.1083 20.2002 40.9203 20.2878 40.6936C20.3749 40.4639 20.3987 40.2078 20.359 39.9255C20.3189 39.6401 20.2257 39.402 20.0794 39.2112C19.9327 39.0175 19.7372 38.8795 19.4929 38.7975C19.2486 38.7154 18.9597 38.6978 18.6263 38.7447L17.5269 38.8992L18.5711 46.3289L16.3408 46.6424ZM24.6176 45.4791L23.3208 36.2516L27.1325 35.7159C27.8234 35.6189 28.4386 35.6702 28.9782 35.8701C29.5204 36.0665 29.962 36.3858 30.3029 36.828C30.6433 37.2671 30.8581 37.8036 30.9472 38.4374C31.0367 39.0742 30.9753 39.651 30.7631 40.1679C30.5534 40.6813 30.2102 41.1048 29.7332 41.4383C29.2563 41.7718 28.6649 41.9882 27.9591 42.0874L25.6071 42.4179L25.3602 40.6607L27.2976 40.3884C27.634 40.3411 27.9066 40.2431 28.1154 40.0943C28.3273 39.9451 28.477 39.7571 28.5646 39.5304C28.6517 39.3006 28.6755 39.0446 28.6358 38.7622C28.5957 38.4769 28.5025 38.2388 28.3562 38.048C28.2095 37.8542 28.014 37.7163 27.7697 37.6342C27.5254 37.5522 27.2365 37.5346 26.9031 37.5814L25.8037 37.7359L26.8479 45.1657L24.6176 45.4791ZM32.8944 44.3159L31.5976 35.0884L35.4093 34.5527C36.1002 34.4556 36.7139 34.4965 37.2506 34.6753C37.7898 34.8507 38.2286 35.1505 38.567 35.5746C38.9049 35.9958 39.1182 36.5217 39.2069 37.1525C39.2968 37.7923 39.2335 38.3556 39.0171 38.8424C38.8002 39.3263 38.4514 39.7214 37.9707 40.0279C37.4896 40.3314 36.8976 40.5325 36.1947 40.6313L33.7842 40.97L33.5372 39.2129L35.5332 38.9323C35.8696 38.8851 36.1444 38.802 36.3574 38.6833C36.573 38.5611 36.7267 38.4016 36.8186 38.2049C36.91 38.0052 36.9356 37.7627 36.8955 37.4774C36.8554 37.192 36.7637 36.9644 36.6204 36.7947C36.4766 36.6219 36.2841 36.505 36.0427 36.444C35.8009 36.3799 35.5133 36.3713 35.1799 36.4182L34.0805 36.5727L35.1247 44.0025L32.8944 44.3159ZM37.4967 39.3685L40.3872 43.2629L37.9542 43.6048L35.1087 39.7042L37.4967 39.3685ZM49.356 37.2975C49.4987 38.3128 49.4244 39.2008 49.1331 39.9615C48.8419 40.7223 48.3886 41.3328 47.7732 41.7929C47.1609 42.2527 46.4417 42.5406 45.6157 42.6567C44.7867 42.7732 44.0143 42.6934 43.2985 42.4172C42.5828 42.141 41.9803 41.679 41.491 41.031C41.0043 40.3795 40.6898 39.5477 40.5476 38.5355C40.4049 37.5202 40.4777 36.6324 40.766 35.8721C41.0572 35.1113 41.509 34.501 42.1214 34.0413C42.7337 33.5815 43.4544 33.2934 44.2834 33.1769C45.1094 33.0608 45.8801 33.1393 46.5954 33.4125C47.3138 33.6852 47.9178 34.1471 48.4075 34.7981C48.8972 35.4491 49.2133 36.2822 49.356 37.2975ZM47.0762 37.6179C46.9918 37.0172 46.8348 36.5216 46.6053 36.1311C46.3789 35.7402 46.0915 35.4605 45.7431 35.292C45.3977 35.1231 45.0028 35.0699 44.5582 35.1323C44.1167 35.1944 43.7517 35.3544 43.4633 35.6124C43.1748 35.8704 42.9741 36.2187 42.8612 36.6573C42.7512 37.0955 42.7385 37.6149 42.8229 38.2157C42.9073 38.8164 43.0628 39.3122 43.2892 39.7031C43.5187 40.0936 43.8076 40.373 44.156 40.5416C44.5044 40.7101 44.8993 40.7633 45.3409 40.7013C45.7854 40.6388 46.1504 40.4787 46.4358 40.2212C46.7243 39.9631 46.9235 39.6151 47.0334 39.1769C47.1464 38.7383 47.1606 38.2187 47.0762 37.6179ZM51.5597 32.2829L54.5731 38.7513L54.6497 38.7406L55.7634 31.6921L58.2595 31.3413L56.443 41.0064L53.4738 41.4237L49.0636 32.6337L51.5597 32.2829ZM60.5498 40.4292L59.253 31.2017L65.687 30.2975L65.9415 32.1087L61.7378 32.6995L62.0038 34.5919L65.8786 34.0473L66.1338 35.8631L62.2589 36.4076L62.5255 38.3045L66.7293 37.7137L66.9838 39.5249L60.5498 40.4292ZM71.7913 38.8493L68.3806 39.3286L67.0837 30.1012L70.49 29.6225C71.4301 29.4903 72.2656 29.5613 72.9964 29.8353C73.7297 30.106 74.3297 30.5607 74.7962 31.1997C75.2623 31.8356 75.5627 32.6327 75.6974 33.5909C75.8325 34.5521 75.7639 35.4041 75.4915 36.1468C75.2221 36.8892 74.7725 37.493 74.1426 37.9583C73.5122 38.4206 72.7285 38.7176 71.7913 38.8493ZM70.3436 37.1138L71.4385 36.96C71.9551 36.8874 72.3799 36.7388 72.7129 36.5144C73.0484 36.2865 73.2799 35.9614 73.4074 35.5392C73.5375 35.1135 73.5559 34.5688 73.4626 33.9049C73.3693 33.2411 73.2019 32.7255 72.9604 32.3582C72.7184 31.9879 72.4035 31.7412 72.0156 31.618C71.6302 31.4915 71.1732 31.4654 70.6445 31.5397L69.5812 31.6891L70.3436 37.1138Z" fill="#06C270"/>
    </svg>
    