<svg width="32" height="32" viewBox="0 0 32 32" fill="none" xmlns="http://www.w3.org/2000/svg">
    <path d="M9.33325 23.9999V21.3333M15.9999 23.9999V19.9999M22.6666 23.9999V17.3333M3.33325 15.9999C3.33325 10.0288 3.33325 7.04324 5.18824 5.18824C7.04324 3.33325 10.0288 3.33325 15.9999 3.33325C21.971 3.33325 24.9566 3.33325 26.8117 5.18824C28.6666 7.04324 28.6666 10.0288 28.6666 15.9999C28.6666 21.971 28.6666 24.9566 26.8117 26.8117C24.9566 28.6666 21.971 28.6666 15.9999 28.6666C10.0288 28.6666 7.04324 28.6666 5.18824 26.8117C3.33325 24.9566 3.33325 21.971 3.33325 15.9999Z" stroke="#C5A964" stroke-width="2" stroke-linecap="round" stroke-linejoin="round"/>
    <path d="M7.9895 15.315C10.863 15.4107 17.3787 14.977 21.0848 9.09502M18.6563 8.38439L21.157 7.98191C21.4618 7.94309 21.9092 8.18372 22.0192 8.47056L22.6805 10.6551" stroke="#C5A964" stroke-width="2" stroke-linecap="round" stroke-linejoin="round"/>
    </svg>
    