<svg width="32" height="32" viewBox="0 0 32 32" fill="none" xmlns="http://www.w3.org/2000/svg">
    <path d="M8.00008 5.33341C8.00008 6.80617 6.80617 8.00008 5.33341 8.00008C3.86065 8.00008 2.66675 6.80617 2.66675 5.33341C2.66675 3.86065 3.86065 2.66675 5.33341 2.66675C6.80617 2.66675 8.00008 3.86065 8.00008 5.33341Z" stroke="#C5A964" stroke-width="2"/>
    <path d="M29.3333 5.33341C29.3333 6.80617 28.1395 8.00008 26.6667 8.00008C25.1939 8.00008 24 6.80617 24 5.33341C24 3.86065 25.1939 2.66675 26.6667 2.66675C28.1395 2.66675 29.3333 3.86065 29.3333 5.33341Z" stroke="#C5A964" stroke-width="2"/>
    <path d="M29.3333 26.6667C29.3333 28.1395 28.1395 29.3333 26.6667 29.3333C25.1939 29.3333 24 28.1395 24 26.6667C24 25.1939 25.1939 24 26.6667 24C28.1395 24 29.3333 25.1939 29.3333 26.6667Z" stroke="#C5A964" stroke-width="2"/>
    <path d="M8.00008 26.6667C8.00008 28.1395 6.80617 29.3333 5.33341 29.3333C3.86065 29.3333 2.66675 28.1395 2.66675 26.6667C2.66675 25.1939 3.86065 24 5.33341 24C6.80617 24 8.00008 25.1939 8.00008 26.6667Z" stroke="#C5A964" stroke-width="2"/>
    <path d="M26.6666 7.99992V23.9999M23.9999 26.6666H7.99992M23.9999 5.33325H7.99992M5.33325 7.99992V23.9999" stroke="#C5A964" stroke-width="2" stroke-linecap="round" stroke-linejoin="round"/>
    <path d="M22 12C22 11.3787 22 11.0681 21.8985 10.8231C21.7632 10.4964 21.5036 10.2368 21.1769 10.1015C20.9319 10 20.6212 10 20 10H12C11.3787 10 11.0681 10 10.8231 10.1015C10.4964 10.2368 10.2368 10.4964 10.1015 10.8231C10 11.0681 10 11.3787 10 12C10 12.6213 10 12.9319 10.1015 13.1769C10.2368 13.5036 10.4964 13.7632 10.8231 13.8985C11.0681 14 11.3787 14 12 14H20C20.6212 14 20.9319 14 21.1769 13.8985C21.5036 13.7632 21.7632 13.5036 21.8985 13.1769C22 12.9319 22 12.6213 22 12Z" stroke="#C5A964" stroke-width="2" stroke-linecap="round" stroke-linejoin="round"/>
    <path d="M22 20C22 19.3788 22 19.0681 21.8985 18.8231C21.7632 18.4964 21.5036 18.2368 21.1769 18.1015C20.9319 18 20.6212 18 20 18H12C11.3787 18 11.0681 18 10.8231 18.1015C10.4964 18.2368 10.2368 18.4964 10.1015 18.8231C10 19.0681 10 19.3788 10 20C10 20.6212 10 20.9319 10.1015 21.1769C10.2368 21.5036 10.4964 21.7632 10.8231 21.8985C11.0681 22 11.3787 22 12 22H20C20.6212 22 20.9319 22 21.1769 21.8985C21.5036 21.7632 21.7632 21.5036 21.8985 21.1769C22 20.9319 22 20.6212 22 20Z" stroke="#C5A964" stroke-width="2" stroke-linecap="round" stroke-linejoin="round"/>
    </svg>
    