<svg width="115" height="17" viewBox="0 0 115 17" fill="none" xmlns="http://www.w3.org/2000/svg">
<rect x="1.27258" y="1.42668" width="22" height="15" rx="2" fill="white" stroke="#D9D9D9"/>
<ellipse cx="12.2299" cy="8.80835" rx="5.21442" ry="5.215" fill="#6481E7"/>
<path fill-rule="evenodd" clip-rule="evenodd" d="M12.291 5.13899V10.4034L14.63 9.02053L12.291 5.13899Z" fill="#C1CCF5"/>
<path fill-rule="evenodd" clip-rule="evenodd" d="M9.95184 9.02053L12.2908 10.4034V5.13899L9.95184 9.02053Z" fill="white"/>
<path fill-rule="evenodd" clip-rule="evenodd" d="M12.291 7.95723L9.95184 9.02039L12.2908 10.4033L14.63 9.02054L12.291 7.95723Z" fill="#8299EC"/>
<path fill-rule="evenodd" clip-rule="evenodd" d="M12.291 7.95723L9.95184 9.02039L12.2908 10.4033L12.291 7.95723Z" fill="#C1CCF5"/>
<path fill-rule="evenodd" clip-rule="evenodd" d="M12.291 10.8463V12.761L14.6316 9.46424L12.291 10.8463Z" fill="#C1CCF5"/>
<path fill-rule="evenodd" clip-rule="evenodd" d="M9.95184 9.46424L12.2908 12.7608V10.8463L9.95184 9.46424Z" fill="white"/>
<rect x="31.2726" y="1.42668" width="22.3333" height="15" rx="2" fill="white" stroke="#D9D9D9"/>
<g clip-path="url(#clip0_5_1344)">
<path d="M42.5006 14.7302C45.5382 14.7302 48.0006 12.2677 48.0006 9.23018C48.0006 6.19261 45.5382 3.73018 42.5006 3.73018C39.463 3.73018 37.0006 6.19261 37.0006 9.23018C37.0006 12.2677 39.463 14.7302 42.5006 14.7302Z" fill="url(#paint0_linear_5_1344)"/>
<path d="M45.1202 7.7588C44.8669 7.58166 44.5961 7.39282 44.3311 7.20545C44.325 7.20072 44.3187 7.19633 44.3121 7.19228C44.281 7.16705 44.2459 7.14725 44.2082 7.13371L44.2052 7.13226C43.4967 6.96098 42.7765 6.78531 42.0797 6.61549C41.4472 6.46176 40.8153 6.30805 40.1839 6.15435C40.1678 6.15005 40.1517 6.14556 40.1341 6.14118C40.072 6.11988 40.0063 6.11141 39.9409 6.1163C39.9216 6.11912 39.9031 6.12612 39.8867 6.1368L39.8691 6.15143C39.8469 6.1738 39.83 6.20079 39.8194 6.23047L39.8151 6.24218V6.30951L39.818 6.31976C40.2176 7.43965 40.6275 8.57562 41.0228 9.67504C41.3273 10.5212 41.6435 11.3981 41.9524 12.2588C41.9629 12.288 41.9819 12.3134 42.0069 12.3316C42.032 12.3499 42.0619 12.3602 42.0929 12.3613H42.1075C42.1369 12.3622 42.166 12.3551 42.1917 12.341C42.2174 12.3268 42.2389 12.306 42.2539 12.2808L43.4134 10.59C43.6959 10.1786 43.9784 9.76677 44.2609 9.35443C44.3766 9.18608 44.4923 9.01626 44.6079 8.84791C44.7982 8.56977 44.9944 8.28287 45.1891 8.00323L45.1993 7.9886V7.97103C45.2036 7.91979 45.2052 7.81438 45.1203 7.75876M43.7617 8.37511C43.4894 8.5171 43.2113 8.66349 42.9317 8.80843C43.0941 8.63423 43.2582 8.45855 43.4206 8.28433C43.6241 8.06474 43.8363 7.83784 44.0442 7.61533L44.0485 7.61103C44.0679 7.58668 44.0889 7.56371 44.1115 7.54228C44.1276 7.52617 44.1451 7.51006 44.1612 7.49104C44.2696 7.5655 44.3774 7.64065 44.4848 7.71648C44.5609 7.77063 44.6385 7.82479 44.7175 7.87896C44.3955 8.04293 44.0734 8.21126 43.7616 8.37526M43.0619 8.30498C42.849 8.53562 42.6353 8.76545 42.4207 8.99447C42.0032 8.48793 41.5845 7.9824 41.1646 7.47787C40.9772 7.25244 40.7884 7.02552 40.601 6.80008L40.5996 6.79862C40.5571 6.75031 40.5161 6.69765 40.4751 6.64785C40.4488 6.61418 40.421 6.58197 40.3931 6.54831C40.5629 6.59222 40.7342 6.63321 40.9026 6.67274C41.0504 6.70787 41.2041 6.74448 41.3549 6.78253C42.204 6.98894 43.0535 7.19535 43.9036 7.40175C43.6211 7.70331 43.3371 8.00927 43.0619 8.30498ZM42.3255 11.1581C42.3416 11.0044 42.3591 10.8463 42.3738 10.6911C42.387 10.5667 42.4002 10.4393 42.4134 10.3178C42.4338 10.1231 42.4558 9.92112 42.4734 9.72348L42.4777 9.68836C42.4923 9.56246 42.507 9.43218 42.5157 9.30189C42.5327 9.29244 42.5503 9.28414 42.5684 9.27702C42.591 9.26747 42.6129 9.25671 42.6343 9.2448C42.9725 9.06765 43.3111 8.891 43.6503 8.71486C43.9936 8.5363 44.3366 8.35721 44.6794 8.1776C44.3673 8.62954 44.0564 9.08236 43.7469 9.53609C43.4848 9.91817 43.2155 10.312 42.9477 10.6999C42.8423 10.8551 42.7325 11.0132 42.6286 11.1654C42.5115 11.3352 42.3914 11.5094 42.2743 11.6837C42.2889 11.508 42.3065 11.3309 42.3255 11.1581M40.2849 6.89363C40.2659 6.84092 40.2454 6.78676 40.2278 6.73552C40.6231 7.21276 41.0213 7.69291 41.4092 8.15843C41.6098 8.39998 41.8103 8.64004 42.0108 8.88305C42.0503 8.92843 42.0898 8.97675 42.1279 9.02358C42.1777 9.08361 42.2274 9.14656 42.2816 9.20657C42.264 9.35735 42.2493 9.5095 42.2333 9.65598C42.223 9.75846 42.2128 9.86092 42.201 9.96486V9.96633C42.1967 10.0322 42.1879 10.0981 42.1805 10.1625C42.1703 10.2518 42.1469 10.4538 42.1469 10.4538L42.1454 10.4641C42.1191 10.7598 42.0868 11.0584 42.0561 11.3483C42.0429 11.4683 42.0312 11.5913 42.0181 11.7143C42.0107 11.6923 42.002 11.6704 41.9946 11.6498C41.9723 11.5901 41.9508 11.5301 41.9302 11.4698L41.7735 11.035C41.2773 9.65449 40.781 8.27403 40.2847 6.89358" fill="white"/>
</g>
<rect x="61.6059" y="1.42668" width="22" height="15" rx="2" fill="white" stroke="#D9D9D9"/>
<g clip-path="url(#clip1_5_1344)">
<path d="M77.8785 9.5013C78.0619 9.60842 78.0639 9.78147 77.8806 9.88653L73.437 12.4699C73.0414 12.6986 72.3966 12.6986 72.0011 12.4699L67.9118 10.1111C67.5142 9.88036 67.5121 9.50748 67.9077 9.27881L71.9681 6.92C72.3637 6.68927 73.0064 6.68927 73.404 6.92L77.8785 9.5013Z" fill="url(#paint1_linear_5_1344)"/>
<path d="M78.0083 9.74449C78.0083 9.74656 78.0083 9.74862 78.0062 9.75068C78.0001 9.76511 77.9939 9.77952 77.9836 9.79394C77.9815 9.796 77.9795 9.80013 77.9774 9.80218C77.9671 9.8166 77.9548 9.83102 77.9403 9.84338C77.93 9.85162 77.9197 9.85987 77.9074 9.86811C77.8971 9.87428 77.8888 9.88253 77.8785 9.8887L73.4349 12.4721C73.3751 12.5071 73.3072 12.5359 73.2351 12.5606C73.2103 12.5689 73.1836 12.5771 73.1588 12.5833C73.1259 12.5936 73.0909 12.6019 73.0558 12.608C73.0146 12.6163 72.9734 12.6245 72.9322 12.6286C72.9219 12.6307 72.9116 12.6328 72.9013 12.6328C72.8457 12.6389 72.788 12.641 72.7303 12.643C72.7221 12.643 72.7118 12.643 72.7036 12.643C72.6479 12.643 72.5903 12.6389 72.5346 12.6328C72.5264 12.6328 72.5182 12.6307 72.5099 12.6307C72.4543 12.6245 72.4007 12.6142 72.3472 12.6019C72.3369 12.5998 72.3286 12.5977 72.3183 12.5957C72.2709 12.5833 72.2236 12.5689 72.1782 12.5524C72.17 12.5503 72.1618 12.5462 72.1515 12.5442C72.0979 12.5236 72.0443 12.4989 71.9969 12.4721L67.9118 10.1112C67.712 9.99583 67.611 9.84338 67.611 9.693L67.6089 10.3646C67.6089 10.517 67.7078 10.6674 67.9097 10.7828L71.9969 13.1416C72.0423 13.1684 72.0917 13.191 72.1432 13.2116C72.1453 13.2137 72.1494 13.2137 72.1515 13.2137C72.1597 13.2178 72.1679 13.2199 72.1782 13.2219C72.2071 13.2322 72.2359 13.2425 72.2668 13.2528C72.2833 13.257 72.3019 13.2611 72.3183 13.2652C72.3286 13.2673 72.3369 13.2693 72.3472 13.2714C72.3554 13.2734 72.3636 13.2755 72.3719 13.2776C72.4049 13.2837 72.4378 13.2899 72.4728 13.2961C72.4852 13.2982 72.4976 13.2982 72.5099 13.3002C72.5182 13.3002 72.5264 13.3023 72.5346 13.3023C72.547 13.3043 72.5594 13.3064 72.5717 13.3064C72.6047 13.3085 72.6376 13.3105 72.6727 13.3126C72.683 13.3126 72.6933 13.3126 72.7036 13.3126C72.7118 13.3126 72.7221 13.3126 72.7303 13.3126C72.7448 13.3126 72.7613 13.3126 72.7757 13.3126C72.8127 13.3105 72.8519 13.3085 72.889 13.3043C72.8931 13.3043 72.8972 13.3023 72.9013 13.3023C72.9116 13.3002 72.9219 13.3002 72.9302 13.2982C72.959 13.294 72.9899 13.292 73.0188 13.2858C73.0311 13.2837 73.0435 13.2796 73.0558 13.2776C73.0909 13.2714 73.1238 13.2611 73.1568 13.2528C73.1753 13.2487 73.1939 13.2446 73.2103 13.2384C73.2186 13.2364 73.2248 13.2322 73.233 13.2281C73.3031 13.2034 73.371 13.1766 73.4328 13.1395L77.8765 10.5562C77.8785 10.5541 77.8806 10.5541 77.8826 10.5521C77.8909 10.5459 77.8991 10.5397 77.9053 10.5356C77.9156 10.5273 77.928 10.5191 77.9383 10.5109L77.9403 10.5088C77.9506 10.4985 77.9609 10.4882 77.9692 10.4779C77.9712 10.4758 77.9733 10.4738 77.9753 10.4697C77.9774 10.4676 77.9795 10.4655 77.9815 10.4614C77.9836 10.4573 77.9877 10.4532 77.9898 10.4491C77.9939 10.4408 77.998 10.4305 78.0021 10.4223C78.0021 10.4202 78.0021 10.4202 78.0042 10.4181C78.0042 10.4161 78.0042 10.414 78.0062 10.412C78.0083 10.4058 78.0104 10.3996 78.0104 10.3955C78.0124 10.3873 78.0124 10.377 78.0145 10.3687C78.0145 10.3667 78.0145 10.3667 78.0145 10.3646L78.0166 9.693C78.0166 9.7136 78.0124 9.72802 78.0083 9.74449Z" fill="url(#paint2_linear_5_1344)"/>
<path fill-rule="evenodd" clip-rule="evenodd" d="M71.5219 5.34268C71.4384 5.34268 71.3582 5.37587 71.2991 5.43497L70.0433 6.69082C70.0275 6.70596 70.0132 6.72281 70.0008 6.74115C69.9734 6.78137 69.9564 6.82652 69.9497 6.87289C69.9475 6.88781 69.9464 6.90279 69.9464 6.91773C69.9463 6.99852 69.9771 7.07936 70.0387 7.14101C70.0403 7.14259 70.0419 7.14416 70.0435 7.1457L71.0763 8.17848L70.0387 9.21604C69.9486 9.30616 69.9216 9.44169 69.9704 9.55943C70.0192 9.67719 70.1341 9.75395 70.2615 9.75395H74.0428C74.1263 9.75395 74.2065 9.72076 74.2656 9.66166L75.5214 8.40581C75.522 8.40524 75.5226 8.40469 75.5232 8.40413C75.5241 8.40321 75.5251 8.40227 75.526 8.40134C75.5839 8.34346 75.6145 8.26866 75.618 8.19287C75.6191 8.16825 75.6174 8.1434 75.6126 8.11883C75.605 8.07905 75.5896 8.04047 75.5666 8.00548C75.5535 7.98548 75.5382 7.96722 75.5212 7.95094L74.4884 6.91815L75.526 5.88059C75.6161 5.79047 75.6431 5.65494 75.5943 5.5372C75.5455 5.41944 75.4306 5.34268 75.3032 5.34268H71.5219ZM73.9123 6.603L74.5425 5.97288H71.6525L71.0223 6.603H73.9123ZM73.9123 7.23321L74.5424 7.86333H71.6524L71.0223 7.23321H73.9123ZM71.6525 8.49355L71.0223 9.12375H73.9123L74.5425 8.49355H71.6525Z" fill="#FFBC6B"/>
</g>
<rect x="91.6059" y="1.42668" width="22" height="15" rx="2" fill="white" stroke="#D9D9D9"/>
<path d="M102.648 3.59335C105.574 3.59361 107.946 5.96629 107.946 8.89315C107.946 11.8201 105.574 14.1927 102.648 14.193C99.7209 14.193 97.3478 11.8203 97.3478 8.89315C97.3479 5.96613 99.721 3.59335 102.648 3.59335ZM102.286 6.51815L101.109 6.22714L100.953 6.84823C100.953 6.84823 101.383 6.94682 101.377 6.9537C101.613 7.01261 101.657 7.16806 101.65 7.29159L100.994 9.90976C100.965 9.98098 100.892 10.0881 100.727 10.0475C100.733 10.0557 100.308 9.94465 100.302 9.94296L100.012 10.609L101.188 10.9039L100.946 11.8707L101.529 12.0162L101.769 11.0592C101.928 11.1019 102.083 11.1428 102.235 11.1803L101.996 12.1314L102.579 12.2769L102.821 11.3121C103.817 11.4996 104.566 11.4241 104.881 10.5269C105.047 9.90353 104.869 9.38754 104.345 9.11581C104.727 9.02829 105.014 8.77784 105.091 8.26132C105.196 7.55626 104.657 7.17749 103.92 6.9244L104.159 5.96835L103.575 5.82284L103.343 6.75351C103.19 6.71545 103.032 6.67955 102.875 6.64413L103.11 5.70761L102.526 5.5621L102.286 6.51815ZM102.279 9.07968C102.675 9.17808 103.944 9.37246 103.756 10.1256C103.575 10.8474 102.355 10.4581 101.959 10.36L102.279 9.07968ZM102.718 7.33163C103.048 7.41383 104.108 7.56725 103.938 8.25155C103.773 8.90746 102.757 8.57546 102.427 8.49374L102.718 7.33163Z" fill="#F7931A"/>
<defs>
<linearGradient id="paint0_linear_5_1344" x1="42.5006" y1="3.73018" x2="42.5006" y2="14.7302" gradientUnits="userSpaceOnUse">
<stop stop-color="#FFB508"/>
<stop offset="1" stop-color="#FC2A02"/>
</linearGradient>
<linearGradient id="paint1_linear_5_1344" x1="70.8014" y1="8.79833" x2="77.8974" y2="9.05188" gradientUnits="userSpaceOnUse">
<stop stop-color="#4A98FF"/>
<stop offset="1" stop-color="#6ECDFF"/>
</linearGradient>
<linearGradient id="paint2_linear_5_1344" x1="69.2818" y1="11.4383" x2="74.9876" y2="13.9707" gradientUnits="userSpaceOnUse">
<stop stop-color="#005BD7"/>
<stop offset="0.922" stop-color="#4892FF"/>
</linearGradient>
<clipPath id="clip0_5_1344">
<rect width="11" height="11" fill="white" transform="translate(37.0006 3.73018)"/>
</clipPath>
<clipPath id="clip1_5_1344">
<rect width="11" height="11" fill="white" transform="translate(67.3339 2.73018)"/>
</clipPath>
</defs>
</svg>
