<svg width="1172" height="359" viewBox="0 0 1172 359" fill="none" xmlns="http://www.w3.org/2000/svg">
    <g clip-path="url(#clip0_400_6561)">
    <path fill-rule="evenodd" clip-rule="evenodd" d="M1311.92 203.5L1055.42 1.78199L1056.5 1.5L1313 203.218L1311.92 203.5Z" fill="url(#paint0_radial_400_6561)"/>
    <path fill-rule="evenodd" clip-rule="evenodd" d="M1221.05 203.486L996.603 1.76815L997.712 1.51384L1222.15 203.232L1221.05 203.486Z" fill="url(#paint1_radial_400_6561)"/>
    <path fill-rule="evenodd" clip-rule="evenodd" d="M1130.15 203.471L937.785 1.75304L938.924 1.52895L1131.29 203.247L1130.15 203.471Z" fill="url(#paint2_radial_400_6561)"/>
    <path fill-rule="evenodd" clip-rule="evenodd" d="M1039.27 203.455L878.955 1.73671L880.123 1.54528L1040.43 203.263L1039.27 203.455Z" fill="url(#paint3_radial_400_6561)"/>
    <path fill-rule="evenodd" clip-rule="evenodd" d="M1254.17 27.161H-82.3736V26.597H1254.17V27.161Z" fill="url(#paint4_radial_400_6561)"/>
    <path fill-rule="evenodd" clip-rule="evenodd" d="M948.391 203.437L820.14 1.7192L821.333 1.56278L949.584 203.281L948.391 203.437Z" fill="url(#paint5_radial_400_6561)"/>
    <path fill-rule="evenodd" clip-rule="evenodd" d="M857.505 203.419L761.314 1.70067L762.528 1.58132L858.719 203.299L857.505 203.419Z" fill="url(#paint6_radial_400_6561)"/>
    <path fill-rule="evenodd" clip-rule="evenodd" d="M766.635 203.399L702.503 1.68128L703.733 1.60071L767.865 203.319L766.635 203.399Z" fill="url(#paint7_radial_400_6561)"/>
    <path fill-rule="evenodd" clip-rule="evenodd" d="M675.755 203.379L643.696 1.66129L644.935 1.6207L676.994 203.339L675.755 203.379Z" fill="url(#paint8_radial_400_6561)"/>
    <path fill-rule="evenodd" clip-rule="evenodd" d="M584.879 203.359V1.64099H586.121V203.359H584.879Z" fill="url(#paint9_radial_400_6561)"/>
    <path fill-rule="evenodd" clip-rule="evenodd" d="M494.018 203.339L526.078 1.6207L527.317 1.66129L495.257 203.379L494.018 203.339Z" fill="url(#paint10_radial_400_6561)"/>
    <path fill-rule="evenodd" clip-rule="evenodd" d="M403.148 203.319L467.28 1.60071L468.509 1.68128L404.377 203.399L403.148 203.319Z" fill="url(#paint11_radial_400_6561)"/>
    <path fill-rule="evenodd" clip-rule="evenodd" d="M312.281 203.299L408.472 1.58132L409.686 1.70067L313.495 203.419L312.281 203.299Z" fill="url(#paint12_radial_400_6561)"/>
    <path fill-rule="evenodd" clip-rule="evenodd" d="M221.428 203.281L349.679 1.56278L350.873 1.7192L222.622 203.437L221.428 203.281Z" fill="url(#paint13_radial_400_6561)"/>
    <path fill-rule="evenodd" clip-rule="evenodd" d="M130.566 203.263L290.876 1.54528L292.045 1.73671L131.734 203.455L130.566 203.263Z" fill="url(#paint14_radial_400_6561)"/>
    <path fill-rule="evenodd" clip-rule="evenodd" d="M39.7178 203.247L232.088 1.52895L233.228 1.75304L40.8577 203.471L39.7178 203.247Z" fill="url(#paint15_radial_400_6561)"/>
    <path fill-rule="evenodd" clip-rule="evenodd" d="M-51.1416 203.232L173.301 1.51384L174.409 1.76815L-50.0329 203.486L-51.1416 203.232Z" fill="url(#paint16_radial_400_6561)"/>
    <path fill-rule="evenodd" clip-rule="evenodd" d="M-142 203.218L114.502 1.5L115.578 1.78199L-140.924 203.5L-142 203.218Z" fill="url(#paint17_radial_400_6561)"/>
    </g>
    <defs>
    <radialGradient id="paint0_radial_400_6561" cx="0" cy="0" r="1" gradientTransform="matrix(1.24215 -55.2698 398.107 1.84446 636.825 44.0803)" gradientUnits="userSpaceOnUse">
    <stop stop-color="white" stop-opacity="0.13"/>
    <stop offset="1" stop-color="white" stop-opacity="0"/>
    </radialGradient>
    <radialGradient id="paint1_radial_400_6561" cx="0" cy="0" r="1" gradientTransform="matrix(1.24215 -55.2698 398.107 1.84446 636.825 44.0803)" gradientUnits="userSpaceOnUse">
    <stop stop-color="white" stop-opacity="0.13"/>
    <stop offset="1" stop-color="white" stop-opacity="0"/>
    </radialGradient>
    <radialGradient id="paint2_radial_400_6561" cx="0" cy="0" r="1" gradientTransform="matrix(1.24215 -55.2698 398.107 1.84446 636.825 44.0803)" gradientUnits="userSpaceOnUse">
    <stop stop-color="white" stop-opacity="0.13"/>
    <stop offset="1" stop-color="white" stop-opacity="0"/>
    </radialGradient>
    <radialGradient id="paint3_radial_400_6561" cx="0" cy="0" r="1" gradientTransform="matrix(1.24215 -55.2698 398.107 1.84446 636.825 44.0803)" gradientUnits="userSpaceOnUse">
    <stop stop-color="white" stop-opacity="0.13"/>
    <stop offset="1" stop-color="white" stop-opacity="0"/>
    </radialGradient>
    <radialGradient id="paint4_radial_400_6561" cx="0" cy="0" r="1" gradientTransform="matrix(1.24215 -55.2698 398.107 1.84446 636.825 44.0803)" gradientUnits="userSpaceOnUse">
    <stop stop-color="white" stop-opacity="0.13"/>
    <stop offset="1" stop-color="white" stop-opacity="0"/>
    </radialGradient>
    <radialGradient id="paint5_radial_400_6561" cx="0" cy="0" r="1" gradientTransform="matrix(1.24215 -55.2698 398.107 1.84446 636.825 44.0803)" gradientUnits="userSpaceOnUse">
    <stop stop-color="white" stop-opacity="0.13"/>
    <stop offset="1" stop-color="white" stop-opacity="0"/>
    </radialGradient>
    <radialGradient id="paint6_radial_400_6561" cx="0" cy="0" r="1" gradientTransform="matrix(1.24215 -55.2698 398.107 1.84446 636.825 44.0803)" gradientUnits="userSpaceOnUse">
    <stop stop-color="white" stop-opacity="0.13"/>
    <stop offset="1" stop-color="white" stop-opacity="0"/>
    </radialGradient>
    <radialGradient id="paint7_radial_400_6561" cx="0" cy="0" r="1" gradientTransform="matrix(1.24215 -55.2698 398.107 1.84446 636.825 44.0803)" gradientUnits="userSpaceOnUse">
    <stop stop-color="white" stop-opacity="0.13"/>
    <stop offset="1" stop-color="white" stop-opacity="0"/>
    </radialGradient>
    <radialGradient id="paint8_radial_400_6561" cx="0" cy="0" r="1" gradientTransform="matrix(1.24215 -55.2698 398.107 1.84446 636.825 44.0803)" gradientUnits="userSpaceOnUse">
    <stop stop-color="white" stop-opacity="0.13"/>
    <stop offset="1" stop-color="white" stop-opacity="0"/>
    </radialGradient>
    <radialGradient id="paint9_radial_400_6561" cx="0" cy="0" r="1" gradientTransform="matrix(1.24215 -55.2698 398.107 1.84446 636.825 44.0803)" gradientUnits="userSpaceOnUse">
    <stop stop-color="white" stop-opacity="0.13"/>
    <stop offset="1" stop-color="white" stop-opacity="0"/>
    </radialGradient>
    <radialGradient id="paint10_radial_400_6561" cx="0" cy="0" r="1" gradientTransform="matrix(1.24215 -55.2698 398.107 1.84446 636.825 44.0803)" gradientUnits="userSpaceOnUse">
    <stop stop-color="white" stop-opacity="0.13"/>
    <stop offset="1" stop-color="white" stop-opacity="0"/>
    </radialGradient>
    <radialGradient id="paint11_radial_400_6561" cx="0" cy="0" r="1" gradientTransform="matrix(1.24215 -55.2698 398.107 1.84446 636.825 44.0803)" gradientUnits="userSpaceOnUse">
    <stop stop-color="white" stop-opacity="0.13"/>
    <stop offset="1" stop-color="white" stop-opacity="0"/>
    </radialGradient>
    <radialGradient id="paint12_radial_400_6561" cx="0" cy="0" r="1" gradientTransform="matrix(1.24215 -55.2698 398.107 1.84446 636.825 44.0803)" gradientUnits="userSpaceOnUse">
    <stop stop-color="white" stop-opacity="0.13"/>
    <stop offset="1" stop-color="white" stop-opacity="0"/>
    </radialGradient>
    <radialGradient id="paint13_radial_400_6561" cx="0" cy="0" r="1" gradientTransform="matrix(1.24215 -55.2698 398.107 1.84446 636.825 44.0803)" gradientUnits="userSpaceOnUse">
    <stop stop-color="white" stop-opacity="0.13"/>
    <stop offset="1" stop-color="white" stop-opacity="0"/>
    </radialGradient>
    <radialGradient id="paint14_radial_400_6561" cx="0" cy="0" r="1" gradientTransform="matrix(1.24215 -55.2698 398.107 1.84446 636.825 44.0803)" gradientUnits="userSpaceOnUse">
    <stop stop-color="white" stop-opacity="0.13"/>
    <stop offset="1" stop-color="white" stop-opacity="0"/>
    </radialGradient>
    <radialGradient id="paint15_radial_400_6561" cx="0" cy="0" r="1" gradientTransform="matrix(1.24215 -55.2698 398.107 1.84446 636.825 44.0803)" gradientUnits="userSpaceOnUse">
    <stop stop-color="white" stop-opacity="0.13"/>
    <stop offset="1" stop-color="white" stop-opacity="0"/>
    </radialGradient>
    <radialGradient id="paint16_radial_400_6561" cx="0" cy="0" r="1" gradientTransform="matrix(1.24215 -55.2698 398.107 1.84446 636.825 44.0803)" gradientUnits="userSpaceOnUse">
    <stop stop-color="white" stop-opacity="0.13"/>
    <stop offset="1" stop-color="white" stop-opacity="0"/>
    </radialGradient>
    <radialGradient id="paint17_radial_400_6561" cx="0" cy="0" r="1" gradientTransform="matrix(1.24215 -55.2698 398.107 1.84446 636.825 44.0803)" gradientUnits="userSpaceOnUse">
    <stop stop-color="white" stop-opacity="0.13"/>
    <stop offset="1" stop-color="white" stop-opacity="0"/>
    </radialGradient>
    <clipPath id="clip0_400_6561">
    <rect width="1171.37" height="358.17" fill="white" transform="translate(0 0.5)"/>
    </clipPath>
    </defs>
    </svg>
    