<svg width="85" height="64" viewBox="0 0 85 64" fill="none" xmlns="http://www.w3.org/2000/svg">
<rect x="2.43927" y="1.35484" width="22" height="15" rx="2" fill="#1F72CD" stroke="#D9D9D9"/>
<path fill-rule="evenodd" clip-rule="evenodd" d="M6.08357 6.47523L3.93927 11.4309H6.5063L6.82454 10.6407H7.55196L7.8702 11.4309H10.6958V10.8278L10.9476 11.4309H12.4092L12.6609 10.8151V11.4309H18.5374L19.2519 10.6613L19.921 11.4309L22.9393 11.4372L20.7882 8.96689L22.9393 6.47523H19.9678L19.2723 7.23063L18.6242 6.47523H12.2314L11.6825 7.75433L11.1207 6.47523H8.55899V7.05777L8.27402 6.47523H6.08357ZM14.8588 7.17894H18.2334L19.2655 8.34324L20.3309 7.17894H21.363L19.7948 8.96619L21.363 10.7328H20.2841L19.2519 9.55502L18.1811 10.7328H14.8588V7.17894ZM15.6922 8.56436V7.91521V7.91459H17.7978L18.7166 8.95274L17.7571 9.99656H15.6922V9.28788H17.5332V8.56436H15.6922ZM6.58025 7.17894H7.83154L9.25386 10.5394V7.17894H10.6246L11.7232 9.58836L12.7356 7.17894H14.0995V10.7349H13.2696L13.2629 7.94848L12.0529 10.7349H11.3106L10.0939 7.94848V10.7349H8.3866L8.06293 9.93773H6.31426L5.99126 10.7342H5.07652L6.58025 7.17894ZM6.61286 9.20076L7.18897 7.7806L7.76442 9.20076H6.61286Z" fill="white"/>
<rect x="31.4393" y="1.35484" width="22" height="15" rx="2" fill="white" stroke="#D9D9D9"/>
<path fill-rule="evenodd" clip-rule="evenodd" d="M36.4239 6.81015C36.7328 6.83659 37.0417 6.65155 37.2347 6.41695C37.4246 6.17575 37.55 5.85194 37.5179 5.52151C37.2444 5.53473 36.9065 5.70655 36.7135 5.94776C36.5365 6.15592 36.3853 6.49295 36.4239 6.81015ZM40.0983 11.066V5.91471H41.9806C42.9523 5.91471 43.6312 6.60199 43.6312 7.60646C43.6312 8.61094 42.9394 9.30482 41.9549 9.30482H40.877V11.066H40.0983ZM37.5146 6.87295C37.2425 6.85686 36.9942 6.95699 36.7937 7.03786C36.6646 7.08991 36.5553 7.13398 36.4722 7.13398C36.3788 7.13398 36.265 7.08755 36.1373 7.03542C35.9698 6.96712 35.7784 6.88902 35.5777 6.89277C35.1176 6.89938 34.6896 7.16702 34.4548 7.59326C33.9721 8.44574 34.3293 9.70795 34.7958 10.4018C35.0243 10.7455 35.2977 11.1221 35.6581 11.1089C35.8167 11.1028 35.9307 11.0531 36.0487 11.0017C36.1846 10.9424 36.3258 10.8809 36.5462 10.8809C36.7589 10.8809 36.8939 10.9408 37.0235 10.9984C37.1467 11.053 37.265 11.1055 37.4406 11.1023C37.8139 11.0957 38.0487 10.7587 38.2772 10.415C38.5237 10.0462 38.6321 9.68628 38.6485 9.63166L38.6504 9.62534C38.65 9.62494 38.647 9.62352 38.6417 9.62101L38.6416 9.62099L38.6416 9.62098C38.5592 9.58223 37.9293 9.2861 37.9233 8.492C37.9172 7.82547 38.4229 7.48777 38.5025 7.43461L38.5025 7.4346L38.5025 7.4346C38.5073 7.43137 38.5106 7.42919 38.5121 7.42805C38.1903 6.93903 37.6884 6.88616 37.5146 6.87295ZM45.0534 11.1056C45.5425 11.1056 45.9961 10.8512 46.2021 10.4481H46.2181V11.0659H46.9389V8.50188C46.9389 7.75844 46.3597 7.27933 45.4685 7.27933C44.6415 7.27933 44.0302 7.76505 44.0077 8.4325H44.7091C44.767 8.11529 45.0534 7.90713 45.4459 7.90713C45.9221 7.90713 46.1892 8.13512 46.1892 8.55475V8.83891L45.2175 8.89839C44.3134 8.95456 43.8243 9.33454 43.8243 9.99538C43.8243 10.6628 44.3294 11.1056 45.0534 11.1056ZM45.2625 10.4943C44.8474 10.4943 44.5836 10.2895 44.5836 9.97557C44.5836 9.65176 44.8378 9.46342 45.3236 9.43368L46.1891 9.37751V9.66828C46.1891 10.1507 45.7902 10.4943 45.2625 10.4943ZM49.3295 11.2675C49.0174 12.1696 48.6602 12.4669 47.9009 12.4669C47.843 12.4669 47.6499 12.4603 47.6049 12.4471V11.8292C47.6532 11.8358 47.7722 11.8424 47.8333 11.8424C48.1776 11.8424 48.3707 11.6938 48.4897 11.3072L48.5605 11.0792L47.2413 7.32891H48.0553L48.9723 10.3721H48.9884L49.9054 7.32891H50.6969L49.3295 11.2675ZM40.8769 6.58878H41.7746C42.4503 6.58878 42.8364 6.95885 42.8364 7.60978C42.8364 8.2607 42.4503 8.63408 41.7714 8.63408H40.8769V6.58878Z" fill="black"/>
<rect x="60.4393" y="1.35484" width="22" height="15" rx="2" fill="white" stroke="#D9D9D9"/>
<path d="M78.0089 10.401H78.0206L78.9796 7.95857H79.6534L77.5812 12.8551H76.9415L77.712 11.1422L76.3527 7.95857H77.0265L78.0089 10.401ZM74.7657 7.84724C75.224 7.84729 75.586 7.97453 75.8517 8.2242C76.1175 8.47396 76.2482 8.8232 76.2482 9.26326V11.3599H75.6554V10.8883H75.6281C75.37 11.2768 75.0312 11.4713 74.6036 11.4713C74.2416 11.4712 73.9332 11.3603 73.6906 11.1383C73.4518 10.9321 73.3176 10.6263 73.3253 10.3053C73.3254 9.95265 73.4561 9.67543 73.714 9.46541C73.9721 9.25529 74.3187 9.15193 74.7501 9.15193C75.1199 9.15193 75.4205 9.22319 75.6593 9.35799V9.2115C75.6593 8.99347 75.5671 8.78684 75.4054 8.64412C75.2398 8.49347 75.0273 8.41072 74.8077 8.41072C74.4611 8.41077 74.1877 8.56161 73.9874 8.86287L73.4406 8.50935C73.7333 8.0695 74.1766 7.84724 74.7657 7.84724ZM71.8263 6.38826C72.223 6.38033 72.6086 6.53543 72.8898 6.82088C73.4521 7.36006 73.4868 8.26839 72.9591 8.85115L72.8898 8.92244C72.6009 9.20384 72.2461 9.34627 71.8263 9.34627H70.8019V11.3599H70.1818V6.38826H71.8263ZM74.8468 9.66756C74.5964 9.66756 74.3845 9.73118 74.215 9.85408C74.0494 9.97697 73.964 10.1316 73.964 10.3179C73.9641 10.4843 74.042 10.6389 74.1691 10.734C74.3077 10.8448 74.4773 10.9039 74.6505 10.9C74.9124 10.8999 75.1629 10.7933 75.3478 10.6031C75.5519 10.4049 75.6554 10.1705 75.6554 9.90096C75.4628 9.74257 75.1933 9.66362 74.8468 9.66756ZM70.8019 8.73592H71.8419C72.0729 8.74384 72.2963 8.64841 72.4542 8.4781C72.7778 8.13319 72.7708 7.57772 72.4357 7.24471C72.2777 7.08617 72.0653 6.99959 71.8419 6.99959H70.8019V8.73592Z" fill="#3C4043"/>
<path d="M68.6609 8.91015C68.6609 8.71589 68.6455 8.52163 68.6147 8.33133H65.9993V9.4295H67.4976C67.436 9.78234 67.2357 10.0995 66.943 10.2977V11.0113H67.8366C68.3605 10.5158 68.6609 9.78234 68.6609 8.91015Z" fill="#4285F4"/>
<path d="M65.9994 11.7012C66.7467 11.7012 67.3784 11.4474 67.8368 11.0113L66.9431 10.2977C66.6927 10.4722 66.373 10.5713 65.9994 10.5713C65.2752 10.5713 64.6628 10.0678 64.4432 9.39381H63.5226V10.1312C63.9926 11.0946 64.9517 11.7012 65.9994 11.7012Z" fill="#34A853"/>
<path d="M64.4433 9.39383C64.3278 9.04099 64.3278 8.65643 64.4433 8.29963V7.56619H63.5226C63.1258 8.37099 63.1258 9.32247 63.5226 10.1273L64.4433 9.39383Z" fill="#FBBC04"/>
<path d="M65.9994 7.12215C66.3961 7.11422 66.7775 7.26884 67.0625 7.55032L67.856 6.73363C67.3514 6.24996 66.6889 5.98434 65.9994 5.99227C64.9517 5.99227 63.9926 6.6028 63.5226 7.56618L64.4432 8.30358C64.6628 7.62565 65.2753 7.12215 65.9994 7.12215Z" fill="#EA4335"/>
<rect x="2.43927" y="24.7001" width="22" height="15" rx="2" fill="white" stroke="#D9D9D9"/>
<path d="M13.6635 27.5041C17.3825 27.5041 18.8118 29.5659 18.812 32.1721C18.812 35.2898 16.8142 36.8577 13.6635 36.8577H8.19086V27.5041H13.6635ZM8.71039 36.3293H13.6635C16.6518 36.3293 18.2758 34.9105 18.2758 32.1887C18.2757 29.3846 16.5218 28.0647 13.6635 28.0647H8.71039V36.3293ZM10.9672 35.636H9.3764V32.7659H10.9672V35.636ZM10.1713 30.3244C10.7182 30.3244 11.1621 30.775 11.1625 31.3303C11.1625 31.886 10.7185 32.3371 10.1713 32.3371C9.62459 32.3367 9.18109 31.8857 9.18109 31.3303C9.18154 30.7753 9.62487 30.3249 10.1713 30.3244Z" fill="black"/>
<path fill-rule="evenodd" clip-rule="evenodd" d="M16.4736 30.4073H16.9284V31.793H17.5942C17.4156 29.2691 15.4504 28.7083 13.664 28.7083H11.7638V30.4073H12.0399C12.5596 30.4073 12.8682 30.7538 12.8682 31.3311C12.8682 31.9085 12.5596 32.2549 12.0561 32.2549H11.7638V35.6365H13.664C16.5711 35.6365 17.5617 34.2673 17.6105 32.2549H16.4736V30.4073ZM14.2811 31.793V32.2549H13.1442V30.4073H14.2486V30.8692H13.599V31.0837H14.2161V31.5456H13.6152V31.793H14.2811ZM14.476 32.2549L15.0281 30.4073H15.6778L16.23 32.2549H15.759L15.6615 31.9085H15.0606L14.9632 32.2549H14.476ZM15.1956 31.43H15.1906V31.4465L15.1956 31.43ZM15.1956 31.43H15.5154L15.3692 30.9187H15.353L15.1956 31.43ZM11.7638 31.7929V30.8692H12.0399C12.2185 30.8692 12.4134 30.9187 12.4134 31.331C12.4134 31.7434 12.2348 31.7929 12.0399 31.7929H11.7638Z" fill="#D50072"/>
<rect x="31.4393" y="24.7001" width="22" height="15" rx="2" fill="white" stroke="#D9D9D9"/>
<path fill-rule="evenodd" clip-rule="evenodd" d="M36.9272 35.924C36.9272 35.8275 36.9048 35.744 36.8601 35.6735C36.8153 35.603 36.7564 35.5491 36.6833 35.512C36.7564 35.4749 36.813 35.4201 36.8533 35.3477C36.8934 35.2754 36.9135 35.1937 36.9135 35.1028V35.0527C36.9135 34.9413 36.8925 34.8486 36.8505 34.7743C36.8085 34.7001 36.7495 34.6406 36.6737 34.5961C36.5979 34.5516 36.5069 34.5196 36.401 34.5C36.295 34.4806 36.1772 34.4709 36.0474 34.4709C36.0036 34.4709 35.9579 34.4718 35.9104 34.4736C35.8628 34.4755 35.8167 34.4778 35.772 34.4806C35.7272 34.4833 35.6861 34.4866 35.6487 34.4903C35.6112 34.4941 35.5805 34.4978 35.5568 34.5014C35.5038 34.5108 35.4664 34.5274 35.4445 34.5516C35.4225 34.5757 35.4116 34.6194 35.4116 34.6824V36.375C35.4116 36.4382 35.4229 36.4818 35.4458 36.5059C35.4686 36.53 35.5075 36.5467 35.5623 36.556C35.5897 36.5615 35.6226 36.5662 35.661 36.5699C35.6993 36.5736 35.7409 36.5768 35.7857 36.5796C35.8304 36.5824 35.8765 36.5847 35.9241 36.5866C35.9716 36.5884 36.0182 36.5894 36.0639 36.5894C36.1826 36.5894 36.2945 36.5801 36.3996 36.5615C36.5047 36.543 36.596 36.51 36.6737 36.4627C36.7514 36.4154 36.813 36.3513 36.8587 36.2706C36.9044 36.1899 36.9272 36.0883 36.9272 35.9658V35.924ZM36.4613 35.125C36.4613 35.1547 36.4568 35.183 36.4476 35.2099C36.4385 35.2368 36.4234 35.26 36.4024 35.2796C36.3814 35.299 36.3531 35.3148 36.3175 35.3268C36.2818 35.3389 36.2366 35.3449 36.1818 35.3449H35.8748V34.8633C35.8839 34.8633 35.8981 34.8629 35.9173 34.8619C35.9365 34.861 35.9566 34.8605 35.9776 34.8605H36.0831C36.2238 34.8605 36.322 34.8786 36.3777 34.9148C36.4334 34.951 36.4613 35.0071 36.4613 35.0832V35.125ZM36.3914 36.1356C36.4453 36.0929 36.4723 36.0326 36.4723 35.9546V35.924C36.4723 35.8572 36.4513 35.7992 36.4093 35.75C36.3672 35.7009 36.2914 35.6762 36.1818 35.6762H35.8748V36.1968H35.9228C35.9438 36.1968 35.9657 36.1974 35.9885 36.1982C36.0114 36.1992 36.0333 36.1997 36.0543 36.1997H36.0995C36.2402 36.1997 36.3375 36.1783 36.3914 36.1356ZM38.4292 35.5148C38.4292 35.4128 38.4141 35.3259 38.384 35.2545C38.3539 35.1831 38.3113 35.1246 38.2565 35.0791C38.2017 35.0337 38.1346 35.0003 38.0551 34.9789C37.9756 34.9576 37.8865 34.9469 37.7879 34.9469C37.6964 34.9469 37.6074 34.9534 37.5206 34.9664C37.4338 34.9794 37.3648 34.9924 37.3137 35.0053C37.279 35.0147 37.2616 35.0351 37.2616 35.0666V35.2921C37.2616 35.3107 37.2662 35.3237 37.2753 35.331C37.2844 35.3385 37.2963 35.3423 37.311 35.3423H37.3246L37.4069 35.3353C37.4398 35.3325 37.4768 35.3302 37.5179 35.3283C37.559 35.3265 37.6019 35.3251 37.6467 35.3241C37.6914 35.3232 37.7358 35.3227 37.7797 35.3227C37.8436 35.3227 37.8938 35.3348 37.9304 35.3589C37.9669 35.3831 37.9852 35.435 37.9852 35.5148V35.615H37.8372C37.6015 35.615 37.4301 35.6526 37.3233 35.7278C37.2164 35.8029 37.1629 35.9222 37.1629 36.0855V36.1106C37.1629 36.2015 37.1762 36.2776 37.2027 36.3388C37.2291 36.4001 37.2644 36.4493 37.3082 36.4864C37.3521 36.5235 37.4018 36.55 37.4576 36.5657C37.5133 36.5815 37.5714 36.5894 37.6316 36.5894C37.7139 36.5894 37.7847 36.5782 37.844 36.556C37.9034 36.5337 37.9596 36.5031 38.0126 36.4641V36.5086C38.0126 36.5235 38.0181 36.5365 38.0291 36.5476C38.04 36.5588 38.0528 36.5643 38.0674 36.5643H38.3744C38.389 36.5643 38.4018 36.5588 38.4128 36.5476C38.4238 36.5365 38.4292 36.5235 38.4292 36.5086V35.5148ZM37.8879 36.2315C37.9253 36.2195 37.9605 36.2051 37.9934 36.1884V35.8822H37.8372C37.7897 35.8822 37.7504 35.8864 37.7193 35.8947C37.6883 35.9031 37.6636 35.9156 37.6454 35.9323C37.6271 35.949 37.6143 35.9704 37.607 35.9963C37.5997 36.0223 37.596 36.052 37.596 36.0854V36.1105C37.596 36.1699 37.6101 36.2079 37.6385 36.2246C37.6668 36.2413 37.7102 36.2496 37.7687 36.2496C37.8107 36.2496 37.8504 36.2437 37.8879 36.2315ZM40.1066 36.5059V35.5788C40.1066 35.4917 40.0998 35.4095 40.0861 35.3325C40.0724 35.2555 40.0477 35.1887 40.0121 35.132C39.9765 35.0754 39.9271 35.0304 39.8641 34.997C39.8011 34.9636 39.7202 34.9469 39.6215 34.9469C39.5338 34.9469 39.4561 34.9577 39.3885 34.9792C39.3209 35.0007 39.2497 35.0385 39.1748 35.0928V35.0253C39.1748 35.0104 39.1692 34.9973 39.1583 34.986C39.1473 34.9748 39.1345 34.9692 39.1199 34.9692H38.813C38.7983 34.9692 38.7855 34.9747 38.7746 34.9859C38.7636 34.997 38.7582 35.01 38.7582 35.0248V36.5059C38.7582 36.5207 38.764 36.5342 38.776 36.5462C38.7878 36.5583 38.8011 36.5643 38.8157 36.5643H39.1473C39.162 36.5643 39.1748 36.5583 39.1857 36.5463C39.1967 36.5342 39.2021 36.5208 39.2021 36.506V35.4116C39.2497 35.3857 39.2944 35.3644 39.3365 35.3477C39.3785 35.331 39.4196 35.3227 39.4598 35.3227C39.5018 35.3227 39.5361 35.3269 39.5626 35.3353C39.589 35.3436 39.6096 35.3579 39.6242 35.3784C39.6388 35.3987 39.6489 35.4255 39.6544 35.4588C39.6598 35.4921 39.6626 35.5329 39.6626 35.5811V36.506C39.6626 36.5208 39.6681 36.5342 39.6791 36.5463C39.69 36.5583 39.7028 36.5643 39.7174 36.5643H40.0491C40.0637 36.5643 40.0769 36.5583 40.0888 36.5462C40.1007 36.5342 40.1066 36.5207 40.1066 36.5059ZM41.4551 36.2359V36.4836C41.4551 36.504 41.4505 36.5184 41.4414 36.5267C41.4322 36.5351 41.4176 36.542 41.3975 36.5476C41.3591 36.5569 41.3093 36.5662 41.2481 36.5755C41.1869 36.5847 41.1152 36.5894 41.0329 36.5894C40.8393 36.5894 40.6844 36.5291 40.5684 36.4084C40.4524 36.2878 40.3944 36.1133 40.3944 35.8851V35.6512C40.3944 35.423 40.4524 35.2485 40.5684 35.1279C40.6844 35.0072 40.8393 34.9469 41.0329 34.9469C41.1152 34.9469 41.1869 34.9515 41.2481 34.9608C41.3093 34.9701 41.3591 34.9794 41.3975 34.9886C41.4176 34.9942 41.4322 35.0012 41.4414 35.0095C41.4505 35.0179 41.4551 35.0323 41.4551 35.0527V35.3005C41.4551 35.3153 41.45 35.3269 41.44 35.3353C41.4299 35.3436 41.4176 35.3477 41.403 35.3477H41.3975C41.3463 35.3423 41.2975 35.3376 41.2509 35.3339C41.2043 35.3302 41.1417 35.3283 41.0631 35.3283C41.032 35.3283 41.0028 35.3334 40.9754 35.3436C40.948 35.3538 40.9242 35.3714 40.9042 35.3965C40.884 35.4216 40.8681 35.4549 40.8562 35.4967C40.8443 35.5385 40.8384 35.59 40.8384 35.6512V35.8851C40.8384 35.9463 40.8443 35.9978 40.8562 36.0396C40.8681 36.0813 40.884 36.1147 40.9042 36.1398C40.9242 36.1649 40.948 36.1825 40.9754 36.1927C41.0028 36.2029 41.032 36.208 41.0631 36.208C41.1417 36.208 41.2043 36.2061 41.2509 36.2024C41.2975 36.1987 41.3463 36.194 41.3975 36.1885H41.403C41.4176 36.1885 41.4299 36.1927 41.44 36.201C41.45 36.2094 41.4551 36.221 41.4551 36.2359ZM42.9764 35.6707C42.9764 35.5593 42.9612 35.4591 42.931 35.3701C42.9008 35.281 42.8569 35.2054 42.7992 35.1432C42.7415 35.081 42.6701 35.0327 42.585 34.9984C42.4999 34.9641 42.4014 34.9469 42.2898 34.9469C42.1781 34.9469 42.0797 34.9641 41.9945 34.9984C41.9094 35.0327 41.8375 35.081 41.779 35.1432C41.7203 35.2054 41.6759 35.281 41.6458 35.3701C41.6155 35.4591 41.6004 35.5593 41.6004 35.6707V35.8656C41.6004 35.9769 41.6155 36.0772 41.6458 36.1662C41.6759 36.2553 41.7203 36.3309 41.779 36.3931C41.8375 36.4553 41.9094 36.5035 41.9945 36.5379C42.0797 36.5722 42.1781 36.5894 42.2898 36.5894C42.4014 36.5894 42.4999 36.5722 42.585 36.5379C42.6701 36.5035 42.7415 36.4553 42.7992 36.3931C42.8569 36.3309 42.9008 36.2553 42.931 36.1662C42.9612 36.0772 42.9764 35.9769 42.9764 35.8656V35.6707ZM42.2898 36.208C42.4515 36.208 42.5323 36.0939 42.5323 35.8656V35.6707C42.5323 35.4443 42.4515 35.3311 42.2898 35.3311C42.2098 35.3311 42.149 35.3594 42.1072 35.416C42.0653 35.4726 42.0445 35.5575 42.0445 35.6707V35.8656C42.0445 35.9788 42.0653 36.0642 42.1072 36.1217C42.149 36.1793 42.2098 36.208 42.2898 36.208ZM44.607 36.5059V35.5788C44.607 35.4917 44.6001 35.4095 44.5865 35.3325C44.5728 35.2555 44.5481 35.1887 44.5124 35.132C44.4768 35.0754 44.4275 35.0304 44.3645 34.997C44.3014 34.9636 44.2205 34.9469 44.1219 34.9469C44.0342 34.9469 43.9565 34.9577 43.8889 34.9792C43.8213 35.0007 43.75 35.0385 43.6751 35.0928V35.0253C43.6751 35.0104 43.6697 34.9973 43.6586 34.986C43.6477 34.9748 43.6349 34.9692 43.6203 34.9692H43.3133C43.2987 34.9692 43.2859 34.9747 43.275 34.9859C43.264 34.997 43.2585 35.01 43.2585 35.0248V36.5059C43.2585 36.5207 43.2644 36.5342 43.2763 36.5462C43.2882 36.5583 43.3014 36.5643 43.3161 36.5643H43.6477C43.6623 36.5643 43.6751 36.5583 43.6861 36.5463C43.697 36.5342 43.7026 36.5208 43.7026 36.506V35.4116C43.75 35.3857 43.7948 35.3644 43.8368 35.3477C43.8789 35.331 43.92 35.3227 43.9602 35.3227C44.0022 35.3227 44.0365 35.3269 44.0629 35.3353C44.0894 35.3436 44.11 35.3579 44.1246 35.3784C44.1393 35.3987 44.1493 35.4255 44.1548 35.4588C44.1603 35.4921 44.163 35.5329 44.163 35.5811V36.506C44.163 36.5208 44.1685 36.5342 44.1794 36.5463C44.1904 36.5583 44.2032 36.5643 44.2178 36.5643H44.5494C44.5641 36.5643 44.5773 36.5583 44.5892 36.5462C44.6011 36.5342 44.607 36.5207 44.607 36.5059ZM45.8021 36.2967V36.5122C45.8021 36.5434 45.7848 36.5619 45.7501 36.5673C45.708 36.5747 45.6715 36.5802 45.6404 36.5839C45.6094 36.5876 45.5737 36.5894 45.5336 36.5894C45.459 36.5894 45.3932 36.5834 45.336 36.5713C45.2788 36.5593 45.231 36.5356 45.1929 36.5004C45.1548 36.4651 45.1257 36.4164 45.1057 36.3542C45.0858 36.292 45.0758 36.2118 45.0758 36.1134V35.3061L44.8566 35.2699C44.8419 35.2662 44.8287 35.2592 44.8168 35.249C44.8049 35.2388 44.799 35.2263 44.799 35.2114V35.0276C44.799 35.0129 44.8049 34.9994 44.8168 34.9873C44.8287 34.9753 44.8419 34.9692 44.8566 34.9692H45.0758V34.7409C45.0758 34.7261 45.0813 34.714 45.0921 34.7047C45.103 34.6955 45.1158 34.689 45.1303 34.6853L45.4626 34.6269H45.4708C45.4853 34.6269 45.4971 34.631 45.5062 34.6393C45.5153 34.6477 45.5198 34.6593 45.5198 34.6741V34.9692H45.7446C45.7592 34.9692 45.772 34.9748 45.783 34.986C45.7939 34.9972 45.7994 35.0104 45.7994 35.0253V35.2527C45.7994 35.2677 45.7939 35.2808 45.783 35.292C45.772 35.3032 45.7592 35.3088 45.7446 35.3088H45.5198V36.1189C45.5198 36.1746 45.5244 36.2104 45.5336 36.2261C45.5427 36.2419 45.5682 36.2498 45.6102 36.2498H45.7446C45.783 36.2498 45.8021 36.2654 45.8021 36.2967ZM47.2657 35.5148C47.2657 35.4128 47.2507 35.3259 47.2204 35.2545C47.1903 35.1831 47.1479 35.1246 47.0931 35.0791C47.0383 35.0337 46.9711 35.0003 46.8916 34.9789C46.8121 34.9576 46.7231 34.9469 46.6244 34.9469C46.5329 34.9469 46.4439 34.9534 46.3572 34.9664C46.2703 34.9794 46.2013 34.9924 46.1502 35.0053C46.1154 35.0147 46.0981 35.0351 46.0981 35.0666V35.2921C46.0981 35.3107 46.1026 35.3237 46.1118 35.331C46.121 35.3385 46.1328 35.3423 46.1474 35.3423H46.1611L46.2434 35.3353C46.2763 35.3325 46.3133 35.3302 46.3544 35.3283C46.3955 35.3265 46.4384 35.3251 46.4832 35.3241C46.528 35.3232 46.5723 35.3227 46.6161 35.3227C46.6801 35.3227 46.7303 35.3348 46.7669 35.3589C46.8034 35.3831 46.8217 35.435 46.8217 35.5148V35.615H46.6737C46.4379 35.615 46.2667 35.6526 46.1598 35.7278C46.0529 35.8029 45.9995 35.9222 45.9995 36.0855V36.1106C45.9995 36.2015 46.0127 36.2776 46.0392 36.3388C46.0656 36.4001 46.1009 36.4493 46.1447 36.4864C46.1886 36.5235 46.2383 36.55 46.2941 36.5657C46.3498 36.5815 46.4078 36.5894 46.4681 36.5894C46.5504 36.5894 46.6211 36.5782 46.6805 36.556C46.7399 36.5337 46.796 36.5031 46.8491 36.4641V36.5086C46.8491 36.5235 46.8546 36.5365 46.8656 36.5476C46.8765 36.5588 46.8893 36.5643 46.9039 36.5643H47.2109C47.2255 36.5643 47.2383 36.5588 47.2493 36.5476C47.2602 36.5365 47.2657 36.5235 47.2657 36.5086V35.5148ZM46.7244 36.2315C46.7618 36.2195 46.7971 36.2051 46.83 36.1884V35.8822H46.6737C46.6262 35.8822 46.5869 35.8864 46.5559 35.8947C46.5248 35.9031 46.5001 35.9156 46.4819 35.9323C46.4635 35.949 46.4507 35.9704 46.4435 35.9963C46.4362 36.0223 46.4325 36.052 46.4325 36.0854V36.1105C46.4325 36.1699 46.4466 36.2079 46.475 36.2246C46.5033 36.2413 46.5467 36.2496 46.6052 36.2496C46.6472 36.2496 46.6869 36.2437 46.7244 36.2315ZM48.6142 36.4836V36.2359C48.6142 36.221 48.6091 36.2094 48.5991 36.201C48.589 36.1927 48.5768 36.1885 48.5621 36.1885H48.5567C48.5055 36.194 48.4566 36.1987 48.41 36.2024C48.3634 36.2061 48.3008 36.208 48.2223 36.208C48.1912 36.208 48.1619 36.2029 48.1346 36.1927C48.1072 36.1825 48.0834 36.1649 48.0633 36.1398C48.0432 36.1147 48.0272 36.0813 48.0154 36.0396C48.0034 35.9978 47.9975 35.9463 47.9975 35.8851V35.6512C47.9975 35.59 48.0034 35.5385 48.0154 35.4967C48.0272 35.4549 48.0432 35.4216 48.0633 35.3965C48.0834 35.3714 48.1072 35.3538 48.1346 35.3436C48.1619 35.3334 48.1912 35.3283 48.2223 35.3283C48.3008 35.3283 48.3634 35.3302 48.41 35.3339C48.4566 35.3376 48.5055 35.3423 48.5567 35.3477H48.5621C48.5768 35.3477 48.589 35.3436 48.5991 35.3353C48.6091 35.3269 48.6142 35.3153 48.6142 35.3005V35.0527C48.6142 35.0323 48.6097 35.0179 48.6005 35.0095C48.5913 35.0012 48.5768 34.9942 48.5567 34.9886C48.5183 34.9794 48.4684 34.9701 48.4073 34.9608C48.346 34.9515 48.2744 34.9469 48.1921 34.9469C47.9983 34.9469 47.8436 35.0072 47.7275 35.1279C47.6115 35.2485 47.5535 35.423 47.5535 35.6512V35.8851C47.5535 36.1133 47.6115 36.2878 47.7275 36.4084C47.8436 36.5291 47.9983 36.5894 48.1921 36.5894C48.2744 36.5894 48.346 36.5847 48.4073 36.5755C48.4684 36.5662 48.5183 36.5569 48.5567 36.5476C48.5768 36.542 48.5913 36.5351 48.6005 36.5267C48.6097 36.5184 48.6142 36.504 48.6142 36.4836ZM49.7955 36.2967V36.5122C49.7955 36.5434 49.778 36.5619 49.7434 36.5673C49.7013 36.5747 49.6648 36.5802 49.6338 36.5839C49.6026 36.5876 49.567 36.5894 49.5269 36.5894C49.4523 36.5894 49.3865 36.5834 49.3293 36.5713C49.272 36.5593 49.2243 36.5356 49.1863 36.5004C49.1481 36.4651 49.119 36.4164 49.0991 36.3542C49.0791 36.292 49.0691 36.2118 49.0691 36.1134V35.3061L48.8499 35.2699C48.8352 35.2662 48.822 35.2592 48.8101 35.249C48.7982 35.2388 48.7923 35.2263 48.7923 35.2114V35.0276C48.7923 35.0129 48.7982 34.9994 48.8101 34.9873C48.822 34.9753 48.8352 34.9692 48.8499 34.9692H49.0691V34.7409C49.0691 34.7261 49.0746 34.714 49.0855 34.7047C49.0963 34.6955 49.109 34.689 49.1236 34.6853L49.4559 34.6269H49.4641C49.4786 34.6269 49.4905 34.631 49.4995 34.6393C49.5086 34.6477 49.5132 34.6593 49.5132 34.6741V34.9692H49.7379C49.7525 34.9692 49.7653 34.9748 49.7763 34.986C49.7872 34.9972 49.7927 35.0104 49.7927 35.0253V35.2527C49.7927 35.2677 49.7872 35.2808 49.7763 35.292C49.7653 35.3032 49.7525 35.3088 49.7379 35.3088H49.5132V36.1189C49.5132 36.1746 49.5177 36.2104 49.5269 36.2261C49.536 36.2419 49.5615 36.2498 49.6036 36.2498H49.7379C49.7763 36.2498 49.7955 36.2654 49.7955 36.2967Z" fill="#005697"/>
<path d="M48.2283 29.1134H43.7754L43.3225 29.6313L41.8529 31.3117V31.3118L41.4001 31.8296H37.006L37.4519 31.3052L37.6629 31.057L38.1088 30.5326H36.0841C35.7142 30.5326 35.4116 30.8478 35.4116 31.233V32.711C35.4116 33.0963 35.7142 33.4115 36.0841 33.4115H43.8354C44.2053 33.4115 44.7106 33.1774 44.9583 32.8912L46.1308 31.5367L48.2283 29.1134Z" fill="#005697"/>
<path d="M49.123 27.5335C49.4929 27.5335 49.7955 27.8487 49.7955 28.234V29.7119C49.7955 30.0971 49.4929 30.4124 49.123 30.4124H47.1049L47.555 29.8919H47.5551L47.7782 29.6339L48.2283 29.1134H43.7754L41.4001 31.8317H36.9788L40.1496 28.1902L40.2695 28.0524C40.5181 27.767 41.024 27.5335 41.3939 27.5335H49.123V27.5335Z" fill="#FBD500"/>
<rect x="60.4393" y="24.7001" width="22" height="15" rx="2" fill="white" stroke="#D9D9D9"/>
<path d="M74.9138 27.1926C77.6893 27.1928 79.9391 29.4062 79.9391 32.136C79.9389 34.8656 77.6891 37.0782 74.9138 37.0784C73.6692 37.0784 72.5308 36.6327 71.653 35.8958C70.7753 36.6323 69.6375 37.0784 68.3932 37.0784C65.6178 37.0782 63.3679 34.8648 63.3679 32.135C63.3681 29.4055 65.6179 27.1928 68.3932 27.1926C69.6373 27.1926 70.7754 27.6379 71.653 28.3743C72.5307 27.6376 73.6695 27.1926 74.9138 27.1926Z" fill="#ED0006"/>
<path d="M74.9133 27.1926C77.689 27.1926 79.9397 29.4061 79.9397 32.136C79.9394 34.8656 77.6888 37.0784 74.9133 37.0784C73.6688 37.0783 72.5313 36.6317 71.6536 35.8948C72.7333 34.9883 73.419 33.6416 73.4192 32.136C73.4192 30.63 72.7337 29.2819 71.6536 28.3752C72.5312 27.6385 73.669 27.1927 74.9133 27.1926Z" fill="#F9A000"/>
<path d="M71.6534 28.3745C72.7337 29.281 73.419 30.6291 73.4191 32.1352C73.4191 33.6413 72.7336 34.9893 71.6534 35.8959C70.5734 34.9893 69.8878 33.6412 69.8878 32.1352C69.8879 30.6292 70.5733 29.281 71.6534 28.3745Z" fill="#FF5E00"/>
<rect x="1.27258" y="48.0455" width="22" height="15" rx="2" fill="white" stroke="#D9D9D9"/>
<path fill-rule="evenodd" clip-rule="evenodd" d="M7.79775 58.3843H6.4044L5.35955 54.3404C5.30996 54.1544 5.20466 53.9899 5.04977 53.9124C4.66322 53.7176 4.23726 53.5626 3.77258 53.4844V53.3287H6.01717C6.32695 53.3287 6.55929 53.5626 6.59801 53.8342L7.14014 56.7512L8.53281 53.3287H9.88744L7.79775 58.3843ZM10.6619 58.3843H9.34599L10.4296 53.3287H11.7455L10.6619 58.3843ZM13.4479 54.7293C13.4867 54.457 13.719 54.3013 13.9901 54.3013C14.416 54.2622 14.88 54.3404 15.2672 54.5345L15.4996 53.446C15.1124 53.2903 14.6864 53.2121 14.2998 53.2121C13.0227 53.2121 12.0933 53.9124 12.0933 54.8843C12.0933 55.6236 12.7516 56.0119 13.2163 56.2457C13.719 56.4789 13.9126 56.6346 13.8739 56.8678C13.8739 57.2176 13.4867 57.3733 13.1001 57.3733C12.6354 57.3733 12.1708 57.2567 11.7455 57.0619L11.5131 58.1511C11.9778 58.3452 12.4805 58.4234 12.9452 58.4234C14.3773 58.4618 15.2672 57.7622 15.2672 56.7121C15.2672 55.3898 13.4479 55.3123 13.4479 54.7293V54.7293ZM19.8726 58.3843L18.8277 53.3287H17.7055C17.4731 53.3287 17.2408 53.4844 17.1633 53.7176L15.2285 58.3843H16.5832L16.8535 57.6456H18.518L18.6729 58.3843H19.8726ZM17.899 54.6902L18.2856 56.5955H17.202L17.899 54.6902Z" fill="#172B85"/>
<rect x="31.2726" y="48.0455" width="22" height="15" rx="2" fill="white" stroke="#D9D9D9"/>
<path d="M45.5602 53.5054C46.3747 53.5055 47.1424 54.25 47.1472 55.6158C47.1472 57.1091 46.3886 57.7877 45.5554 57.7877C45.1458 57.7876 44.8987 57.6133 44.7311 57.4908L44.7272 58.8238L43.5632 59.0738V53.5806H44.5876L44.6481 53.8736C44.811 53.7229 45.1041 53.5054 45.5602 53.5054ZM35.6315 53.5054C36.0178 53.5054 36.3995 53.5668 36.7858 53.7222V54.8297C36.4321 54.6365 35.9853 54.5279 35.6315 54.5279C35.3849 54.5279 35.236 54.5991 35.236 54.7828C35.237 55.3098 37.0097 55.061 37.0143 56.4644C37.0142 57.3073 36.3484 57.7924 35.3806 57.7926C34.9802 57.7926 34.542 57.7124 34.1091 57.524V56.4029C34.5001 56.6196 34.9942 56.7799 35.3806 56.7799C35.6409 56.7798 35.8266 56.709 35.8268 56.4928C35.8268 55.9322 34.0583 56.1386 34.0583 54.8385C34.0585 54.0049 34.6868 53.5055 35.6315 53.5054ZM38.3776 53.5855H39.2624V54.5894H38.3776V56.2613C38.3776 56.9584 39.1134 56.7425 39.2624 56.6812V57.6373C39.1088 57.7221 38.8295 57.7925 38.4479 57.7926C37.759 57.7926 37.2419 57.2788 37.2419 56.5816L37.2468 52.8082L38.3825 52.564L38.3776 53.5855ZM49.1354 53.5054C50.2383 53.5057 50.8151 54.4579 50.8151 55.6637C50.8151 55.7769 50.8063 56.0214 50.8063 56.0826H48.53C48.5812 56.6384 48.9818 56.7984 49.4333 56.7984C49.8937 56.7984 50.2566 56.6996 50.5729 56.5396V57.482C50.2565 57.6609 49.8375 57.7877 49.2839 57.7877C48.1482 57.7876 47.3571 57.0717 47.3571 55.6539C47.3571 54.4574 48.0276 53.5054 49.1354 53.5054ZM40.7097 53.9342C40.9843 53.4255 41.5295 53.529 41.6784 53.5855V54.6695C41.5341 54.6177 41.0683 54.5519 40.7936 54.9146V57.7076H39.6296V53.5855H40.6354L40.7097 53.9342ZM43.1306 57.7076H41.9616V53.5855H43.1306V57.7076ZM45.2809 54.5513C45.0156 54.5513 44.8483 54.6462 44.7272 54.7828L44.7311 56.5299C44.8429 56.6523 45.0063 56.7515 45.2809 56.7515C45.7091 56.7514 45.9977 56.2802 45.9977 55.649C45.9977 55.032 45.7044 54.5514 45.2809 54.5513ZM49.1306 54.4625C48.8374 54.4625 48.5164 54.6833 48.5163 55.2154H49.7165C49.7164 54.6835 49.4144 54.4626 49.1306 54.4625ZM43.1306 52.9732L41.9616 53.2281V52.2672L43.1306 52.0172V52.9732Z" fill="#6461FC"/>
<rect x="61.2726" y="48.0455" width="22.3333" height="15" rx="2" fill="white" stroke="#D9D9D9"/>
<path d="M72.8243 52.5455C73.3034 52.5455 73.7572 52.6544 74.1613 52.8472C74.2247 52.8765 74.2883 52.9083 74.3517 52.9439L74.0704 53.189L73.6486 52.7642L72.9357 53.3824L72.5128 52.9332L71.1857 54.0972L72.0372 55.0103L71.7023 55.2964L72.5402 56.2095L72.2081 56.4957L73.4054 57.7925L74.1163 57.1558L74.7306 57.8384C74.6084 57.9309 74.4749 58.0178 74.3282 58.0982C73.884 58.3448 73.3707 58.4859 72.8243 58.4859C71.1437 58.4859 69.7727 57.1519 69.7726 55.5162C69.7726 53.88 71.1436 52.5455 72.8243 52.5455ZM75.5607 57.0874L75.0157 57.564L74.5265 57.0347L75.0704 56.5572L75.5607 57.0874ZM74.1632 56.6187L73.4376 57.2554L72.7843 56.5484L73.5099 55.9126L74.1632 56.6187ZM75.0822 56.0171L74.5372 56.4937L74.047 55.9644L74.5919 55.4869L75.0822 56.0171ZM73.6466 55.399L72.921 56.0347L72.2677 55.3277L72.9933 54.6919L73.6466 55.399ZM75.8986 55.6665L75.5363 55.9839L75.2091 55.6314L75.5724 55.313L75.8986 55.6665ZM74.6163 54.898L74.0724 55.3746L73.5822 54.8453L74.1261 54.3677L74.6163 54.898ZM75.4347 54.6167L75.0724 54.9351L74.7452 54.5816L75.1085 54.2642L75.4347 54.6167ZM73.1281 54.1919L72.4025 54.8287L71.7491 54.1216L72.4747 53.4859L73.1281 54.1919ZM74.1144 53.8326L73.5704 54.3091L73.0802 53.7798L73.6241 53.3023L74.1144 53.8326ZM74.9708 53.5679L74.6085 53.8863L74.2814 53.5328L74.6447 53.2144L74.9708 53.5679Z" fill="#0068A3"/>
</svg>
