<svg width="24" height="17" viewBox="0 0 24 17" fill="none" xmlns="http://www.w3.org/2000/svg">
<rect x="1.43927" y="1.29984" width="22" height="15" rx="2" fill="white" stroke="#D9D9D9"/>
<path d="M11.215 10.0371C11.169 10.0612 11.1173 10.0751 11.0623 10.0751C10.9349 10.0751 10.8242 10.0024 10.7661 9.89467L10.7439 9.84411L9.81667 7.73103C9.80667 7.70806 9.80047 7.68206 9.80047 7.65676C9.80047 7.55938 9.8765 7.48048 9.97027 7.48048C10.0083 7.48048 10.0435 7.49358 10.0718 7.51544L11.166 8.32452C11.2459 8.37878 11.3414 8.41062 11.4441 8.41062C11.5054 8.41062 11.5638 8.39879 11.6183 8.37818L16.7635 5.99984C15.8413 4.87097 14.3223 4.13316 12.6035 4.13316C9.79071 4.13316 7.51071 6.10654 7.51071 8.541C7.51071 9.86904 8.19668 11.0646 9.27041 11.8727C9.35652 11.9365 9.41293 12.0415 9.41293 12.1599C9.41293 12.1991 9.40485 12.2348 9.39498 12.2722C9.30923 12.6044 9.17198 13.1364 9.1656 13.1614C9.15488 13.203 9.13818 13.2466 9.13818 13.2902C9.13818 13.3876 9.21414 13.4665 9.30805 13.4665C9.34484 13.4665 9.37497 13.4523 9.40606 13.4337L10.521 12.7651C10.6049 12.7149 10.6936 12.6837 10.7915 12.6837C10.8435 12.6837 10.8938 12.6921 10.9411 12.7071C11.4612 12.8625 12.0224 12.9488 12.6035 12.9488C15.4161 12.9488 17.6964 10.9753 17.6964 8.541C17.6964 7.80364 17.486 7.10921 17.1163 6.49834L11.2523 10.0147L11.215 10.0371Z" fill="#1AAD19"/>
</svg>
