<svg width="81" height="76" viewBox="0 0 81 76" fill="none" xmlns="http://www.w3.org/2000/svg">
<path d="M26.7315 7.68201C27.4624 7.37099 28.1821 7.02991 28.9262 6.75328C32.0554 5.59218 35.3016 4.96853 38.6257 4.78913C42.4304 4.58383 46.1675 5.04226 49.8178 6.1486C53.8437 7.36879 57.5102 9.28675 60.8148 11.8944C63.6787 14.1543 66.1009 16.8219 68.0943 19.8792C68.2288 20.0856 68.4404 20.2711 68.2622 20.5862C68.1895 20.7152 68.2608 20.9266 68.2672 21.1363C68.4565 21.0974 68.6129 21.0654 68.8239 21.0218C69.2879 21.8909 69.7567 22.767 70.2501 23.6913C69.7887 23.7562 69.4011 23.8307 69.0114 23.8515C68.9106 23.8572 68.7632 23.7182 68.7009 23.6089C68.0803 22.5189 67.5241 21.3881 66.8465 20.3361C66.2655 19.4342 65.5724 18.6004 64.8903 17.7681C61.6691 13.8365 57.7271 10.8463 53.0861 8.78833C49.4412 7.17282 45.6235 6.28829 41.6394 6.11608C39.4526 6.02148 37.2881 6.19606 35.1231 6.49802C33.6838 6.69876 32.2906 7.07431 30.9188 7.50859C29.5448 7.94394 28.1845 8.45527 26.8789 9.06463C25.5632 9.67926 24.2966 10.4135 23.0539 11.1698C21.3823 12.1886 19.8792 13.436 18.4451 14.7701C17.4925 15.6561 16.6193 16.6144 15.8039 17.6223C15.5298 17.9618 15.283 18.1345 14.8643 17.9488C14.7986 17.9195 14.7181 17.9223 14.6252 17.9076C14.4196 18.2366 14.6228 18.5483 14.6404 18.8598C14.6452 18.9486 14.657 19.0596 14.6122 19.1245C14.2074 19.723 13.7906 20.3131 13.3544 20.9399C13.0726 20.7103 12.8237 20.8672 12.7018 21.1065C12.6437 21.2195 12.8181 21.452 12.9133 21.697C11.8504 23.5074 10.8775 25.4764 10.2127 27.578C9.78896 28.9182 9.46047 30.2898 9.09868 31.6491C9.03979 31.8711 8.89887 31.9696 8.74469 32.1216C8.40198 32.4607 7.99304 32.3175 7.56758 32.5116C7.69493 31.8618 7.7965 31.2697 7.929 30.684C8.93269 26.2551 10.7576 22.1967 13.4098 18.5128C15.3217 15.8563 17.5799 13.5385 20.1718 11.5464C20.31 11.4398 20.4625 11.3358 20.6256 11.2797C20.9458 11.1699 21.3149 11.1442 21.3595 10.689C21.3634 10.646 21.4521 10.6088 21.5041 10.573C23.0963 9.48282 24.7695 8.53559 26.5235 7.73053C26.5915 7.69937 26.6691 7.68693 26.7416 7.66594C26.7277 7.69874 26.7098 7.73057 26.7008 7.76501C26.6688 7.88215 26.6399 7.99963 26.6094 8.11731C26.7261 8.131 26.867 8.19143 26.954 8.14757C27.0798 8.08361 27.1662 7.94263 27.2696 7.83474C27.1882 7.76517 27.1156 7.66505 27.0222 7.63575C26.937 7.60993 26.8282 7.66302 26.7297 7.67995L26.7315 7.68201ZM23.0257 10.8266C23.2842 10.5404 23.547 10.2573 23.7891 9.95791C23.8036 9.94044 23.6625 9.72573 23.573 9.70822C23.3213 9.65874 22.7055 10.0986 22.6214 10.3496C22.5239 10.6418 22.649 10.7978 23.0257 10.8266ZM29.1429 7.34697C29.576 7.57463 29.9808 7.54552 30.2174 7.2299C30.3037 7.11516 30.336 6.88998 30.2825 6.76171C30.2458 6.67584 30.0088 6.62197 29.8728 6.64031C29.4852 6.69324 29.2718 6.96625 29.1429 7.34697ZM8.45916 30.331C8.87012 30.4337 9.15191 30.3131 9.16095 29.9994C9.16497 29.8746 9.02055 29.6743 8.89987 29.6318C8.70224 29.5624 8.47808 29.9287 8.45916 30.331ZM36.97 5.91056C37.0712 5.74822 37.1643 5.6495 37.1869 5.53601C37.1949 5.49476 37.0097 5.35416 36.954 5.37433C36.844 5.4137 36.7631 5.53385 36.6705 5.62015C36.7517 5.69901 36.8328 5.77787 36.97 5.91056Z" fill="#FF8080"/>
<path d="M34.4762 70.6449C34.6401 70.4799 34.7692 70.3746 34.8663 70.2437C34.935 70.1515 34.9582 70.0263 35.002 69.916C34.867 69.8648 34.7123 69.7446 34.6012 69.7764C34.3912 69.8375 34.1742 69.9537 34.0169 70.1054C33.6934 70.417 33.3692 70.4603 32.9298 70.3577C28.6915 69.3687 24.7904 67.628 21.231 65.1248C19.1463 63.6588 17.2505 61.9757 15.5591 60.0648C15.5261 60.0278 15.4986 59.9854 15.4854 59.968C15.8285 59.6976 16.1648 59.4335 16.4794 59.1848C17.407 60.0759 18.3491 61.0545 19.3674 61.9451C23.9409 65.9444 29.2338 68.4331 35.2225 69.4306C35.6096 69.495 36.0025 69.5293 36.3886 69.5977C36.6199 69.6385 36.8944 69.5536 36.9918 69.945C37.0417 70.147 37.3221 70.0606 37.5061 69.9174C37.6157 69.8318 37.7742 69.7486 37.9047 69.7573C40.3831 69.9266 42.8474 69.8256 45.3027 69.4474C45.4504 69.4243 45.6234 69.4995 45.772 69.5596C46.0243 69.6615 46.2285 69.6791 46.3566 69.3803C46.3839 69.317 46.464 69.251 46.5316 69.2338C47.2447 69.0541 47.9606 68.8833 48.676 68.7141C48.7468 68.6972 48.8401 68.6818 48.8961 68.7132C49.1246 68.8431 49.2348 68.7343 49.4056 68.5745C49.5683 68.4228 49.8319 68.3703 50.0581 68.2976C53.6954 67.1369 57.0072 65.3637 59.9985 62.9915C64.1646 59.6873 67.303 55.5847 69.4537 50.7214C69.7049 50.153 69.9258 49.5719 70.1727 48.9671C70.4668 49.0824 70.7075 48.976 70.7544 48.6685C70.7747 48.5338 70.6023 48.3698 70.5081 48.2032C70.8517 46.7863 71.2097 45.2957 71.5821 43.8091C71.6049 43.7195 71.7347 43.6133 71.8305 43.5937C72.19 43.5216 72.5557 43.4833 73.0035 43.4204C72.8651 44.1287 72.7361 44.7887 72.6022 45.4741C72.3888 45.4401 72.2077 45.4115 71.991 45.3764C71.9142 45.7776 71.9305 46.124 72.1797 46.4508C72.2459 46.5379 72.2741 46.7006 72.2447 46.8089C71.4073 49.8791 70.1428 52.7647 68.4675 55.4666C66.2556 59.0339 63.4706 62.0792 60.112 64.5933C57.3399 66.6679 54.3316 68.3104 51.0326 69.3642C49.3813 69.8918 47.6773 70.2531 45.9966 70.6861C45.8628 70.7203 45.722 70.727 45.5884 70.7458C45.346 70.2205 45.2662 70.2225 44.8212 70.6067C44.6338 70.7688 44.3803 70.9209 44.1423 70.9474C40.9752 71.3069 37.8155 71.248 34.6711 70.6954C34.6253 70.6872 34.5808 70.6719 34.4744 70.6436L34.4762 70.6449ZM65.8689 57.8107C66.3115 57.9035 66.5653 57.7915 66.5708 57.4636C66.573 57.3368 66.425 57.1384 66.3017 57.0941C66.1137 57.0271 65.8779 57.4259 65.8689 57.8107ZM68.2338 53.661C68.0992 53.9414 67.9972 54.1031 67.952 54.28C67.9397 54.3295 68.1565 54.4919 68.1649 54.4853C68.3243 54.3434 68.4759 54.1894 68.6037 54.0194C68.6134 54.0065 68.4297 53.8495 68.2339 53.6617L68.2338 53.661ZM32.4797 69.2259C32.1842 69.2659 31.9294 69.3318 31.8988 69.6617C31.8959 69.6906 32.1464 69.7966 32.2593 69.773C32.5329 69.7145 32.6866 69.5533 32.4797 69.2259V69.2259ZM53.9053 67.2331L53.963 67.4194C54.1431 67.4134 54.324 67.4073 54.5041 67.4012L54.477 66.8419C54.4355 66.8261 54.3934 66.8112 54.3519 66.7954C54.203 66.9413 54.0541 67.0865 53.9052 67.2324L53.9053 67.2331Z" fill="#FF8080"/>
<path d="M21.5262 52.0137L21.3419 50.7026C21.4852 50.6755 21.6163 50.644 21.7492 50.6253C35.0309 48.7579 48.3137 46.8926 61.5942 45.0162C61.974 44.9628 62.0696 45.0728 62.1082 45.4246C62.2032 46.2923 62.2197 46.2946 61.3552 46.4161C50.2878 47.9715 39.221 49.5253 28.1536 51.0799C26.1059 51.3677 24.0585 51.657 22.0109 51.9455C21.8629 51.9663 21.715 51.9871 21.5262 52.0137V52.0137ZM35.4945 50.0019C35.9577 49.5179 35.9769 49.3363 35.6254 48.9174C35.1162 49.2165 35.0604 49.6194 35.4945 50.0019ZM28.075 50.7893C28.31 50.6205 28.6467 50.5562 28.5349 50.1885C28.5148 50.1219 28.1979 50.0584 28.1005 50.1215C27.8598 50.2772 27.8336 50.5177 28.075 50.7893ZM31.6125 49.9203C31.655 49.9274 31.6975 49.9338 31.7401 49.9409C31.7743 49.8281 31.8703 49.6727 31.8279 49.6123C31.7642 49.521 31.6059 49.4954 31.4876 49.4426C31.465 49.4735 31.4424 49.5045 31.4206 49.5361C31.4849 49.6644 31.5482 49.792 31.6125 49.9203Z" fill="#FF8080"/>
<path d="M59.2615 25.2201L18.5853 30.9368L18.4063 29.6628C18.5383 29.638 18.6807 29.6049 18.8249 29.5846C28.4881 28.2281 38.1523 26.873 47.8153 25.5157C51.4214 25.0089 55.0284 24.5035 58.6323 23.9808C59.002 23.9273 59.1364 24.0234 59.1496 24.3857C59.1589 24.649 59.218 24.9107 59.2615 25.2201ZM47.8028 26.1933C47.9501 26.009 48.0462 25.8875 48.1432 25.7667C48.0469 25.7061 47.9222 25.5748 47.8587 25.5999C47.715 25.6563 47.6005 25.7897 47.4747 25.8915C47.5623 25.9725 47.6499 26.0535 47.8021 26.1942L47.8028 26.1933Z" fill="#FF8080"/>
<path d="M65.2391 51.8184L65.3172 52.3737C65.4137 52.381 65.5094 52.3884 65.6239 52.3977C65.6099 52.446 65.6048 52.4969 65.5818 52.5363C64.5839 54.2836 63.4121 55.9056 62.0763 57.4072C60.7211 58.93 59.2309 60.3075 57.5855 61.5131C57.3195 61.7079 57.0526 61.9012 56.7768 62.0812C56.5497 62.2288 56.3655 62.4576 56.0085 62.3064C55.8825 62.2531 55.5771 62.4249 55.4613 62.5762C54.542 63.787 53.1265 64.1796 51.8514 64.7978C51.4953 64.9705 51.0873 65.0317 50.7137 65.1729C50.1757 65.3766 49.6587 65.6429 49.1122 65.8192C47.0404 66.4884 44.9177 66.9217 42.7447 67.079C41.8552 67.1431 40.9619 67.1915 40.07 67.1841C39.1457 67.1759 38.2187 67.1265 37.2998 67.0311C36.3935 66.9378 35.4889 66.7957 34.5953 66.6173C33.7018 66.4397 32.8107 66.2293 31.9382 65.9655C28.3287 64.875 25.0435 63.1565 22.0953 60.795C20.3141 59.3681 18.7106 57.7651 17.3174 55.955C17.1884 55.7872 17.1028 55.5562 17.0786 55.3459C17.0512 55.1068 16.9529 54.994 16.7452 54.8967C16.5639 54.8119 16.3657 54.6885 16.2605 54.5266C15.6619 53.604 15.0887 52.6646 14.5012 51.7219C15.1132 51.4638 15.1757 51.4867 15.45 51.9643C18.8725 57.9252 23.7762 62.1704 30.1776 64.6468C35.0092 66.516 40.0037 66.9859 45.0988 66.1063C50.99 65.0893 56.077 62.4596 60.3481 58.2588C60.578 58.032 60.8683 57.8624 61.0776 57.6201C61.5621 57.0575 62.0434 56.4883 62.4711 55.8828C63.3498 54.6406 64.1927 53.3734 65.0492 52.1159C65.0977 52.0443 65.1418 51.9694 65.2374 51.8171L65.2391 51.8184Z" fill="#FF8080"/>
<path d="M46.0392 60.5035C45.258 60.2152 44.5633 59.978 43.8859 59.6998C43.5362 59.5561 43.2654 59.5579 42.9548 59.8075C42.3736 60.2742 41.7569 60.6965 41.077 61.1947C41.0829 60.8637 41.0819 60.61 41.094 60.3568C41.1214 59.7736 41.1682 59.1915 41.1778 58.6084C41.1801 58.4878 41.0825 58.3248 40.9811 58.2496C40.3577 57.791 39.7202 57.3529 39.0877 56.9063C39.0397 56.8722 38.9976 56.8295 38.8994 56.7446C39.6986 56.5258 40.4348 56.302 41.1828 56.1289C41.5251 56.05 41.6875 55.8852 41.784 55.553C41.9949 54.8236 42.2491 54.1067 42.5099 53.3109C42.8761 53.8512 43.2113 54.3356 43.5359 54.8262C44.0951 55.6711 44.0924 55.6683 45.0958 55.6423C45.6858 55.6272 46.2767 55.6298 46.9564 55.623C46.4212 56.2799 45.9511 56.8745 45.4602 57.4519C45.2475 57.7024 45.1528 57.9163 45.2974 58.2601C45.5372 58.8321 45.7049 59.4342 45.9003 60.0247C45.9432 60.1544 45.9772 60.287 46.0399 60.5026L46.0392 60.5035ZM44.8386 57.4606C44.9872 57.28 45.0884 57.1562 45.1903 57.0323C45.0785 56.9709 44.9459 56.8383 44.8611 56.8649C44.7282 56.9052 44.628 57.0527 44.5138 57.1552C44.6034 57.239 44.6922 57.323 44.8394 57.4612L44.8386 57.4606Z" fill="#FF8080"/>
<path d="M37.0465 14.5431C37.5301 15.2451 37.985 15.8902 38.423 16.5469C38.5613 16.7535 38.6969 16.8578 38.971 16.8471C39.7767 16.8164 40.5841 16.831 41.4891 16.8273C41.0024 17.4349 40.6036 18.0048 40.1291 18.502C39.7707 18.8771 39.7191 19.2061 39.9145 19.6762C40.1762 20.3053 40.3586 20.9678 40.6045 21.7039C40.0196 21.4922 39.485 21.3644 39.017 21.1131C38.2501 20.7025 37.6227 20.7629 36.9903 21.3802C36.6139 21.7479 36.1367 22.0124 35.7037 22.3225C35.6953 22.3283 35.6793 22.3244 35.6137 22.329C35.641 21.674 35.6146 21.015 35.7094 20.3745C35.7977 19.7757 35.6148 19.4165 35.0985 19.1233C34.5932 18.8364 34.1353 18.4656 33.6584 18.1292C33.602 18.0892 33.5565 18.0339 33.4596 17.9418C34.143 17.7532 34.7649 17.5385 35.4053 17.4161C35.9759 17.3074 36.3003 17.0627 36.4285 16.4623C36.5656 15.8219 36.825 15.2076 37.0449 14.5426L37.0465 14.5431ZM38.4144 18.584C38.641 18.4766 38.8612 18.3723 39.0055 18.3034C39.1293 18.4496 39.2238 18.64 39.2982 18.6326C39.4448 18.6182 39.6129 18.5213 39.7123 18.407C39.7931 18.3139 39.8094 18.1449 39.8097 18.0099C39.8101 17.9034 39.7618 17.7242 39.6993 17.7068C39.6041 17.6808 39.4161 17.735 39.3775 17.8107C39.2575 18.0474 39.09 18.0223 38.8768 18.0068C38.4885 17.9772 38.3553 18.1526 38.4136 18.5841L38.4144 18.584Z" fill="#FF8080"/>
<path d="M66.0247 24.2573C65.383 24.4139 65.3865 24.4118 65.0912 23.894C64.9093 23.5747 64.7222 23.2569 64.5254 22.9467C64.3413 22.6555 64.0996 22.3824 64.489 21.9319C63.8026 22.0769 63.6707 21.604 63.4188 21.2799C62.8426 20.5385 62.263 19.7999 61.7279 19.1152C61.7514 18.9043 61.7708 18.7303 61.7901 18.5556C61.6168 18.5437 61.4435 18.5325 61.204 18.5161C60.5005 17.8542 59.745 17.1025 58.9465 16.4008C56.4331 14.1912 53.6099 12.478 50.4773 11.3135C49.1272 10.812 47.7185 10.4692 46.3333 10.0636C46.0957 9.99443 45.8489 9.97511 45.9236 9.61899C45.9347 9.56651 45.837 9.49074 45.7894 9.42569C45.7291 9.4789 45.6497 9.5217 45.6144 9.58838C45.574 9.66272 45.5736 9.75844 45.5448 9.89827C45.108 9.74364 44.589 9.91302 44.3078 9.53902C44.0191 9.56108 43.7867 9.60608 43.5583 9.59189C42.3996 9.52098 41.2419 9.43527 40.0887 9.35432C40.1287 9.17357 40.1742 8.97122 40.2204 8.76336C50.6911 8.5393 61.162 14.7764 66.0247 24.2573V24.2573Z" fill="#FF8080"/>
<path d="M46.9409 14.1403C47.3832 14.7948 47.7742 15.3525 48.1404 15.9259C48.2726 16.1326 48.4188 16.2139 48.662 16.2075C49.3646 16.189 50.0682 16.1934 50.8483 16.1887C50.4711 16.6607 50.1567 17.1191 49.7753 17.5114C49.3785 17.9205 49.2493 18.299 49.5143 18.8481C49.7487 19.3328 49.8656 19.8741 50.0635 20.4766C49.4545 20.2582 48.8966 20.1014 48.3783 19.8594C47.8963 19.6348 47.528 19.6711 47.123 20.0274C46.6983 20.4018 46.2104 20.7049 45.6773 21.0923C45.6905 20.6654 45.6457 20.2975 45.7226 19.9572C45.9462 18.9676 45.6429 18.2835 44.7038 17.8577C44.3781 17.7099 44.1064 17.4418 43.7372 17.1758C44.4528 16.9811 45.0898 16.7967 45.7329 16.6392C46.041 16.5635 46.2303 16.4366 46.3183 16.0986C46.4808 15.4741 46.7065 14.8668 46.9416 14.1402L46.9409 14.1403ZM47.5722 18.7862C47.2345 18.947 47.0346 19.2668 47.1836 19.4287C47.25 19.5011 47.4722 19.537 47.5386 19.4837C47.7919 19.2807 47.7258 19.03 47.5722 18.7862V18.7862Z" fill="#FF8080"/>
<path d="M36.7235 57.7486C36.2382 58.3553 35.827 58.9022 35.3769 59.4145C35.1837 59.6337 35.1853 59.8202 35.272 60.0649C35.4941 60.6972 35.7022 61.3345 35.9418 62.0476C35.3723 61.8414 34.8458 61.7056 34.3724 61.4651C33.8003 61.1744 33.3591 61.2348 32.8874 61.6699C32.4928 62.034 32.0183 62.312 31.5331 62.6618C31.5685 61.9494 31.5925 61.2926 31.6406 60.6378C31.6487 60.5309 31.7912 60.4384 31.8171 60.3267C31.8567 60.1538 31.8493 59.9696 31.8618 59.7904C31.7205 59.7987 31.5791 59.8116 31.4378 59.8138C31.3279 59.8153 31.1915 59.8422 31.1118 59.7901C30.6266 59.4711 30.1546 59.1316 29.6033 58.7477C30.1648 58.5901 30.6472 58.4012 31.1473 58.3278C31.8331 58.2276 32.2064 57.8981 32.3365 57.2071C32.4246 56.7388 32.6259 56.2916 32.7766 55.8353C32.7797 55.8248 32.7933 55.8175 32.8539 55.7558C33.1459 56.3373 33.6907 56.7298 33.7961 57.4302C33.8175 57.5714 34.2182 57.7381 34.4516 57.75C35.1827 57.7861 35.9175 57.7546 36.7243 57.7485L36.7235 57.7486Z" fill="#FF8080"/>
<path d="M49.1838 55.9814C49.9658 55.7659 50.6512 55.5916 51.3252 55.3804C51.475 55.3339 51.6352 55.181 51.7011 55.0359C51.837 54.7376 51.8849 54.3991 52.0201 54.1008C52.1547 53.8042 52.3527 53.5364 52.5596 53.1956C52.9476 53.7645 53.2748 54.274 53.6375 54.7568C53.7305 54.8811 53.9318 54.9878 54.0864 54.9923C54.7936 55.0117 55.5024 54.9924 56.3068 54.9858C55.7883 55.6303 55.3266 56.2075 54.8572 56.7788C54.8243 56.8189 54.7303 56.829 54.6691 56.8206C54.2069 56.7591 54.0487 56.9595 54.2128 57.431C54.4054 57.3445 54.5965 57.2575 54.813 57.1599C55.0474 57.8637 55.2719 58.535 55.5209 59.2823C54.9621 59.0808 54.4351 58.9473 53.9632 58.7066C53.3901 58.4145 52.9434 58.4796 52.4706 58.9063C52.0791 59.2599 51.6192 59.5375 51.1903 59.8493C51.1515 59.8362 51.1119 59.8233 51.0731 59.8102C51.1499 59.3651 51.23 58.921 51.3004 58.4744C51.3137 58.3885 51.2976 58.2958 51.2815 58.2086C51.2645 58.1146 51.1944 58.0157 51.212 57.9329C51.2978 57.5351 51.1265 57.3085 50.7943 57.1029C50.2682 56.778 49.7766 56.3973 49.1844 55.9806L49.1838 55.9814Z" fill="#FF8080"/>
<path d="M15.2 24.329C15.1394 24.1446 15.0866 23.9823 15.0329 23.8194C14.9467 23.9626 14.8717 24.1136 14.7709 24.2458C14.6903 24.3513 14.5785 24.4325 14.4054 24.4715C14.5801 24.1476 14.7489 23.8207 14.9304 23.5013C16.3591 20.9899 18.1209 18.7395 20.209 16.7449C20.3732 16.5876 20.5177 16.4925 20.7657 16.5479C21.0582 16.6132 21.3537 16.5902 21.5382 16.221C21.4181 16.1391 21.2904 16.0521 21.1056 15.9261C26.4483 11.3294 32.6331 8.97737 39.6625 8.77328C39.3788 9.09937 39.164 9.44973 38.6213 9.47817C34.1615 9.70686 29.9965 10.9642 26.1219 13.1759C23.2993 14.7869 20.8334 16.8377 18.7054 19.2985C18.5855 19.4372 18.3951 19.518 18.2298 19.6129C18.0161 19.7356 17.8029 19.8404 17.9009 20.1599C17.922 20.2279 17.8542 20.3369 17.8037 20.4104C17.1811 21.3218 16.6002 22.2668 15.9081 23.1224C15.6005 23.5028 15.564 24.0047 15.2017 24.3303L15.2 24.329Z" fill="#FF8080"/>
<path d="M27.364 16.907C27.7959 17.5475 28.1844 18.0824 28.5241 18.6472C28.6898 18.9225 28.8894 18.9785 29.1775 18.9689C29.8444 18.9477 30.5117 18.9511 31.2721 18.9437C30.7642 19.5752 30.3079 20.1416 29.853 20.707C29.3116 20.3449 29.1314 20.3609 28.6748 20.8486C28.4432 21.0957 28.2416 21.3709 28.0228 21.6385C28.6858 21.9295 29.1669 21.8025 29.7738 21.1571C29.876 21.4459 29.9691 21.7083 30.048 21.9302C29.9556 22.0728 29.8873 22.178 29.8189 22.2833C29.9137 22.3224 30.0121 22.3541 30.1014 22.4033C30.159 22.4353 30.2265 22.4829 30.2483 22.5393C30.3249 22.7391 30.3839 22.9453 30.4793 23.2405C29.8987 23.032 29.3607 22.8962 28.8789 22.6515C28.3242 22.3692 27.9026 22.4593 27.4522 22.8543C27.0458 23.2108 26.5806 23.5006 26.0839 23.8613C26.1169 23.0829 26.1589 22.368 26.1662 21.6533C26.1676 21.5096 26.0741 21.3152 25.9603 21.2286C25.4558 20.8443 24.9274 20.492 24.4086 20.1259C24.3411 20.0783 24.28 20.0213 24.1737 19.9336C24.8714 19.743 25.5113 19.5512 26.1603 19.3975C26.4658 19.3253 26.6315 19.1894 26.7206 18.876C26.9029 18.2332 27.1333 17.6044 27.3635 16.9086L27.364 16.907Z" fill="#FF8080"/>
<path d="M15.8961 58.4348C15.5635 58.7307 15.2459 59.013 14.9057 59.3146C13.1144 57.1809 11.5968 54.8414 10.3519 52.2289C10.8011 52.1658 11.2053 52.0997 11.6117 52.0604C11.6808 52.0537 11.7944 52.1442 11.8309 52.2178C12.9358 54.458 14.3268 56.5106 15.8976 58.4454C15.905 58.4543 15.9056 58.4689 15.8945 58.4342L15.8961 58.4348Z" fill="#FF8080"/>
<path d="M68.8971 44.008C68.5476 45.2028 68.2328 46.3102 67.897 47.4105C67.7561 47.8708 67.5815 48.3212 67.3961 48.7661C67.3276 48.9308 67.1811 49.061 67.0792 49.2126C67.0187 49.3021 66.9257 49.4078 66.9331 49.4985C66.9765 50.0263 66.7618 50.3836 66.3357 50.6934C65.9822 50.9506 65.7022 51.3086 65.3128 51.6989C65.6495 50.999 65.949 50.396 66.2319 49.7853C67.0236 48.0771 67.6359 46.3038 68.0342 44.4642C68.1403 43.9755 68.4673 44.0785 68.8978 44.0079L68.8971 44.008Z" fill="#FF8080"/>
<path d="M14.1647 24.9375C14.4243 25.4812 14.6132 25.028 14.9057 24.9344C14.7532 25.2514 14.6231 25.5204 14.4949 25.786C14.3512 25.7823 14.2191 25.7793 13.9803 25.7727C14.4175 26.2598 14.1018 26.6375 13.9482 27.0348C13.7742 27.4843 13.6705 27.9787 13.4134 28.3736C13.1272 28.8135 13.1452 29.3085 12.9846 29.7655C12.8175 30.2426 12.709 30.7415 12.5873 31.2339C12.4357 31.8485 12.442 31.8491 11.7486 31.8841C12.2524 29.4703 13.0565 27.1817 14.1638 24.9369L14.1647 24.9375Z" fill="#FF8080"/>
<path d="M8.72693 47.7124L7.43009 38.4849L11.2418 37.9492C11.9327 37.8521 12.5465 37.893 13.0831 38.0718C13.6224 38.2472 14.0612 38.547 14.3995 38.9711C14.7374 39.3923 14.9507 39.9183 15.0394 40.549C15.1293 41.1888 15.066 41.7521 14.8496 42.239C14.6327 42.7228 14.2839 43.1179 13.8032 43.4244C13.3221 43.7279 12.7301 43.929 12.0272 44.0278L9.6167 44.3666L9.36974 42.6094L11.3657 42.3289C11.7021 42.2816 11.9769 42.1985 12.1899 42.0798C12.4055 41.9576 12.5592 41.7981 12.6511 41.6015C12.7425 41.4018 12.7681 41.1592 12.728 40.8739C12.6879 40.5885 12.5962 40.361 12.4529 40.1912C12.3091 40.0184 12.1166 39.9015 11.8752 39.8405C11.6334 39.7765 11.3458 39.7679 11.0124 39.8147L9.91302 39.9692L10.9572 47.399L8.72693 47.7124ZM13.3292 42.7651L16.2197 46.6594L13.7867 47.0013L10.9412 43.1007L13.3292 42.7651ZM17.1276 46.5318L15.8308 37.3043L22.2648 36.4001L22.5193 38.2113L18.3156 38.8021L18.5816 40.6945L22.4564 40.1499L22.7116 41.9657L18.8368 42.5102L19.1033 44.4071L23.3071 43.8163L23.5616 45.6275L17.1276 46.5318ZM27.4102 35.6769L29.6089 35.3679L30.5056 41.7478C30.5866 42.346 30.5173 42.8887 30.2979 43.376C30.078 43.8602 29.7361 44.2605 29.2721 44.5769C28.8111 44.8928 28.2547 45.0966 27.6029 45.1882C27.0261 45.2693 26.4879 45.2423 25.988 45.1073C25.4911 44.972 25.0732 44.7121 24.7344 44.3279C24.3985 43.9432 24.1856 43.4202 24.0958 42.759L26.317 42.4468C26.3594 42.6828 26.4329 42.8792 26.5377 43.036C26.645 43.1894 26.7782 43.2978 26.9372 43.3612C27.0962 43.4247 27.2778 43.442 27.4821 43.4133C27.6953 43.3833 27.8692 43.313 28.0037 43.2022C28.1378 43.0884 28.2298 42.9361 28.2795 42.7453C28.3323 42.5541 28.3414 42.3246 28.3068 42.0569L27.4102 35.6769ZM32.3059 44.3986L31.009 35.1711L37.443 34.2669L37.6976 36.0781L33.4939 36.6689L33.7598 38.5613L37.6346 38.0167L37.8898 39.8325L34.015 40.3771L34.2816 42.2739L38.4853 41.6831L38.7399 43.4944L32.3059 44.3986ZM47.6855 36.2366L45.4327 36.5532C45.3702 36.3261 45.2793 36.126 45.16 35.9529C45.0407 35.7797 44.8952 35.6379 44.7234 35.5272C44.5517 35.4166 44.3558 35.3415 44.1358 35.302C43.9184 35.259 43.6836 35.2553 43.4313 35.2907C42.9837 35.3536 42.6131 35.5175 42.3195 35.7824C42.029 36.0468 41.8257 36.3985 41.7097 36.8375C41.5968 37.2761 41.5817 37.7898 41.6644 38.3785C41.7505 38.9913 41.9098 39.4926 42.1423 39.8827C42.3773 40.2693 42.6688 40.5453 43.0168 40.7109C43.3673 40.8729 43.7619 40.9232 44.2004 40.8615C44.4467 40.8269 44.6661 40.7639 44.8584 40.6726C45.0538 40.5808 45.2197 40.4641 45.356 40.3224C45.4949 40.1773 45.6016 40.0106 45.6763 39.8225C45.7535 39.6309 45.796 39.4213 45.8038 39.1935L48.0585 38.8904C48.0769 39.3044 48.0148 39.7236 47.8723 40.1479C47.7328 40.5719 47.5148 40.9716 47.2184 41.3471C46.9215 41.7196 46.5403 42.0366 46.0747 42.2981C45.6121 42.5592 45.064 42.7342 44.4302 42.8233C43.5951 42.9407 42.8214 42.8625 42.1091 42.589C41.3994 42.312 40.8042 41.8473 40.3235 41.1951C39.8428 40.5428 39.5313 39.7105 39.3891 38.6983C39.2464 37.683 39.3192 36.7952 39.6075 36.0349C39.8957 35.2745 40.3445 34.6647 40.9539 34.2054C41.5632 33.746 42.2778 33.4588 43.0979 33.3435C43.6566 33.265 44.1842 33.2705 44.6807 33.36C45.1768 33.4465 45.626 33.6131 46.0283 33.8598C46.4301 34.1035 46.7738 34.4243 47.0595 34.8222C47.3451 35.22 47.5538 35.6915 47.6855 36.2366ZM48.4446 34.5678L48.19 32.7565L55.9892 31.6604L56.2438 33.4717L53.4458 33.8649L54.4881 41.2811L52.2894 41.5901L51.2471 34.1739L48.4446 34.5678ZM58.3753 40.7348L57.0785 31.5073L63.5125 30.6031L63.767 32.4143L59.5633 33.0051L59.8292 34.8975L63.7041 34.3529L63.9593 36.1687L60.0844 36.7132L60.351 38.6101L64.5547 38.0193L64.8093 39.8306L58.3753 40.7348ZM69.6168 39.1549L66.206 39.6343L64.9092 30.4068L68.3154 29.9281C69.2556 29.7959 70.0911 29.8669 70.8218 30.1409C71.5552 30.4116 72.1551 30.8664 72.6217 31.5053C73.0878 32.1412 73.3882 32.9383 73.5229 33.8965C73.658 34.8577 73.5893 35.7097 73.317 36.4524C73.0476 37.1948 72.598 37.7986 71.968 38.2639C71.3377 38.7262 70.5539 39.0232 69.6168 39.1549ZM68.1691 37.4194L69.264 37.2656C69.7806 37.193 70.2054 37.0444 70.5384 36.82C70.8739 36.5921 71.1054 36.267 71.2329 35.8448C71.363 35.4191 71.3814 34.8744 71.2881 34.2106C71.1948 33.5467 71.0274 33.0312 70.7859 32.6638C70.5439 32.2935 70.229 32.0468 69.841 31.9237C69.4557 31.7971 68.9987 31.771 68.47 31.8453L67.4067 31.9947L68.1691 37.4194Z" fill="#FF8080"/>
</svg>
