<svg width="32" height="32" viewBox="0 0 32 32" fill="none" xmlns="http://www.w3.org/2000/svg">
    <path d="M32 14H28V10H26V14H22V16H26V20H28V16H32V14ZM10 18H15.658C15.2428 19.169 14.4762 20.181 13.4632 20.8971C12.4503 21.6133 11.2405 21.9985 10 22C6.692 22 4 19.308 4 16C4 12.692 6.692 10 10 10C11.434 10 12.814 10.514 13.886 11.448L16.514 8.43201C14.7077 6.86121 12.3938 5.99732 10 6.00001C4.486 6.00001 0 10.486 0 16C0 21.514 4.486 26 10 26C15.514 26 20 21.514 20 16V14H10V18Z" fill="#F44336"/>
    </svg>
    