<svg width="32" height="32" viewBox="0 0 32 32" fill="none" xmlns="http://www.w3.org/2000/svg">
    <path fill-rule="evenodd" clip-rule="evenodd" d="M10.2718 9C8.49242 9 6.88761 10.0699 6.20325 11.7123C5.6115 13.1325 4.82616 16.6025 4.47662 18.23C4.37533 18.7015 4.32832 19.1277 4.36372 19.5239C4.47394 20.7571 4.8635 21.41 5.28837 21.7701C5.72594 22.1412 6.3556 22.3333 7.19377 22.3333C8.18001 22.3333 9.09668 21.8253 9.61938 20.9889L11.8139 17.4777L14.8338 12.4444L14.0512 11.1398C13.2546 9.81228 11.8199 9 10.2718 9ZM16.0001 10.5007L15.7661 10.1108C14.6081 8.18088 12.5224 7 10.2718 7C7.68502 7 5.352 8.55535 4.35709 10.9431C3.67805 12.5728 2.85488 16.2565 2.52121 17.81C2.39737 18.3865 2.31162 19.0301 2.37166 19.7019C2.51402 21.2948 3.05913 22.5021 3.99497 23.2956C4.91809 24.0784 6.0752 24.3333 7.19377 24.3333C8.8696 24.3333 10.4272 23.47 11.3154 22.0489L13.5148 18.53L16.0001 14.388L18.4758 18.5145L20.6848 22.0489C21.5729 23.47 23.1305 24.3333 24.8064 24.3333C26.0557 24.3333 27.3185 23.978 28.2601 22.9892C29.1956 22.0071 29.6668 20.554 29.6668 18.6667C29.6668 17.4928 29.2161 15.7469 28.782 14.3076C28.334 12.8228 27.8504 11.4981 27.7018 11.0985C27.6682 11.008 27.6293 10.908 27.5828 10.8031C26.5561 8.49468 24.2642 7 21.7284 7C19.4777 7 17.392 8.18089 16.234 10.1109L16.0001 10.5007ZM17.1662 12.4444L20.1862 17.4777L22.3808 20.9889C22.9034 21.8253 23.8201 22.3333 24.8064 22.3333C25.689 22.3333 26.3565 22.0881 26.812 21.6099C27.2737 21.1249 27.6668 20.2447 27.6668 18.6667C27.6668 17.8313 27.3114 16.358 26.8672 14.8852C26.4365 13.4579 25.969 12.1772 25.827 11.795C25.801 11.7248 25.7784 11.6676 25.7553 11.6158C25.0493 10.0282 23.4726 9 21.7284 9C20.1802 9 18.7456 9.81229 17.949 11.1399L17.1662 12.4444Z" fill="#5E94FF"/>
    <path fill-rule="evenodd" clip-rule="evenodd" d="M15.9998 10.5003V14.3884L13.5242 18.5145L13.5149 18.5301L11.3154 22.0489C10.4272 23.47 8.8696 24.3333 7.19377 24.3333C6.0752 24.3333 4.91809 24.0784 3.99497 23.2956C3.05913 22.5021 2.51402 21.2948 2.37166 19.7019C2.31162 19.0301 2.39737 18.3865 2.52121 17.81C2.85488 16.2565 3.67805 12.5728 4.35709 10.9431C5.352 8.55535 7.68502 7 10.2718 7C12.5224 7 14.6081 8.18087 15.7661 10.1108L15.9998 10.5003ZM6.20325 11.7123C6.88761 10.0699 8.49242 9 10.2718 9C11.8199 9 13.2546 9.81228 14.0512 11.1398L14.8338 12.4444L11.8139 17.4777L9.61938 20.9889C9.09668 21.8253 8.18001 22.3333 7.19377 22.3333C6.3556 22.3333 5.72594 22.1412 5.28837 21.7701C4.8635 21.41 4.47394 20.7571 4.36372 19.5239C4.32832 19.1277 4.37533 18.7015 4.47662 18.23C4.82616 16.6025 5.6115 13.1325 6.20325 11.7123Z" fill="#5485E5"/>
    </svg>
    