<svg width="32" height="32" viewBox="0 0 32 32" fill="none" xmlns="http://www.w3.org/2000/svg">
    <path d="M17.434 0C8.664 0 4 5.62 4 11.748C4 14.59 5.588 18.134 8.13 19.258C8.516 19.432 8.726 19.358 8.812 19C8.888 18.728 9.222 17.418 9.384 16.8C9.41279 16.7036 9.41537 16.6013 9.39146 16.5035C9.36756 16.4058 9.31804 16.3162 9.248 16.244C8.404 15.268 7.734 13.49 7.734 11.822C7.734 7.548 11.132 3.398 16.914 3.398C21.914 3.398 25.412 6.646 25.412 11.292C25.412 16.542 22.634 20.174 19.024 20.174C17.026 20.174 15.538 18.606 16.01 16.666C16.58 14.356 17.698 11.872 17.698 10.206C17.698 8.712 16.854 7.476 15.13 7.476C13.096 7.476 11.446 9.49 11.446 12.194C11.446 13.912 12.054 15.072 12.054 15.072L9.668 24.718C9.036 27.288 9.754 31.45 9.816 31.808C9.854 32.006 10.076 32.068 10.2 31.906C10.398 31.646 12.83 28.176 13.512 25.668C13.76 24.754 14.778 21.048 14.778 21.048C15.448 22.258 17.382 23.272 19.442 23.272C25.57 23.272 29.998 17.886 29.998 11.202C29.976 4.794 24.492 0 17.434 0Z" fill="#D32F2F"/>
    </svg>
    