<svg width="32" height="32" viewBox="0 0 32 32" fill="none" xmlns="http://www.w3.org/2000/svg">
	<g clip-path="url(#clip0_617_7742)">
		<path fill-rule="evenodd" clip-rule="evenodd" d="M15.7407 2.24429L16.1716 2.23846C16.1716 2.23846 16.2415 2.23846 16.2265 2.23846C19.7024 2.1952 22.8821 4.24595 24.2731 7.42232C24.7698 8.53464 24.8738 10.0771 24.8447 11.5829C25.2099 11.5995 25.5726 11.6761 25.9179 11.8117C27.0893 12.1935 27.9129 13.2634 27.9794 14.498C27.9803 14.5113 27.9811 14.5247 27.9811 14.5388C27.9986 15.4281 27.6899 16.7992 25.4403 17.686L25.3696 17.7102C25.8788 18.5022 26.8555 19.6353 28.3771 19.8865C29.6566 20.0962 30.5834 21.2518 30.5094 22.5504C30.4903 22.8657 30.417 23.1761 30.2922 23.4664C29.8729 24.4448 28.848 25.2568 26.769 25.7526C26.447 26.8807 25.3937 27.6578 24.2315 27.6286C23.9004 27.6245 23.5701 27.5887 23.2432 27.5197C22.9403 27.4548 22.6317 27.4215 22.3339 27.419C22.1475 27.4198 21.962 27.434 21.7773 27.4623C21.4378 27.5721 21.1234 27.7484 20.8447 27.9855C19.5368 29.0821 17.8987 29.7077 16.1933 29.7626C16.1808 29.7626 16.1675 29.7626 16.155 29.7626H15.8056C14.1042 29.706 12.4703 29.0796 11.1608 27.9789C10.8896 27.7468 10.5759 27.5712 10.2373 27.4598C9.74483 27.4007 9.24733 27.4232 8.78477 27.5205C8.46946 27.5937 8.14666 27.6361 7.81472 27.6478C6.61755 27.6802 5.5435 26.8857 5.23069 25.7543C3.15082 25.2576 2.12753 24.444 1.71072 23.4656C1.58593 23.1777 1.51189 22.8707 1.49109 22.5438C1.42038 21.2501 2.348 20.0987 3.6242 19.8915C5.14583 19.6411 6.12254 18.508 6.63502 17.711L6.56597 17.6869C5.32137 17.1952 4.7024 16.5446 4.37795 15.9664C3.97279 15.2451 3.97778 14.5579 4.06846 14.0787C4.07512 14.0405 4.08427 14.003 4.09592 13.9648C4.49525 12.597 5.74067 11.6411 7.15831 11.602C7.12919 10.092 7.22986 8.54462 7.7257 7.43231C9.11422 4.25843 12.2789 2.21101 15.7407 2.24429ZM24.3164 14.0521C24.2024 14.1062 24.0909 14.1511 23.9928 14.1869C23.6126 14.3258 23.1874 14.2634 22.863 14.0213C22.5385 13.7792 22.358 13.3899 22.3829 12.9856C22.4786 11.4448 22.6192 9.60452 22.0784 8.39321C21.0701 6.09038 18.7698 4.60702 16.2565 4.6378C16.2515 4.6378 16.2465 4.6378 16.2415 4.6378C16.2415 4.6378 16.1716 4.6378 16.1883 4.6378L15.7357 4.64362C13.2265 4.61284 10.9304 6.09454 9.92121 8.40069C9.37961 9.61866 9.52603 11.4814 9.62254 13.033C9.64666 13.4273 9.47528 13.8092 9.1633 14.0529C8.85132 14.2959 8.43951 14.3707 8.06264 14.2509C7.89375 14.1977 7.72819 14.1336 7.56763 14.0596C7.46613 14.0205 7.35881 14.0005 7.24983 14.0005C6.87961 14.0005 6.54933 14.2326 6.42037 14.5754C6.40706 14.8291 6.64916 15.1395 7.44949 15.4556C7.54101 15.4922 7.65166 15.528 7.77395 15.5662C8.13751 15.6677 8.49026 15.8042 8.82803 15.9731C9.29142 16.2044 9.55349 16.7068 9.47861 17.2202C9.44284 17.4656 9.3638 17.7035 9.24483 17.9215C8.99608 18.4523 7.33468 21.7127 4.01106 22.2601C3.93701 22.2717 3.88294 22.3391 3.88627 22.4007C3.88876 22.439 3.89791 22.4772 3.91622 22.5188C4.00024 22.7152 4.18743 22.845 4.44284 22.9764C4.91622 23.2202 5.56929 23.3982 6.42869 23.5538C6.88876 23.6361 7.25814 23.9789 7.37545 24.4298C7.38127 24.4556 7.39791 24.538 7.41039 24.622L7.40124 24.5396C7.43868 24.711 7.47611 24.8857 7.53768 25.0912C7.56347 25.186 7.65166 25.2509 7.74151 25.2484C7.90956 25.2435 8.07678 25.221 8.2648 25.1777C9.05265 25.0113 9.8638 24.9831 10.6616 25.0954C10.719 25.1029 10.7764 25.1153 10.833 25.132C11.526 25.3358 12.1683 25.6836 12.7116 26.1469C13.5992 26.8932 14.7116 27.3208 15.8705 27.3633H16.1309C17.2939 27.3225 18.4104 26.894 19.2956 26.1528C19.843 25.686 20.4819 25.34 21.1725 25.137C21.219 25.1237 21.2665 25.1128 21.3147 25.1045C21.6483 25.0488 21.9861 25.0205 22.3363 25.0197C22.8097 25.0222 23.2814 25.0737 23.7415 25.1719C23.9121 25.2077 24.0868 25.2268 24.2764 25.2293C24.363 25.2318 24.4403 25.1736 24.462 25.0904L24.6167 24.4648C24.724 23.9955 25.1001 23.6361 25.5735 23.5504C26.4337 23.3957 27.0868 23.2177 27.5601 22.9756C27.8155 22.845 28.0027 22.716 28.0868 22.5205C28.1017 22.4839 28.1109 22.4456 28.1134 22.4098C28.1175 22.335 28.0643 22.2676 27.9878 22.2551C24.4445 21.6702 22.7923 18.0014 22.7307 17.8583C22.7282 17.8524 22.7265 17.8474 22.724 17.8416C22.7224 17.8375 22.7174 17.8291 22.724 17.8433C22.6808 17.7551 22.6417 17.6603 22.62 17.6062C22.5252 17.4057 22.4861 17.1811 22.5119 16.9556C22.5535 16.592 22.7581 16.2676 23.0676 16.0737C23.4279 15.8491 23.818 15.6777 24.2274 15.5662C24.3463 15.5296 24.4586 15.4939 24.5543 15.4556C25.2898 15.1661 25.5768 14.8924 25.5809 14.6029C25.5585 14.3633 25.3929 14.1594 25.1616 14.0887C25.1259 14.0779 25.0909 14.0654 25.056 14.0513C24.8189 13.9548 24.5527 13.9548 24.3164 14.0521ZM7.37545 24.4298L7.37379 24.4207C7.37379 24.4207 7.37961 24.4431 7.38294 24.4539L7.37545 24.4298Z" fill="#EEEB06" />
	</g>
	<defs>
		<clipPath id="clip0_617_7742">
			<rect width="32" height="32" fill="white" />
		</clipPath>
	</defs>
</svg>
