<svg width="32" height="25" viewBox="0 0 32 25" fill="none" xmlns="http://www.w3.org/2000/svg">
    <g clip-path="url(#clip0_617_7735)">
    <path d="M8.58654 4.3547C6.31656 4.3416 6.00052 6.54713 5.99003 8.21013C5.98085 9.87313 6.27067 12.114 8.53933 12.1271C10.808 12.1389 11.1253 9.90458 11.1358 8.23896C11.145 6.57596 10.8552 4.36649 8.58654 4.3547ZM8.51573 16.4819C2.61457 16.4478 -0.0265223 12.5308 -0.000294935 8.17605C0.0259324 3.82002 2.7103 -0.0340924 8.61146 -1.99208e-05C14.5126 0.032742 17.1537 3.91831 17.1275 8.27434C17.1013 12.6291 14.4169 16.5146 8.51573 16.4806" fill="white"/>
    <path d="M23.4573 4.35472C21.1886 4.34161 20.8726 6.54715 20.8634 8.21146C20.8529 9.87445 21.1414 12.1141 23.4127 12.1272C25.6801 12.1403 25.9974 9.90459 26.0066 8.2416C26.0158 6.5786 25.726 4.36782 23.4573 4.35472ZM23.3865 16.4819C17.4866 16.4465 14.8455 12.5295 14.8718 8.17476C14.8954 3.82135 17.5811 -0.0353855 23.4822 -2.57358e-06C29.3834 0.0340699 32.0245 3.91964 31.9995 8.27436C31.9733 12.6304 29.2876 16.5146 23.3865 16.4819Z" fill="white"/>
    <path d="M2.24763 16.4832C6.50171 18.382 10.9171 19.226 15.7272 19.2535C20.7812 19.2836 24.613 18.3296 29.4638 16.4832L29.4349 21.7146C25.093 23.8664 20.3838 25.0262 15.6918 25C10.5787 24.9698 6.89249 23.9201 2.21484 21.7146L2.24632 16.4832H2.24763Z" fill="white"/>
    </g>
    <defs>
    <clipPath id="clip0_617_7735">
    <rect width="32" height="25" fill="white"/>
    </clipPath>
    </defs>
    </svg>
    