<svg width="32" height="32" viewBox="0 0 32 32" fill="none" xmlns="http://www.w3.org/2000/svg">
    <path d="M22.0087 1.966L17.1723 1.96741V21.9344C17.1723 23.6533 16.1461 25.1867 14.558 25.8445C12.9699 26.5023 11.1619 26.1421 9.94644 24.9266C8.73098 23.7112 8.37076 21.9012 9.02856 20.3131C9.68637 18.7251 11.2197 17.7012 12.9386 17.7012H14.5028V12.8643H12.9386C9.27706 12.8643 5.96087 15.0808 4.55964 18.4637C3.15842 21.8465 3.93619 25.7586 6.52531 28.3477C9.11443 30.9369 13.027 31.7146 16.4098 30.3134C19.7927 28.9122 22.0087 25.596 22.0087 21.9344V10.8627C23.3256 11.6473 24.8811 12.2233 26.7942 12.2233H29.2115V7.38492H26.7942C24.0742 7.38492 23.3367 6.2786 22.6909 4.87458C22.0457 3.4719 22.0087 1.966 22.0087 1.966Z" fill="url(#paint0_linear_617_7696)"/>
    <path d="M21.041 0.998535L16.2045 0.999952V20.967C16.2045 22.6859 15.1783 24.2192 13.5903 24.877C12.0022 25.5348 10.1941 25.1746 8.97867 23.9591C7.76321 22.7437 6.91862 20.9337 7.57642 19.3457C8.23422 17.7576 10.2791 16.1483 11.9709 16.4525L13.535 16.7338V11.8968H11.9709C8.30929 11.8968 4.99309 14.1134 3.59187 17.4962C2.19065 20.8791 2.96841 24.7912 5.55753 27.3803C8.14666 29.9694 11.5731 30.1726 14.9559 28.7714C18.3388 27.3702 20.0795 24.2712 20.2455 20.6134L20.7758 8.92301C22.0926 9.70758 23.9149 10.672 25.8108 10.9277L28.2437 11.2558L27.4781 8.8593L28.2437 7.91741L28.2437 6.41746H25.8264C23.1064 6.41746 22.3689 5.31113 21.7231 3.90711C21.0779 2.50443 21.041 0.998535 21.041 0.998535Z" fill="url(#paint1_linear_617_7696)"/>
    <path d="M21.2554 2.49896L17.7047 2.49994V22.4668C17.7047 24.1857 16.6786 25.7191 15.0905 26.3768C13.5025 27.0346 11.6943 26.6743 10.4788 25.4589C10.2213 25.2014 10.0047 24.9159 9.82552 24.6127C9.52214 24.4334 9.23668 24.2167 8.97886 23.9589C7.76342 22.7435 7.40312 20.9333 8.06092 19.3453C8.71871 17.7572 10.2521 16.7335 11.971 16.7335H13.5349V13.3967H13.471C9.80942 13.3967 6.49344 15.6133 5.09223 18.9962C3.82795 22.0484 4.33797 25.5309 6.35148 28.0843C8.90514 30.0991 12.3891 30.6101 15.4421 29.3455C18.8249 27.9443 21.0411 24.6283 21.0411 20.9668V9.89528C22.3579 10.6798 23.9131 11.2556 25.8261 11.2556H28.2436V7.9173H27.3261C25.004 7.9173 24.1278 7.10986 23.5191 6.00035C22.5716 5.55384 22.129 4.78941 21.7232 3.90713C21.5024 3.42707 21.3567 2.93869 21.2554 2.49896Z" fill="url(#paint2_linear_617_7696)"/>
    <path d="M18.7275 3.07452H18.4785V3.57452H18.7275V3.07452ZM18.7275 4.32402H18.4785V4.82402H18.7275V4.32402ZM18.7275 5.57499H18.4785V6.07499H18.7275V5.57499ZM18.7275 6.82449H18.4785V7.32449H18.7275V6.82449ZM18.7275 8.07399H18.4785V8.57399H18.7275V8.07399ZM18.7275 9.32495H18.4785V9.82495H18.7275V9.32495ZM18.7275 10.5745H18.4785V11.0745H18.7275V10.5745ZM18.7275 11.824H18.4785V12.3239H18.7275V11.824ZM18.7275 13.0749H18.4785V13.5749H18.7275V13.0749ZM18.7275 14.3244H18.4785V14.8244H18.7275V14.3244ZM18.7275 15.5739H18.4785V16.0739H18.7275V15.5739ZM18.7275 16.8249H18.4785V17.3249H18.7275V16.8249Z" fill="#453A4B"/>
    <defs>
    <linearGradient id="paint0_linear_617_7696" x1="15.9996" y1="29.7493" x2="25.0865" y2="10.2339" gradientUnits="userSpaceOnUse">
    <stop stop-color="#F40A1B"/>
    <stop offset="1" stop-color="#FF585B"/>
    </linearGradient>
    <linearGradient id="paint1_linear_617_7696" x1="15.9993" y1="0.999685" x2="11.994" y2="29.7493" gradientUnits="userSpaceOnUse">
    <stop stop-color="#00FDFF"/>
    <stop offset="1" stop-color="#00D4ED"/>
    </linearGradient>
    <linearGradient id="paint2_linear_617_7696" x1="21.3201" y1="-4.41091" x2="15.9997" y2="30.9993" gradientUnits="userSpaceOnUse">
    <stop stop-color="#BCA6AE"/>
    <stop offset="1" stop-color="#322A3D"/>
    </linearGradient>
    </defs>
    </svg>
    